<svg id="layer" xmlns="http://www.w3.org/2000/svg" viewBox="0 0 652 652"><style>.st0,.st1{fill-rule:evenodd;clip-rule:evenodd;fill:#435f74}.st1{fill:#fff}</style><path class="st0" d="M135.9 353.9l-26.7-51.3-21.6 51.3h48.3zM26.3 406.4v3.5l32.7 1 12.8-28.3 80 .3 12.2 28.9 32.1-2.2-85.6-166.4-84.2 163.2z"/><path class="st1" d="M524.8 271.2c-16.2 5-25.1 8.9-34.3 24-25.1 41.1 9.9 100.9 66 84.3 70.8-21.1 38.1-130.1-31.7-108.3"/><path class="st0" d="M220.4 396.6c34 29.7 78.5 11 91.2-20.9 8.1-20.3 5.5-110.7 3.9-136.7l-14.2.5h-13.8v.4c-.3 10-.2 20 0 29.9v81.8c-1.6 15.8-10.5 29-29.1 29.6-12.2-.2-18.9-3.2-22.3-3.8-4.7-.8-6.1 6.4-15.7 19.2"/><path class="st1" d="M88 353.1l47.4.3c-6.2-16.1-15-36.8-27-46.8L88 353.1z"/><path class="st0" d="M230.9 397.2c-3.5-.3-7.1-.5-10.6-.8 4.3-7.2 8.5-14.5 12.8-21.7 6.6 4.1 9.8 5.1 17.5 6.2-1 3.8-2 7.5-3 11.3-5.5 1.6-11.1 3.3-16.7 5M131 294.7l4.9 59.2-26.7-51.3zm408.5-56.1c47.9 0 86.8 38.8 86.8 86.7S587.4 412 539.5 412s-86.7-38.8-86.7-86.7 38.8-86.7 86.7-86.7m0 29.6c31.5 0 57.1 25.6 57.1 57.1s-25.5 57.1-57.1 57.1c-31.5 0-57.1-25.6-57.1-57.1s25.6-57.1 57.1-57.1M376.1 239H403v173.1h-26.9z"/></svg>