<svg height="512" viewBox="0 0 512 512" width="512" xmlns="http://www.w3.org/2000/svg"><path d="M40 328h240v160H40z" fill="#804913"/><path d="M80 376h160v48H80z" fill="#faa231"/><path d="M48 312V205.86a20 20 0 0 1 12.978-18.727L112 168h48l51.022 19.133A20 20 0 0 1 224 205.86V312z" fill="#25b1fa"/><path d="M24 304h272v32H24z" fill="#faa231"/><path d="M136 264H80a8 8 0 0 1-8-8v-24h16v16h48z" fill="#127bb3"/><path d="M168 168l-32 32-32-32 16-32h32z" fill="#ffd4cf"/><path d="M152 136h-32l-7.844 15.688 7.38 4.428a32 32 0 0 0 32.928 0l7.38-4.428z" fill="#fbb8b0"/><path d="M176 56H96v60.676a20 20 0 0 0 9.71 17.15l20 12a20 20 0 0 0 20.58 0l20-12a20 20 0 0 0 9.71-17.15z" fill="#ffd4cf"/><path d="M175.616 64H144V32l24.851 4.213A20 20 0 0 1 184 55.616 8.384 8.384 0 0 1 175.616 64z" fill="#804913"/><path d="M104 168l32 32-48 8zm64 0l-32 32 48 8z" fill="#b3e9ff"/><path d="M80 44V24h52a20 20 0 0 1 20 20v20h-52a20 20 0 0 1-20-20z" fill="#faa231"/><path d="M448 384l-8-8h-72l-24 8-8 40h72v32h-20a28.032 28.032 0 0 0-28 28v4h16v-4a12.013 12.013 0 0 1 12-12h56a12.013 12.013 0 0 1 12 12v4h16v-4a28.032 28.032 0 0 0-28-28h-20v-32h34a30 30 0 0 0 30-30v-10z" fill="#804913"/><path d="M464 336l-8-8h-88l-7.544 8a40 40 0 0 0-39.142 31.76L296 488h40l32-104h76a20 20 0 0 0 20-20z" fill="#d76b4c"/><path d="M464 336h-96v-92.445a60.015 60.015 0 0 1 4.291-22.283l9.195-22.986A10 10 0 0 1 390.77 192l1.23-8h32l8 8h12a20 20 0 0 1 20 20z" fill="#faa231"/><path d="M336 488h-80a32 32 0 0 1 32-32h56z" fill="#fa5d3f"/><path d="M368 96v32l-11.658 23.317a6 6 0 0 0 5.366 8.683H376v12a20 20 0 0 0 20 20h32a20 20 0 0 0 20-20V96zm-10 200h26v40h-56v-10a30 30 0 0 1 30-30zm-166 8h-56v-40h26a30 30 0 0 1 30 30v10z" fill="#ffd4cf"/><path d="M352 56h66a30 30 0 0 1 30 30v18h-76a20 20 0 0 1-20-20V56z" fill="#fa5d3f"/><path d="M216 68v44l-24 32h108a20 20 0 0 0 20-20V68a20 20 0 0 0-20-20h-64a20 20 0 0 0-20 20z" fill="#b3e9ff"/><path d="M240 72h56v16h-56zm0 32h56v16h-56z" fill="#25b1fa"/></svg>