<svg height="496pt" viewBox="0 0 496 496" width="496pt" xmlns="http://www.w3.org/2000/svg"><path d="M200 72V8h176v64h-72l-48 40V72zm104 336v80h-32l-16-32H128l-16 32H80V376h224zm0-64v32H80v-32zm0 0" fill="#e6e9ed"/><path d="M328 312v32H64v-32zm0 0" fill="#aab2bd"/><path d="M256 456l16 32H112l16-32zm136-48l8 80h-32l-8-80zm0 0" fill="#838f9b"/><path d="M440 264v96c0 26.48-21.52 48-48 48h-88v-32h72c17.68 0 32-14.32 32-32v-80zm0 0" fill="#cf9e76"/><path d="M387.04 252.96a16.957 16.957 0 0 0 4.96-12c0-4.64-1.922-8.96-4.96-12-2.481-2.401-5.599-4.16-11.04-4.882V224h11.04c3.28 0 6.48.719 9.358 2.238C403.52 229.762 408 237.04 408 244.961V344c0 17.68-14.32 32-32 32h-72v-32h24v-32h-3.281c2.082 0 4.16-.879 5.601-2.32zm0 0" fill="#fcd770"/><path d="M240 312H96v-37.922c0-10.719 7.121-20.078 17.441-23.039L152 240s8 16 24 16 24-16 24-16l38.559 11.04C248.879 254 256 263.36 256 274.077V280h-16c-4.398 0-8.398 1.762-11.281 4.719C225.762 287.602 224 291.602 224 296c0 8.8 7.2 16 16 16zm0 0" fill="#69d6f4"/><g fill="#f0d0b4"><path d="M376 224.078c5.441.723 8.559 2.48 11.04 4.883a17.073 17.073 0 0 1 4.96 12c0 4.48-1.762 8.8-4.96 12l-56.72 56.719a8.067 8.067 0 0 1-5.601 2.32H240c-8.8 0-16-7.2-16-16 0-4.398 1.762-8.398 4.719-11.281C231.602 281.762 235.602 280 240 280h72l51.04-51.04a16.957 16.957 0 0 1 12-4.96c.32 0 .64 0 .96.078zM408 168v16c0 22.078-17.922 40-40 40s-40-17.922-40-40v-16c0-22.078 17.922-40 40-40 11.04 0 21.04 4.48 28.32 11.68 7.2 7.28 11.68 17.28 11.68 28.32zm-256 48c6.64 5.04 14.96 8 24 8s17.36-2.96 24-8v24s-8 16-24 16-24-16-24-16zm0 0"/><path d="M216 168v16c0 13.04-6.32 24.719-16 32-6.64 5.04-14.96 8-24 8s-17.36-2.96-24-8c-9.68-7.281-16-18.96-16-32v-16c0-22.078 17.922-40 40-40 11.04 0 21.04 4.48 28.32 11.68 7.2 7.28 11.68 17.28 11.68 28.32zm0 0"/></g><path d="M248 129.078L306.895 80H384V0H192v80h56zM208 64V16h160v48h-66.895L264 94.922V64zm0 0"/><path d="M224 32h16v16h-16zm32 0h64v16h-64zm80 0h16v16h-16zm71.238 448l-6.468-64.762C427.48 411.016 448 387.887 448 360V256h-32v-11.055c0-10.875-5.977-20.64-15.586-25.648C409.97 210.52 416 197.969 416 184v-16c0-26.473-21.527-48-48-48s-48 21.527-48 48v16c0 20.71 13.207 38.344 31.625 45.063L308.687 272h-44.863c-.894-13.336-10.054-24.96-23.031-28.672L208 233.968V219.68c9.793-8.793 16-21.504 16-35.68v-16c0-26.473-21.527-48-48-48s-48 21.527-48 48v16c0 14.168 6.207 26.879 16 35.68v14.297l-32.793 9.359C97.543 247.23 88 259.886 88 274.106V304H56v48h16v128H0v16h496v-16zM336 352v-36.688l56.688-56.687c4.097-4.098 6.535-9.602 7.082-15.344.07.559.23 1.086.23 1.664V344c0 13.23-10.77 24-24 24h-64v-16zm-24 64h40.762l6.398 64H312zm56.84 0h15.922l6.398 64h-15.922zM416 344v-72h16v88c0 22.055-17.945 40-40 40h-80v-16h64c22.055 0 40-17.945 40-40zm-80-160v-16c0-17.648 14.352-32 32-32s32 14.352 32 32v16c0 17.648-14.352 32-32 32s-32-14.352-32-32zm-20.688 104l53.375-53.375a9.03 9.03 0 0 1 6.344-2.625c4.946 0 8.969 4.023 8.969 8.969a9.03 9.03 0 0 1-2.625 6.344L324.687 304H240c-4.414 0-8-3.586-8-8s3.586-8 8-8zM144 168c0-17.648 14.352-32 32-32s32 14.352 32 32v16c0 17.648-14.352 32-32 32s-32-14.352-32-32zm32 64c5.617 0 10.984-1.023 16-2.8v8.593c-1.984 3.062-7.496 10.207-16 10.207s-14.016-7.145-16-10.207v-8.594c5.016 1.778 10.383 2.801 16 2.801zm-72 42.105c0-7.113 4.777-13.433 11.602-15.386l32.957-9.414C153.199 255.352 162.23 264 176 264s22.8-8.648 27.441-14.703l32.957 9.414c6.13 1.754 10.403 7.082 11.258 13.281H240c-13.23 0-24 10.77-24 24 0 2.817.574 5.488 1.473 8H104zM72 320h248v16H72zm16 64h24v-16H88v-16h208v16H128v16h168v96h-19.055l-16-32h-137.89l-16 32H88zm171.055 96h-134.11l8-16h118.11zm0 0"/></svg>