<svg xmlns="http://www.w3.org/2000/svg" width="512" height="512" viewBox="0 0 64 64"><path xmlns="http://www.w3.org/2000/svg" d="M42 34h10v27H42z" fill="#407093" data-original="#937963"/><circle xmlns="http://www.w3.org/2000/svg" cx="32" cy="9" fill="#407093" r="6" data-original="#039791"/><path xmlns="http://www.w3.org/2000/svg" d="M38 39l1-16v10.5a2.5 2.5 0 0 0 2.5 2.5 2.5 2.5 0 0 0 2.5-2.5V20a4 4 0 0 0-4-4H24a4 4 0 0 0-4 4v13.5a2.5 2.5 0 0 0 2.5 2.5 2.5 2.5 0 0 0 2.5-2.5V23l1 16v19a3 3 0 0 0 3 3 3 3 0 0 0 3-3 3 3 0 0 0 3 3 3 3 0 0 0 3-3z" fill="#407093" data-original="#039791"/><path xmlns="http://www.w3.org/2000/svg" d="M42 34h19v27H42z" fill="#407093" data-original="#d6c2ad"/><path xmlns="http://www.w3.org/2000/svg" d="M47 56V34h5v27z" fill="#c2d0d5" data-original="#c7b29e"/><path xmlns="http://www.w3.org/2000/svg" d="M3 34h22v27H3z" fill="#c2d0d5" data-original="#f4bb3a"/><path xmlns="http://www.w3.org/2000/svg" d="M3 34h10v27H3z" fill="#c2d0d5" data-original="#d6562b"/><path xmlns="http://www.w3.org/2000/svg" d="M8 56V34h5v27z" fill="#407093" data-original="#f09b36"/><path xmlns="http://www.w3.org/2000/svg" d="M23 34h-2v-4a2 2 0 0 0-4 0v4h-2v-4a4 4 0 0 1 8 0zm-11 0h-2v-4a2 2 0 0 0-4 0v4H4v-4a4 4 0 0 1 8 0z" fill="#29485a" data-original="#29485a"/><path xmlns="http://www.w3.org/2000/svg" d="M3 61l5-5 5 5z" fill="#407093" data-original="#ed7c31"/><path xmlns="http://www.w3.org/2000/svg" d="M42 61l5-5 5 5z" fill="#407093" data-original="#b29c88"/><path xmlns="http://www.w3.org/2000/svg" d="M40 43h-2v-4a2 2 0 0 0-4 0v4h-2v-4a4 4 0 0 1 8 0zm-11 0h-2v-4a2 2 0 0 0-4 0v4h-2v-4a4 4 0 0 1 8 0z" fill="#29485a" data-original="#29485a"/><path xmlns="http://www.w3.org/2000/svg" d="M20 43h22v18H20z" fill="#c4ced1" data-original="#97d7d9"/><path xmlns="http://www.w3.org/2000/svg" d="M20 43h10v18H20z" fill="#c2d0d5" data-original="#6ac9cd"/><path xmlns="http://www.w3.org/2000/svg" d="M20 61l5-5 5 5z" fill="#407093" data-original="#4ec3c7"/><path xmlns="http://www.w3.org/2000/svg" d="M25 56V43h5v18z" fill="#407093" data-original="#81d0d3"/><path d="M60 34h-2v-4a2 2 0 0 0-4 0v4h-2v-4a4 4 0 0 1 8 0zm-9 0h-2v-4a2 2 0 0 0-4 0v4h-2v-4a4 4 0 0 1 8 0z" data-original="#29485a" xmlns="http://www.w3.org/2000/svg" fill="#29485a"/></svg>