<svg xmlns="http://www.w3.org/2000/svg" width="512" height="512" viewBox="0 0 512 512"><g xmlns="http://www.w3.org/2000/svg"><path d="M436.034 198.177S512 276.78 512 397.259c0 0-11.754 4.296-32.894 9.261a518.993 518.993 0 0 1-15.288 3.327 541.869 541.869 0 0 1-20.264 3.698 584.11 584.11 0 0 1-15.401 2.308c-23.674 3.204-51.633 5.543-82.93 5.543-39.569 0-73.812-3.729-100.782-8.262-41.64-6.985-65.993-15.875-65.993-15.875 0-120.48 75.966-199.082 75.966-199.082v-49.14l-40.96-33.635-35.006-28.742 66.848-59.926a47.448 47.448 0 0 1 28.567-12.043 47.68 47.68 0 0 1 14.288 1.205c7.572 1.813 14.773 5.512 20.892 11.074l7.129 6.49c16.463 14.999 41.64 14.999 58.113 0l7.129-6.49c6.119-5.563 13.32-9.261 20.892-11.074 14.742-3.533 30.844.072 42.845 10.838L512 86.66l-56.516 46.41-19.45 15.968z" fill="#c2d0d5" data-original="#80b4fb"/><path d="M277.85 113.295v89.655s-31.009 94.2-31.009 140.27c0 18.337-1.092 44.761-2.4 69.918-41.64-6.985-65.993-15.875-65.993-15.875 0-120.48 75.966-199.082 75.966-199.082v-97.084h11.238c6.737-.001 12.198 5.46 12.198 12.198zm-3.987-98.601c-23.282 21.685-50.273 67.312-60.41 100.711l-35.006-28.742 66.848-59.926c8.191-7.345 18.298-11.352 28.568-12.043zM402.306 15.9c-2.462 11.59-21.768 96.796-57.082 109.168-35.314-12.372-54.61-97.579-57.072-109.168 7.572 1.813 14.773 5.511 20.892 11.074l7.129 6.49c16.463 14.999 41.64 14.999 58.113 0l7.129-6.49c6.118-5.563 13.319-9.261 20.891-11.074zm41.249 397.647a584.11 584.11 0 0 1-15.401 2.308c-.7-31.791-3.976-63.48-9.756-94.241-.783-4.193 1.978-8.231 6.171-9.014s8.231 1.968 9.025 6.171c5.809 30.956 9.157 62.799 9.961 94.776zm35.551-7.026a518.993 518.993 0 0 1-15.288 3.327c-1.442-24.312-4.42-48.573-8.849-72.154-.793-4.193 1.968-8.231 6.171-9.024 4.193-.783 8.231 1.978 9.014 6.171 4.399 23.447 7.407 47.522 8.952 71.68zM455.484 133.07l-19.45 15.968V118.31c0-4.878 6.412-6.675 8.947-2.507z" fill="#407093" data-original="#61a2f9"/><path d="M345.229 213.797a535.455 535.455 0 0 1-92.138-8.003 7.727 7.727 0 1 1 2.656-15.223c59.376 10.363 119.587 10.364 178.963 0a7.727 7.727 0 0 1 2.656 15.223 535.443 535.443 0 0 1-92.137 8.003z" fill="#407093" data-original="#ffd064"/><path d="M36.334 327.493a7.726 7.726 0 0 1-7.627-6.557c-4.732-30.867 23.693-52.547 53.787-75.5 12.775-9.743 26.299-20.059 38.081-31.65-9.504-5.429-18.434-10.991-26.376-16.734-25.392-18.362-37.735-36.735-37.735-56.171 0-30.704 17.06-43.672 27.23-48.668 18.973-9.322 43.861-6.212 61.934 7.739 19.063 14.716 26.918 38.295 21.548 64.691-3.514 17.274-11.532 32.007-21.927 45.023 10.636 5.596 21.715 11.105 32.715 16.575 55.942 27.818 108.782 54.094 112.597 92.766a7.727 7.727 0 0 1-15.379 1.517c-2.976-30.161-54.383-55.724-104.099-80.447-12.176-6.054-24.538-12.202-36.378-18.512-13.144 13.507-28.436 25.17-42.841 36.158-27.487 20.964-51.226 39.07-47.884 60.872a7.726 7.726 0 0 1-7.646 8.898zm71.057-225.122c-5.983 0-11.796 1.212-16.883 3.711-12.163 5.976-18.592 18.01-18.592 34.799 0 22.677 26.047 42.544 59.44 61.258 9.944-11.943 17.562-25.264 20.677-40.576 5.682-27.933-7.49-42.927-15.848-49.378-8.324-6.426-18.795-9.814-28.794-9.814z" fill="#407093" data-original="#407093"/><path d="M282.872 314.615a2361.661 2361.661 0 0 0-246.528 0c-16.699.872-30.414 13.538-32.533 30.125-5.082 39.777-5.082 79.554 0 119.331 2.119 16.587 15.833 29.253 32.533 30.125a2361.661 2361.661 0 0 0 246.528 0c16.699-.872 30.414-13.537 32.533-30.125 5.082-39.777 5.082-79.554 0-119.331-2.119-16.587-15.833-29.253-32.533-30.125z" fill="#407093" data-original="#db5c6e"/><path d="M51.333 494.93c-4.996-.227-9.993-.474-14.989-.731-16.699-.876-30.411-13.537-32.533-30.133-5.079-39.775-5.079-79.551 0-119.326 2.122-16.586 15.834-29.257 32.533-30.122 4.996-.258 9.993-.505 14.989-.731-10.6 5.244-18.306 15.525-19.882 27.877-5.337 41.764-5.337 83.527 0 125.28 1.576 12.351 9.282 22.632 19.882 27.886z" fill="#407093" data-original="#d64553"/><path d="M315.4 397.453c-2.116 16.586-15.83 29.248-32.53 30.117a2356.745 2356.745 0 0 1-246.529 0c-16.7-.869-30.414-13.531-32.531-30.117a488.886 488.886 0 0 1-2.618-26.196 467.64 467.64 0 0 0-.095 64.976 36.492 36.492 0 0 0 28.58 16.352 2484.443 2484.443 0 0 0 259.857 0 36.492 36.492 0 0 0 28.588-16.364 467.679 467.679 0 0 0-.099-65.011 468.838 468.838 0 0 1-2.623 26.243z" fill="#407093" data-original="#d64553"/><path d="M201.215 454.627a681.297 681.297 0 0 1-74.506 0c-10.869-.595-19.534-9.197-20.409-20.047a277.665 277.665 0 0 1 0-44.676c.874-10.85 9.539-19.453 20.408-20.047a681.297 681.297 0 0 1 74.506 0c10.869.595 19.534 9.197 20.408 20.047 1.2 14.892 1.2 29.784 0 44.676-.873 10.85-9.538 19.452-20.407 20.047z" fill="#407093" data-original="#ffd064"/><path d="M163.962 428.194c-10.163 0-20.447-.242-30.644-.719a250.987 250.987 0 0 1 0-30.468c10.197-.477 20.482-.719 30.644-.719s20.446.242 30.643.719c.617 10.13.617 20.339 0 30.468a657.943 657.943 0 0 1-30.643.719z" fill="#407093" data-original="#db5c6e"/><path d="M163.963 435.92c-10.262 0-20.694-.244-31.006-.727a7.726 7.726 0 0 1-7.351-7.249 259.544 259.544 0 0 1 0-31.407 7.727 7.727 0 0 1 7.351-7.249c10.32-.483 20.752-.727 31.006-.727s20.684.244 31.004.727a7.726 7.726 0 0 1 7.351 7.249 259.544 259.544 0 0 1 0 31.407 7.727 7.727 0 0 1-7.351 7.249 665.703 665.703 0 0 1-31.004.727zm-23.256-15.872c15.528.557 30.979.557 46.509 0 .166-5.198.166-10.416 0-15.614a646.293 646.293 0 0 0-46.509 0 244.838 244.838 0 0 0 0 15.614z" fill="#c4ced1" data-original="#ffc250"/></g></svg>