<svg id="Layer_1" xmlns="http://www.w3.org/2000/svg" xmlns:xlink="http://www.w3.org/1999/xlink" viewBox="0 0 500 500"><style>.st0{fill:url(#XMLID_3_)}.st1{fill:#fcd109}.st2{fill:#f8f3b5}.st3{fill:#f7b402}.st4{fill:#bda727}.st5{fill:#f7e62d}.st6{fill:url(#XMLID_4_)}.st7{fill:url(#XMLID_5_)}.st8{fill:url(#XMLID_6_)}.st9{fill:#0d69b3}.st10{fill:#107bd4}.st11{fill:#fff}.st12{clip-path:url(#XMLID_7_);fill:#d1d1d1}</style><g id="XMLID_109_"><linearGradient id="XMLID_3_" gradientUnits="userSpaceOnUse" x2="1" gradientTransform="rotate(90 82.908 301.062) scale(79.9519)"><stop offset="0" stop-color="#f7e830"/><stop offset="1" stop-color="#fdcb06"/></linearGradient><path id="XMLID_111_" class="st0" d="M432.4 218.6c0-.1-.1-.3-.1-.4h-96.6c-.1.1-.1.2-.1.3v75c.2 1.3.9 2.5 1.9 3.5h.2c.5.5 1.2.8 1.9 1 .5 0 1 .2 1.5.1h40c.4 0 .8.1 1.1-.1v-.5c.9-4.8 1.7-9.6 2.6-14.4 0-.2.1-.4.1-.6h-11.1c-.9 0-1.8 0-2.7-.1-1.5-.1-3.1 0-4.6-.2-1.9 0-3.8-.2-5.7-.2-1.5-.1-3-.1-4.5-.2-1-.1-2-.1-3-.1-1.6-.2-3.3-.1-4.9-.2-1.7 0-3.4-.1-5.1-.2v-.1h1.7c1.3-.2 2.5-.1 3.8-.2 1.3 0 2.6-.2 3.9-.2 1.2-.2 2.4-.1 3.5-.2 1.4 0 2.7-.2 4.1-.2 1.1-.1 2.3-.1 3.4-.2 1.3 0 2.6-.2 3.9-.2 1.3-.1 2.6-.1 3.9-.2l-.3-1.5c-.1-.3-.5-.2-.7-.3-3-.4-5.9-.8-8.8-1.3.2-.1.4-.1.7-.1 2.3-.2 4.6-.4 6.8-.5.5 0 1-.1 1.5-.1-.2-.7-.4-1.5-.7-2.1-4.9-.7-9.8-1.4-14.6-2.2 1.3-.2 2.5-.3 3.8-.4h.1c4-.4 8.1-.9 12.1-1.3h15.4c.2 0 .4.1.5-.2.4-2.2.8-4.4 1.3-6.6.6-3.1 1.5-6.1 2.9-8.9 2.2-4.5 5.8-8.3 10.1-10.8 4-2.4 8.7-3.5 13.4-3.7 1.5-.1 3-.1 4.5.1 1 .2 2 .5 2.8 1.2.6.5 1 1.3 1.3 2 .6 1.8 1 3.7 1.3 5.6 0 .8.1 1.6-.3 2.3-.4.7-1.1 1-1.9 1.2-2.6.7-5.4 0-8 .7-2.2.5-4.2 1.7-5.5 3.4-1.6 2-2.5 4.5-3 7-.4 2.2-.8 4.5-1.2 6.7h7.8c1 0 2.1.6 2.5 1.6.5 1.3.4 2.7.2 4-.2 1.5-.6 3-1.2 4.3-.6 1.2-1.5 2.2-2.7 2.6-.7.3-1.4.2-2.1.2h-6.9c-.4 1.7-.6 3.4-.9 5.1l-1.8 9.9v.5c1.1.1 2.1 0 3.2 0H427c.9 0 1.7-.2 2.5-.6.4-.2.7-.6 1.1-.8.4-.2.5-.7.8-1 .4-.6.7-1.3.7-2h.2c.1-25.2.2-50.2.1-75.2z"/><path id="XMLID_115_" class="st1" d="M432.4 218.6c0-.1-.1-.3-.1-.4h-96.6c-.1.1-.1.2-.2.3v75c.2 1.3.9 2.5 1.9 3.5h.2c.5.5 1.2.8 1.9 1h.1c.4 0 .8.1 1.2.1h40.7c.2 0 .4 0 .6-.1v-.5c.9-4.8 1.7-9.6 2.6-14.4 0-.2.1-.4.1-.6h-11.2c-.9 0-1.8 0-2.7-.1-1.5-.1-3.1 0-4.6-.2-1.9 0-3.8-.2-5.7-.2-1.5-.1-3-.1-4.5-.2-1-.1-2-.1-3-.1-1.6-.2-3.3-.1-4.9-.2h-.2c-1.6 0-3.3-.1-4.9-.2v-.1h1.7c1.3-.2 2.5-.1 3.8-.2 1.3 0 2.6-.2 3.9-.2 1.2-.2 2.4-.1 3.5-.2 1.4 0 2.7-.2 4.1-.2 1.1-.1 2.3-.1 3.4-.2h.1c1.2 0 2.5-.2 3.7-.2h.1c1.3-.1 2.6-.1 3.9-.2l-.3-1.5c-.1-.3-.5-.2-.7-.3-3-.4-5.9-.8-8.8-1.3.1-.1.3-.1.4-.1h.3c2.3-.2 4.6-.4 6.8-.5.5 0 1-.1 1.5-.1-.2-.7-.4-1.5-.7-2.1-4.9-.7-9.8-1.4-14.6-2.2 1.3-.2 2.5-.3 3.8-.4h.1c4-.4 8.1-.9 12.1-1.3h15.7l.1-.2c.4-2.2.8-4.4 1.3-6.6.6-3.1 1.5-6.1 2.9-8.9 2.2-4.5 5.8-8.3 10.1-10.8 4-2.4 8.7-3.5 13.4-3.7.6-.1 1.2-.1 1.8-.1.9 0 1.8.1 2.7.2 1 .2 2 .5 2.8 1.2.6.5 1 1.3 1.3 2 .6 1.8 1 3.7 1.3 5.6v1c0 .5-.1.9-.3 1.3-.4.7-1.1 1-1.9 1.2-2.6.7-5.4 0-8 .7-2.2.5-4.2 1.7-5.6 3.4-1.6 2-2.5 4.5-3 7-.4 2.2-.8 4.5-1.2 6.7h7.8c1 0 2.1.6 2.5 1.5.3.7.4 1.4.4 2.1 0 .6-.1 1.2-.1 1.8-.2 1.5-.6 3-1.2 4.3-.6 1.2-1.5 2.2-2.7 2.6-.5.2-.9.2-1.4.2h-7.5c-.4 1.7-.6 3.4-.9 5.1l-1.8 9.9v.5h27.4c.8 0 1.6-.2 2.3-.6.5-.2.7-.6 1.1-.8.4-.2.5-.7.8-1 .4-.6.7-1.3.7-2h.2v-52.9c.2-7.3.2-14.7.2-22.1v75.1h-.2c0 .7-.4 1.4-.7 2-.3.3-.4.7-.8 1-.4.2-.7.6-1.1.8-.7.4-1.5.6-2.3.6h-27.4v-.5l1.8-9.9.9-5.1h7.5c.5 0 1 0 1.4-.2 1.3-.4 2.2-1.5 2.8-2.6.7-1.4 1-2.8 1.2-4.3.1-.6.1-1.2.1-1.8 0-.7-.1-1.5-.4-2.1-.4-1-1.5-1.6-2.5-1.6h-7.8c.4-2.2.8-4.5 1.2-6.7.5-2.5 1.3-5 3-7 1.4-1.7 3.4-2.9 5.5-3.4 2.6-.6 5.4 0 8-.7.7-.2 1.5-.5 1.9-1.2.2-.4.3-.9.3-1.3v-1c-.3-1.9-.7-3.8-1.3-5.6-.3-.8-.7-1.5-1.3-2-.8-.7-1.8-.9-2.8-1.2-.9-.1-1.8-.2-2.7-.2-.6 0-1.2 0-1.8.1-4.7.2-9.3 1.4-13.4 3.7-4.3 2.5-7.9 6.3-10.1 10.8-1.4 2.8-2.4 5.8-2.9 8.9-.4 2.2-.8 4.4-1.3 6.6l-.1.1h-15.7c-4 .4-8.1.9-12.1 1.3h-.1c-1.3.1-2.5.2-3.8.4 4.9.8 9.8 1.5 14.6 2.2.3.7.4 1.4.7 2.1-.5 0-1 .1-1.5.1-2.3.2-4.6.4-6.8.5h-.3c-.1 0-.3 0-.4.1 2.9.4 5.9.8 8.8 1.3.2 0 .6 0 .7.3l.3 1.5c-1.3.1-2.6.1-3.9.2h-.1c-1.2 0-2.5.2-3.7.2h-.1c-1.1.1-2.3.1-3.4.2-1.4 0-2.7.2-4.1.2-1.2.2-2.4.1-3.5.2-1.3 0-2.6.2-3.9.2-1.3.2-2.5.1-3.8.2h-1.7v.1c1.6 0 3.3.2 4.9.2h.2c1.6.2 3.3.1 4.9.2 1 0 2 0 3 .1 1.5.1 3 0 4.5.2 1.9 0 3.8.2 5.7.2 1.5.1 3.1.1 4.6.2.9.1 1.8.1 2.7.1H385c0 .2-.1.4-.1.6-.9 4.8-1.7 9.6-2.6 14.4v.5c-.2.1-.4.1-.6.1H341c-.4 0-.8-.1-1.2-.1h-.1c-.7-.2-1.4-.5-1.9-1h-.2c-1-.9-1.7-2.1-1.9-3.5v-75c0-.1.1-.2.1-.3h96.6c-.1.2 0 .3 0 .5z"/><path id="XMLID_118_" class="st2" d="M348.2 202.1c1.2-.4 2.4-.1 3.6-.2h66.6c1.3-.1 2.5.7 3.7 1.1 1 .4 2 .7 3 1.1.2.1.4.3.5.4v5.4c0 .5-.1 1 .1 1.4.3 0 .4.3.6.4.9.4 1.7 1.1 2.5 1.6 1.2.9 2.5 1.6 3.7 2.5.1.4 0 .7-.1 1-.1.4 0 .8-.1 1.2h-96.6c-.1-.4.1-.9-.1-1.3 0-.4-.1-.8.2-1.1 1.4-1 2.8-1.8 4.1-2.8.8-.5 1.6-1.1 2.4-1.6.2-.3.1-.6.1-.9v-5.9c.5-.6 1.3-.7 1.9-1 1.3-.3 2.6-.8 3.9-1.3m.1.2c-1.7.7-3.5 1.3-5.2 2-.2 0-.4.2-.5.4v5.3c0 .4 0 .8.1 1.2-.2.2-.4.4-.6.5-2 1.3-3.9 2.7-5.8 3.9-.3.2-.7.5-.6.9-.1.2.1.4.3.4h31.9c.3.1.6 0 .9 0h45.4c6 0 12 .1 18 0 .2 0 .2-.2.2-.4s.1-.5-.2-.7c-1-.4-1.8-1.1-2.7-1.7-.3-.3-.7-.4-1-.8-.9-.5-1.8-1.2-2.7-1.8-.2-.1-.3-.3-.5-.4.1-.3.1-.6.1-.9V205c0-.3 0-.6-.2-.8-1.6-.6-3.3-1.2-4.9-1.8-.5-.2-1.1-.4-1.6-.5h-69.5c-.4.2-.6.4-.9.4z"/><path id="XMLID_121_" class="st2" d="M348.2 202.1c.5-.2 1.1-.2 1.6-.2h68.6c1.3 0 2.4.7 3.6 1.1 1 .4 2 .7 3 1.1.2.1.4.3.5.4v6.1c0 .3 0 .5.1.7.3 0 .4.3.6.4.9.4 1.7 1.1 2.5 1.6 1.2.9 2.5 1.6 3.7 2.5v.3c0 .2 0 .5-.1.7-.1.2-.1.4-.1.6v.6h-96.6v-.6c0-.2 0-.5-.1-.7v-.5c0-.2 0-.4.2-.5 1.4-1 2.8-1.8 4.1-2.8.8-.5 1.6-1.1 2.4-1.6.1-.2.1-.4.1-.5v-6.3c.5-.6 1.3-.7 1.9-1 1.4-.4 2.7-.9 4-1.4-1.3.5-2.6 1-3.9 1.4-.6.3-1.4.4-1.9 1v6.3c0 .2 0 .4-.1.5-.8.5-1.6 1.1-2.4 1.6-1.3 1-2.8 1.9-4.1 2.8-.2.1-.2.3-.2.6v.5c.1.2.1.5.1.7v.6h96.6v-.6c0-.2 0-.4.1-.6.1-.2.1-.5.1-.7v-.3c-1.2-.9-2.5-1.7-3.7-2.5-.8-.5-1.6-1.2-2.5-1.6-.2-.2-.3-.4-.6-.4-.1-.2-.1-.5-.1-.7v-6.1c-.1-.1-.3-.3-.5-.4-1-.4-2-.7-3-1.1-1.2-.4-2.3-1.1-3.6-1.1h-68.6c-.6-.1-1.2-.1-1.7.1zm.1.2c-1.7.7-3.5 1.3-5.2 2-.2 0-.4.2-.5.4v5.7c0 .3 0 .5.1.7-.2.2-.4.4-.6.5-2 1.3-3.9 2.7-5.8 3.9-.3.2-.6.4-.6.8v.3l.1.2.2.1h96.3c.1 0 .2-.1.2-.2v-.5c0-.2 0-.3-.2-.4-1-.4-1.8-1.1-2.7-1.7-.3-.3-.7-.4-1-.8-.9-.5-1.8-1.2-2.7-1.8-.2-.1-.3-.3-.5-.4.1-.3.1-.6.1-.9v-5.4c0-.2-.1-.4-.2-.5-1.6-.6-3.3-1.2-4.9-1.8-.5-.2-1.1-.4-1.6-.5h-69.5c-.5.1-.7.3-1 .3.3-.1.6-.2.9-.2h69.5c.5.1 1.1.2 1.6.5 1.6.6 3.2 1.2 4.9 1.8.2.1.2.3.2.5v5.4c0 .3 0 .6-.1.9.1.1.3.3.5.4l2.7 1.8c.2.4.7.5 1 .8.9.5 1.7 1.2 2.7 1.7.1.1.2.2.2.4v.5c0 .1-.1.2-.2.2h-96.3c-.1 0-.2-.1-.2-.3v-.3c0-.4.3-.6.6-.8 2-1.3 3.9-2.7 5.8-3.9.2-.1.4-.3.6-.5-.1-.2-.1-.5-.1-.7v-5.7c.1-.2.2-.4.5-.4 1.7-.8 3.4-1.4 5.2-2.1z"/><path id="XMLID_122_" class="st3" d="M342.6 205.1c1.2.5 2.5.8 3.7 1.3.7.3.9 1 1.1 1.5-.3.3-.6.5-1 .7-1.3.8-2.5 1.7-3.8 2.5-.1-.4-.1-.8-.1-1.2.1-1.5.1-3.1.1-4.8z"/><path id="XMLID_123_" class="st3" d="M342.6 205.1c1.2.5 2.5.8 3.7 1.3.6.3.9 1 1.1 1.5-.3.3-.6.5-1 .7-1.3.8-2.5 1.7-3.8 2.5-.1-.2-.1-.5-.1-.7v-.5c.1-1.5.1-3.1.1-4.8v5.4c0 .3 0 .5.1.7 1.2-.9 2.5-1.7 3.8-2.5.3-.2.7-.4 1-.7-.3-.6-.5-1.3-1.1-1.5-1.4-.6-2.6-.9-3.8-1.4z"/><path id="XMLID_124_" class="st3" d="M421.7 206.4c1.2-.5 2.5-.8 3.7-1.3v5.2c0 .3 0 .6-.1.9-1.1-.7-2.1-1.4-3.2-2.1-.5-.4-1.1-.7-1.6-1.1.3-.6.5-1.3 1.2-1.6z"/><path id="XMLID_126_" class="st3" d="M421.7 206.4c1.2-.5 2.5-.8 3.7-1.3v5.2c0 .3 0 .6-.1.9-1.1-.7-2.1-1.4-3.2-2.1-.5-.4-1.1-.7-1.5-1.1.2-.6.4-1.3 1.1-1.6-.7.3-.9 1-1.2 1.5.5.5 1 .7 1.6 1.1 1.1.7 2.1 1.4 3.2 2.1.1-.3.1-.6.1-.9V205c-1.3.6-2.5.9-3.7 1.4z"/><path id="XMLID_127_" class="st4" d="M363.3 207c1.5-.4 3.2 1 3 2.5 0 1.5-1.6 2.8-3.1 2.4-.6-.2-1.2-.5-1.5-1-.5-.7-.6-1.7-.2-2.5.3-.7 1.1-1.3 1.8-1.4z"/><path id="XMLID_128_" class="st4" d="M363.3 207c.2 0 .3-.1.5-.1.6 0 1.3.3 1.8.7.5.4.8 1.1.8 1.7v.2c0 .7-.3 1.3-.8 1.7-.5.4-1.1.7-1.8.7-.2 0-.3 0-.5-.1-.6-.2-1.2-.5-1.5-1-.3-.4-.4-.9-.4-1.4 0-.4.1-.7.2-1 .2-.7 1-1.2 1.7-1.4-.8.2-1.5.7-1.8 1.5-.2.3-.2.7-.2 1 0 .5.2 1 .4 1.4.4.5.9.8 1.5 1 .2 0 .3.1.5.1 1.3 0 2.6-1.1 2.6-2.5v-.2c0-1.3-1.3-2.4-2.6-2.4 0 0-.2 0-.4.1z"/><path id="XMLID_132_" class="st4" d="M402.1 207.8c.6-.7 1.6-1.1 2.5-.8.7.2 1.4.7 1.7 1.3.6 1.2.1 2.7-1 3.4-1 .6-2.3.3-3.1-.5-.8-1-.9-2.5-.1-3.4z"/><path id="XMLID_133_" class="st4" d="M402.1 207.8c.5-.5 1.2-.9 2-.9.2 0 .4 0 .6.1.7.2 1.4.7 1.7 1.3.2.3.3.7.3 1.1 0 .9-.5 1.8-1.3 2.2-.4.2-.8.3-1.2.3-.7 0-1.4-.3-1.9-.8-.4-.5-.6-1.1-.6-1.7-.1-.6.1-1.1.4-1.6-.4.4-.6 1-.6 1.6 0 .6.2 1.3.6 1.7.5.5 1.2.8 1.9.8.4 0 .8-.1 1.2-.3.8-.4 1.3-1.3 1.3-2.3 0-.4-.1-.8-.3-1.1-.3-.7-1-1.1-1.7-1.3-.2 0-.4-.1-.6-.1-.5.1-1.3.5-1.8 1z"/><path id="XMLID_134_" class="st5" d="M346.4 208.7c.3-.2.7-.4 1-.7l.1.1c.1.7 0 1.4.1 2.1 0 2.1 0 4.3-.1 6.4h-11.9c-.1-.4.3-.7.6-.9 2-1.3 3.9-2.7 5.8-3.9.2-.1.4-.3.6-.5 1.3-1 2.6-1.8 3.8-2.6z"/><path id="XMLID_135_" class="st5" d="M346.4 208.7c.3-.2.7-.4 1-.7l.1.1c0 .3.1.6.1 1v7.4h-11.9v-.2c0-.4.3-.6.6-.8 2-1.3 3.9-2.7 5.8-3.9.2-.1.4-.3.6-.5 1.2-.7 2.5-1.6 3.7-2.4-1.3.8-2.5 1.7-3.8 2.5-.2.2-.4.4-.6.5-2 1.3-3.9 2.7-5.8 3.9-.3.2-.6.4-.6.8v.2h11.9v-7.4c0-.3 0-.7-.1-1l-.1-.1c-.2.1-.5.4-.9.6z"/><path id="XMLID_140_" class="st5" d="M420.4 208.4c0-.2 0-.3.1-.5.5.5 1 .7 1.6 1.1 1.1.7 2.1 1.4 3.2 2.1.1.1.3.3.5.4l2.7 1.8c.2.4.7.5 1 .8.9.5 1.7 1.2 2.7 1.7.2.1.1.4.2.7h-11.9c-.1-.5 0-1.1 0-1.6-.1-2.1-.1-4.3-.1-6.5z"/><path id="XMLID_141_" class="st5" d="M420.4 208.4c0-.2 0-.3.1-.5.5.5 1 .7 1.6 1.1 1.1.7 2.1 1.4 3.2 2.1.1.1.3.3.5.4l2.7 1.8c.2.4.7.5 1 .8.9.5 1.7 1.2 2.7 1.7.1.1.2.2.2.4v.3h-11.9v-6.8c-.1-.4-.1-.9-.1-1.3v8.1h11.9v-.3c0-.2 0-.3-.2-.4-1-.4-1.8-1.1-2.7-1.7-.3-.3-.7-.4-1-.8-.9-.5-1.8-1.2-2.7-1.8-.2-.1-.3-.3-.5-.4-1.1-.7-2.1-1.4-3.2-2.1-.5-.4-1.1-.7-1.5-1.1-.1.2-.1.3-.1.5z"/><radialGradient id="XMLID_4_" cx="0" cy="0" r="1" gradientTransform="translate(383.553 254.62) scale(65.0317)" gradientUnits="userSpaceOnUse"><stop offset="0" stop-color="#f29405"/><stop offset=".596" stop-color="#f29405"/><stop offset=".736" stop-color="#f7d01e"/><stop offset="1" stop-color="#fdcb06"/></radialGradient><path id="XMLID_145_" class="st6" d="M432.3 216.5h-11.9c-.1-.5 0-1.1 0-1.6v-6.5c0-.2 0-.3.1-.5.3-.6.5-1.3 1.2-1.5 1.2-.5 2.5-.8 3.7-1.3 0-.3 0-.6-.2-.8-1.6-.6-3.3-1.2-4.9-1.8-.5-.2-1.1-.4-1.6-.5h-69.5c-.3 0-.6.2-.9.2-1.7.7-3.5 1.3-5.2 2-.2 0-.4.2-.5.4v.4c1.2.5 2.5.8 3.7 1.3.7.3.9 1 1.1 1.5l.1.1c.1.7 0 1.4.1 2.1 0 2.1 0 4.3-.1 6.4h-11.9c-.1.2.1.4.3.4h31.9c.3.1.6 0 .9 0h45.4c6 0 12 .1 18 0 .2.1.3 0 .2-.3zm-70.8-8.1c.3-.8 1-1.3 1.8-1.5 1.5-.4 3.2 1 3 2.5 0 1.5-1.6 2.8-3.1 2.4-.6-.2-1.2-.5-1.5-1-.4-.6-.5-1.6-.2-2.4zm40.6-.6c.6-.7 1.6-1.1 2.5-.8.7.2 1.4.7 1.7 1.3.6 1.2.1 2.7-1 3.4-1 .6-2.3.3-3.1-.5-.8-1-.9-2.5-.1-3.4z"/><path id="XMLID_149_" class="st1" d="M432.3 216.5h-11.9v-8.1c0-.2 0-.3.1-.5.3-.6.5-1.3 1.2-1.5 1.2-.5 2.5-.8 3.7-1.3v-.2c0-.2-.1-.4-.2-.5-1.6-.6-3.3-1.2-4.9-1.8-.5-.2-1.1-.4-1.6-.5h-69.5c-.3 0-.6.2-.9.2-1.7.7-3.5 1.3-5.2 2-.2 0-.4.2-.5.4v.4c1.2.5 2.5.8 3.7 1.3.6.3.9 1 1.1 1.5l.1.1c0 .3.1.6.1 1v7.4h-11.9v.1l.1.2.2.1h96.3c.1 0 .2-.1.2-.2l-.2-.1v.2c0 .1-.1.2-.2.2h-96.3c-.1 0-.2-.1-.2-.3v-.1h11.9v-7.4c0-.3 0-.7-.1-1l-.1-.1c-.3-.6-.5-1.3-1.1-1.5-1.2-.5-2.5-.8-3.7-1.3v-.4c.1-.2.2-.4.5-.4 1.7-.7 3.5-1.3 5.2-2 .3-.1.6-.2.9-.2h69.5c.5.1 1.1.2 1.6.5 1.6.6 3.2 1.2 4.9 1.8.2.1.2.3.2.5v.2c-1.2.5-2.5.8-3.7 1.3-.7.3-.9 1-1.2 1.5-.1.2-.1.3-.1.5v8.1h9.2c1 0 1.9 0 2.8-.1zm-70.8-8.1c.3-.8 1-1.3 1.8-1.4.2 0 .3-.1.5-.1.6 0 1.3.3 1.8.7.5.4.8 1.1.8 1.7v.2c0 .7-.3 1.3-.8 1.7-.5.4-1.1.7-1.8.7-.2 0-.3 0-.5-.1-.6-.2-1.2-.5-1.5-1-.3-.4-.4-.9-.4-1.4-.1-.3 0-.6.1-1-.2.3-.2.7-.2 1 0 .5.2 1 .4 1.4.4.5.9.8 1.5 1 .2 0 .3.1.5.1 1.3 0 2.6-1.1 2.6-2.5v-.2c0-1.3-1.3-2.4-2.6-2.4-.2 0-.3 0-.5.1-.7.2-1.4.8-1.7 1.5zm40.6-.6c.5-.5 1.2-.9 2-.9.2 0 .4 0 .6.1.7.2 1.4.7 1.7 1.3.2.3.3.7.3 1.1 0 .9-.5 1.8-1.3 2.2-.4.2-.8.3-1.2.3-.7 0-1.4-.3-1.9-.8-.4-.5-.6-1.1-.6-1.7-.1-.6.1-1.1.4-1.6-.4.4-.6 1-.6 1.6 0 .6.2 1.3.6 1.7.5.5 1.2.8 1.9.8.4 0 .8-.1 1.2-.3.8-.4 1.3-1.3 1.3-2.3 0-.4-.1-.8-.3-1.1-.3-.7-1-1.1-1.7-1.3-.2 0-.4-.1-.6-.1-.5.1-1.3.5-1.8 1z"/><linearGradient id="XMLID_5_" gradientUnits="userSpaceOnUse" x2="1" gradientTransform="rotate(89.656 91.924 314.85) scale(3.78617)"><stop offset="0" stop-color="#fada1c"/><stop offset="1" stop-color="#fdcb06"/></linearGradient><path id="XMLID_150_" class="st7" d="M405.6 222.5c.2 0-1-1.1-.8-1.2.2 0 1-.6 2-.1s.8 1.7.6 2.2c-.1.5-.5.9-.8 1.2-.1.1-.5.3-.7.3.1-.7-.3-.8-.3-1.5v-.9z"/><path id="XMLID_151_" class="st1" d="M405.6 222.5s0-.1-.1-.2-.3-.3-.4-.5c-.1-.2-.3-.3-.3-.4.2 0 .6-.3 1.2-.3.2 0 .5.1.8.2.6.3.7.9.7 1.4 0 .3-.1.6-.1.8-.1.5-.5.9-.7 1.2-.1.1-.5.3-.7.3v-.2c0-.5-.3-.6-.3-1.2l-.1-1.1.2.9c0 .6.3.8.3 1.2v.2c.2 0 .5-.2.7-.3.3-.3.6-.6.8-1.2 0-.2.1-.5.1-.8 0-.5-.2-1.1-.8-1.4-.3-.2-.6-.2-.8-.2-.6 0-1 .3-1.2.3 0 .1.2.4.4.6l.3.3v.4z"/><linearGradient id="XMLID_6_" gradientUnits="userSpaceOnUse" x2="1" gradientTransform="matrix(-.02272 3.786 3.786 .02272 361.684 220.859)"><stop offset="0" stop-color="#fada1c"/><stop offset="1" stop-color="#fdcb06"/></linearGradient><path id="XMLID_152_" class="st8" d="M362.1 223.3c0 .7-.4.8-.3 1.5-.2 0-.5-.2-.7-.3-.3-.3-.6-.6-.8-1.2-.1-.5-.4-1.7.6-2.2 1-.5 1.8.1 2 .1.2.1-1 1.2-.8 1.2v.9z"/><path id="XMLID_153_" class="st1" d="M362.1 223.3c0 .6-.3.7-.3 1.2v.2c-.2 0-.5-.2-.7-.3-.3-.3-.6-.6-.7-1.2 0-.2-.1-.5-.1-.8 0-.5.1-1.1.7-1.4.3-.2.6-.2.8-.2.6 0 1 .3 1.2.3 0 .1-.2.4-.4.6l-.3.3c-.1.1-.1.2-.1.2l-.1 1.1.2-.9s0-.1.1-.2.3-.3.4-.5c.1-.2.3-.3.3-.4-.2 0-.6-.3-1.2-.3-.3 0-.5.1-.8.2-.6.3-.8.9-.8 1.4 0 .3.1.6.1.8.1.5.5.9.8 1.2.1.1.5.3.7.3v-.2c-.1-.7.2-.8.2-1.4z"/><path id="XMLID_154_" class="st4" d="M403.8 231.2c.2-.2.3-.2.6-.2-1.6 3.5-3.5 7.1-6.4 9.8-.3.3-.6.5-1 .8-.3.2-.6.5-1 .7-.3.2-.6.4-.9.7-.8.4-1.5 1-2.3 1.3-1.6.7-3.3 1.3-5 1.6-.7.1-1.3.3-2 .3-.8.2-1.7.1-2.6.1-.5.1-.9-.2-1.4-.1-.4-.1-.8-.1-1.2-.2l-1.2-.3c-6.2-1.9-12.4-6.7-14.1-13.1-.1-.4-.1-.9-.1-1.3.2.4.4.8.6 1.1 2.5 5.5 7.6 9.9 13.5 11.2.5.2 1 .1 1.5.3.4 0 .8 0 1.2.1h4.2c.2 0 .4-.1.6-.1 2.3-.1 4.6-.7 6.8-1.7.4-.2.8-.4 1.3-.6.4-.2.7-.4 1.1-.6.3-.2.7-.4 1-.7 2.5-2 4.7-4.6 6.2-7.6.1-.5.4-1 .6-1.5z"/><path id="XMLID_155_" class="st4" d="M403.8 231.2c.2-.2.3-.2.6-.2-1.6 3.5-3.5 7.1-6.4 9.8-.3.3-.6.5-1 .8-.3.2-.6.5-1 .7-.3.2-.6.4-.9.7-.8.4-1.5 1-2.3 1.3-1.6.7-3.2 1.3-4.9 1.6-.7.1-1.3.3-2 .3-.4.1-.8.1-1.1.1h-1.7c-.4 0-.7-.2-1-.2h-.1c-.4-.1-.8-.1-1.2-.2l-1.2-.3c-6.2-1.9-12.4-6.7-14.1-13.1-.1-.4-.1-.9-.1-1.3.2.4.4.8.6 1.1 2.5 5.5 7.6 9.9 13.5 11.2.5.2 1 .1 1.5.3h.2c.3 0 .7 0 1 .1h4.2c.2 0 .3-.1.5-.1 2.3-.1 4.6-.7 6.8-1.7.4-.2.8-.4 1.3-.6.4-.2.7-.4 1.1-.6.3-.2.7-.4 1-.7 2.5-2 4.7-4.6 6.2-7.6 0-.4.3-.9.5-1.4-.2.4-.5.9-.8 1.5-1.5 3-3.7 5.6-6.2 7.5-.3.2-.6.5-1 .7-.3.2-.7.4-1.1.6-.4.2-.8.4-1.3.6-2.1 1-4.4 1.6-6.8 1.7-.2 0-.3.1-.5.1h-4.2c-.3-.1-.7-.1-1-.1h-.2c-.5-.2-1-.1-1.5-.3-5.9-1.3-11-5.7-13.5-11.2-.2-.4-.4-.8-.6-1.1 0 .4 0 .9.1 1.3 1.8 6.4 7.9 11.2 14.1 13.1l1.2.3c.4.1.8.1 1.2.2h.1c.4 0 .7.2 1 .2h1.7c.4 0 .8 0 1.1-.1.7 0 1.4-.2 2-.3 1.7-.4 3.4-.9 5-1.6.9-.3 1.5-.8 2.3-1.3.3-.2.6-.4.9-.7.3-.2.6-.5 1-.7.3-.2.7-.5 1-.8 2.9-2.8 4.8-6.3 6.4-9.8 0 .1-.2.1-.4.2z"/><path id="XMLID_156_" class="st9" d="M401.6 243.3c4-2.4 8.7-3.5 13.4-3.7 1.5-.1 3-.1 4.5.1 1 .2 2 .5 2.8 1.2-.4 0-.8-.1-1.2-.2-1.1-.2-2.3-.1-3.4-.2-3.3 0-6.6.3-9.8 1.2-1.7.5-3.3 1.1-4.8 2-2.6 1.4-5 3.3-6.9 5.6-3.4 3.9-5.4 8.9-6.4 13.9-.5 2.7-1 5.4-1.4 8.1-.7.1-1.4 0-2.1 0-3 0-6 0-9-.1-.6 0-1.3-.1-1.9-.1h-16.3.1c4-.4 8.1-.9 12.1-1.3h15.4c.2 0 .4.1.5-.2.4-2.2.8-4.4 1.3-6.6.6-3.1 1.5-6.1 2.9-8.9 2.3-4.4 5.9-8.2 10.2-10.8z"/><path id="XMLID_157_" class="st9" d="M401.6 243.3c4-2.4 8.7-3.5 13.4-3.7.6-.1 1.2-.1 1.8-.1.9 0 1.8.1 2.7.2 1 .2 2 .5 2.8 1.2h-.1c-.4 0-.7-.2-1.1-.2-.7-.1-1.5-.2-2.3-.2h-1.2c-3.3 0-6.6.3-9.8 1.2-1.7.5-3.3 1.1-4.8 2-2.6 1.4-5 3.3-6.9 5.6-3.4 3.9-5.4 8.9-6.4 13.9-.5 2.7-1 5.4-1.4 8.1h-2c-3 0-6 0-9-.1h-.2c-.5 0-1-.1-1.5-.1h-16.5.1c4-.4 8.1-.9 12.1-1.3H387l.1-.2c.4-2.2.8-4.4 1.3-6.6.6-3.1 1.5-6.1 2.9-8.9 2.4-4.4 6-8.2 10.3-10.8-4.3 2.5-7.9 6.3-10.1 10.8-1.4 2.8-2.4 5.8-2.9 8.9-.4 2.2-.8 4.4-1.3 6.6l-.1.1h-15.7c-4 .4-8.1.9-12.1 1.3h-.1 16.5c.5 0 1 .1 1.5.1h.2c3 0 6 0 9 .1h2c.4-2.7 1-5.4 1.4-8.1 1-5 3-10 6.4-13.9 1.9-2.3 4.3-4.2 6.9-5.6 1.5-.9 3.2-1.5 4.8-2 3.2-.9 6.5-1.2 9.8-1.2h1.2c.8 0 1.5 0 2.3.2.4.1.7.2 1.1.2h.1c-.8-.7-1.8-.9-2.8-1.2-.9-.1-1.8-.2-2.7-.2-.6 0-1.2 0-1.8.1-4.9.3-9.6 1.5-13.6 3.8z"/><path id="XMLID_158_" class="st10" d="M407.9 241.7c3.2-.9 6.5-1.2 9.8-1.2 1.1 0 2.3-.1 3.4.2.4.1.8.2 1.2.2.6.5 1 1.3 1.3 2 .6 1.8 1 3.7 1.3 5.6 0 .8.1 1.6-.3 2.3-.4.7-1.1 1-1.9 1.2-2.6.7-5.4 0-8 .7-2.2.5-4.2 1.7-5.5 3.4-1.6 2-2.5 4.5-3 7-.4 2.2-.8 4.5-1.2 6.7-.2.5-.3 1-.4 1.6h10.6c.5 1.3.4 2.7.2 4-.2 1.5-.6 3-1.2 4.3-.6 1.2-1.5 2.2-2.7 2.6-.7.3-1.4.2-2.1.2h-6.9c-.4 1.7-.6 3.4-.9 5.1l-1.8 9.9v.5H382v-.5.4c.4 0 1 .2 1.1-.3l2.7-15c-.4-.1-.7-.1-1.1 0-.1.2-.1.4-.2.6 0-.2.1-.4.1-.6h-11.1c-.9 0-1.8 0-2.7-.1-1.5-.1-3.1 0-4.6-.2-1.9 0-3.8-.2-5.7-.2-1.5-.1-3-.1-4.5-.2-1-.1-2-.1-3-.1-1.6-.2-3.3-.1-4.9-.2-1.7 0-3.4-.1-5.1-.2v-.1h1.7c1.3-.2 2.5-.1 3.8-.2 1.3 0 2.6-.2 3.9-.2 1.2-.2 2.4-.1 3.5-.2 1.4 0 2.7-.2 4.1-.2 1.1-.1 2.3-.1 3.4-.2 1.3 0 2.6-.2 3.9-.2 1.3-.1 2.6-.1 3.9-.2l-.3-1.5c-.1-.3-.5-.2-.7-.3-3-.4-5.9-.8-8.8-1.3.2-.1.4-.1.7-.1 2.3-.2 4.6-.4 6.8-.5.5 0 1-.1 1.5-.1-.2-.7-.4-1.5-.7-2.1-4.9-.7-9.8-1.4-14.6-2.2 1.3-.2 2.5-.3 3.8-.4h16.3c.6 0 1.3.1 1.9.1 3 0 6 0 9 .1h2.1c.4-2.7 1-5.4 1.4-8.1 1-5 3-10 6.4-13.9 1.9-2.3 4.3-4.2 6.9-5.6 1.7-1.3 3.4-1.8 5-2.3z"/><path id="XMLID_159_" class="st10" d="M407.9 241.7c3.2-.9 6.5-1.1 9.8-1.1h1.2c.8 0 1.5 0 2.3.2.4.1.7.2 1.1.2h.1c.6.5 1 1.3 1.3 2 .6 1.8 1 3.7 1.3 5.6v1c0 .5-.1.9-.3 1.3-.4.7-1.1 1-1.9 1.2-2.6.7-5.4 0-8 .7-2.2.5-4.2 1.7-5.6 3.4-1.6 2-2.5 4.5-3 7-.4 2.2-.8 4.5-1.2 6.7-.2.5-.3 1-.4 1.6h10.8c.3.7.4 1.4.4 2.1 0 .6-.1 1.2-.1 1.8-.2 1.5-.6 3-1.2 4.3-.6 1.2-1.5 2.2-2.7 2.6-.5.2-.9.2-1.4.2h-7.5c-.4 1.7-.6 3.4-.9 5.1l-1.8 9.9v.5h-17.8v-.5.4c.2 0 .4.1.6.1.3 0 .5-.1.5-.4l2.7-15c-.2 0-.4-.1-.6-.1h-.5c-.1.2-.1.4-.2.6 0-.2.1-.4.1-.6h-11.2c-.9 0-1.8 0-2.7-.1-1.5-.1-3.1 0-4.6-.2-1.9 0-3.8-.2-5.7-.2-1.5-.1-3-.1-4.5-.2-1-.1-2-.1-3-.1-1.6-.2-3.3-.1-4.9-.2h-.2c-1.6 0-3.3-.1-4.9-.2v-.1h1.7c1.3-.2 2.5-.1 3.8-.2 1.3 0 2.6-.2 3.9-.2 1.2-.2 2.4-.1 3.5-.2 1.4 0 2.7-.2 4.1-.2 1.1-.1 2.3-.1 3.4-.2h.1c1.2 0 2.5-.2 3.7-.2h.1c1.3-.1 2.6-.1 3.9-.2l-.3-1.5c-.1-.3-.5-.2-.7-.3-3-.4-5.9-.8-8.8-1.3.1-.1.3-.1.4-.1h.3c2.3-.2 4.6-.4 6.8-.5.5 0 1-.1 1.5-.1-.2-.7-.4-1.5-.7-2.1-4.9-.7-9.8-1.4-14.6-2.2 1.3-.2 2.5-.3 3.8-.4h16.5c.5 0 1 .1 1.5.1h.2c3 0 6 0 9 .1h2c.4-2.7 1-5.4 1.4-8.1 1-5 3-10 6.4-13.9 1.9-2.3 4.3-4.2 6.9-5.6 1.5-1.1 3.2-1.7 4.8-2.2-1.7.5-3.3 1.1-4.8 2-2.6 1.4-5 3.3-6.9 5.6-3.4 3.9-5.4 8.9-6.4 13.9-.5 2.7-1 5.4-1.4 8.1h-2c-3 0-6 0-9-.1h-.2c-.5 0-1-.1-1.5-.1h-16.5c-1.3.1-2.5.2-3.8.4 4.9.8 9.8 1.5 14.6 2.2.3.7.4 1.4.7 2.1-.5 0-1 .1-1.5.1-2.3.2-4.6.4-6.8.5h-.3c-.1 0-.3 0-.4.1 2.9.4 5.9.8 8.8 1.3.2 0 .6 0 .7.3l.3 1.5c-1.3.1-2.6.1-3.9.2h-.1c-1.2 0-2.5.2-3.7.2h-.1c-1.1.1-2.3.1-3.4.2-1.4 0-2.7.2-4.1.2-1.2.2-2.4.1-3.5.2-1.3 0-2.6.2-3.9.2-1.3.2-2.5.1-3.8.2h-1.7v.1c1.6 0 3.3.2 4.9.2h.2c1.6.2 3.3.1 4.9.2 1 0 2 0 3 .1 1.5.1 3 0 4.5.2 1.9 0 3.8.2 5.7.2 1.5.1 3.1.1 4.6.2.9.1 1.8.1 2.7.1H385c0 .2-.1.4-.1.6.1-.2.1-.4.2-.6h.5c.2 0 .4 0 .6.1-1 5-1.8 10-2.7 15-.1.3-.3.4-.5.4s-.4 0-.6-.1v-.4.5h17.8v-.5l1.8-9.9.9-5.1h7.5c.5 0 1 0 1.4-.2 1.3-.4 2.2-1.5 2.8-2.6.7-1.4 1-2.8 1.2-4.3.1-.6.1-1.2.1-1.8 0-.7-.1-1.5-.4-2.1h-10.8c.1-.5.2-1.1.4-1.6.4-2.2.8-4.5 1.2-6.7.5-2.5 1.3-5 3-7 1.4-1.7 3.4-2.9 5.5-3.4 2.6-.6 5.4 0 8-.7.7-.2 1.5-.5 1.9-1.2.2-.4.3-.9.3-1.3v-1c-.3-1.9-.7-3.8-1.3-5.6-.3-.8-.7-1.5-1.3-2h-.1c-.4 0-.7-.2-1.1-.2-.7-.1-1.5-.2-2.3-.2h-1.2c-3.3.1-6.6.4-9.8 1.3z"/><path id="XMLID_160_" class="st9" d="M405 269.8h7.8c1 0 2.1.6 2.5 1.6-1 .1-2 0-2.9 0h-7.7c.1-.5.2-1.1.3-1.6z"/><path id="XMLID_161_" class="st9" d="M405 269.8h7.8c1 0 2.1.6 2.5 1.5h-10.8c.3-.4.4-1 .5-1.5-.2.5-.3 1-.4 1.6h10.8c-.4-1-1.5-1.6-2.5-1.6H405z"/><path id="XMLID_162_" class="st9" d="M385 282.5c.4-.1.8-.1 1.1 0-1 5-1.8 10-2.7 15-.1.5-.8.3-1.1.3v-.4c.9-4.8 1.7-9.6 2.6-14.4 0-.1 0-.3.1-.5z"/><path id="XMLID_163_" class="st9" d="M385 282.5h.5c.2 0 .4 0 .6.1-1 5-1.8 10-2.7 15-.1.3-.3.4-.5.4s-.4 0-.6-.1v-.4c.9-4.8 1.7-9.6 2.6-14.4 0-.2 0-.4.1-.6-.1.2-.1.4-.2.6-.9 4.8-1.7 9.6-2.6 14.4v.4c.2 0 .4.1.6.1.3 0 .5-.1.5-.4l2.7-15c-.2 0-.4-.1-.6-.1h-.4z"/><path id="XMLID_164_" class="st11" d="M406.2 222.9c-.1-.2-.1-.4-.1-.7h-.1c-.2-.6-.7-1.2-1.3-1.2-.5 0-1.1 0-1.4.4-.5.7-.3 1.7-.3 2.5v.2c0 .6-.1 1.1-.2 1.6-.1.2-.1.3-.1.5-.2 1.3-.7 2.5-1.3 3.7-.1.2-.2.3-.3.5-.4.7-.9 1.4-1.4 2l-.2.2c-.4.4-.7.8-1.1 1.2-.1.1-.2.1-.2.2-.5.4-1 .9-1.5 1.2l-.2.1c-3.5 2.3-7.7 3.3-11.8 3.3-3.5.1-7-.6-10.2-2.1l-.2-.1c-.5-.3-1.1-.5-1.6-.9-.1-.1-.2-.1-.3-.2-.5-.3-1-.6-1.4-1-.1-.1-.3-.2-.5-.4-.5-.4-1-.8-1.4-1.3l-.3-.3c-1.5-1.5-2.6-3.4-3.3-5.5-.6-1.6-.5-3.4-.6-5.1-.5-.7-1.5-1.2-2.3-.7-.3.2-.4.7-.6 1-.4 4.5 1.5 9 4.6 12.2 0 .1.1.2.1.2.5.5 1.1 1 1.6 1.5l.3.3c.5.4 1.1.9 1.7 1.3.1.1.2.1.3.2.7.4 1.5 1 2.3 1.3l.2.1c2.6 1.2 5.4 2.1 8.2 2.4.3 0 .6 0 .9.1 1.4.1 2.7 0 4.1 0 4.2-.4 8.5-1.4 12.1-3.9v.1l.3-.3c.6-.4 1.1-.8 1.6-1.3.1-.1.3-.2.4-.3.6-.7 1.3-1.3 1.8-2h.1l.1-.3c.5-.6.9-1.3 1.3-1.9l.1-.1-.1-.1.2-.2c.7-1.5 1.4-3.1 1.6-4.8.1 0 .1-.1.1-.2 0-.5.2-1.1.1-1.6.2-.4.3-1.1.2-1.8z"/><path id="XMLID_165_" class="st11" d="M406.2 222.9c-.1-.2-.1-.4-.1-.7h-.1c-.2-.6-.7-1.2-1.3-1.2h-.3c-.4 0-.8.1-1.1.5-.3.4-.4.8-.4 1.3v1.4c0 .6-.1 1.1-.2 1.6-.1.2-.1.3-.1.5-.2 1.3-.7 2.5-1.3 3.7-.1.2-.2.3-.3.5-.4.7-.9 1.4-1.4 2l-.2.2c-.4.4-.7.8-1.1 1.2-.1.1-.2.1-.2.2-.5.4-1 .9-1.5 1.2l-.2.1c-3.5 2.3-7.7 3.3-11.8 3.3h-.7c-3.3 0-6.5-.7-9.5-2.2l-.2-.1c-.5-.3-1.1-.5-1.6-.9-.1-.1-.2-.1-.3-.2-.5-.3-1-.6-1.4-1-.2-.1-.3-.2-.5-.4-.5-.4-1-.8-1.4-1.3l-.3-.3c-1.5-1.5-2.6-3.4-3.2-5.5-.6-1.6-.5-3.4-.6-5.1-.4-.5-1-.9-1.6-.9-.3 0-.5.1-.7.2-.3.2-.4.7-.6 1 0 .4-.1.8-.1 1.2 0 4.1 1.8 8 4.6 11 0 .1.1.2.2.2.5.5 1.1 1 1.6 1.5l.3.3c.5.4 1.1.9 1.7 1.3.1.1.2.2.3.2.7.4 1.5 1 2.3 1.3l.2.1c2.6 1.2 5.4 2.1 8.2 2.4.3 0 .6 0 .9.1h4.1c4.2-.4 8.5-1.4 12.1-3.9v.1l.3-.3c.6-.4 1.1-.8 1.6-1.3.1-.1.3-.2.4-.3.6-.7 1.3-1.3 1.8-2h.1l.1-.3c.5-.6.9-1.3 1.3-1.9l.1-.1-.1-.1.2-.2c.7-1.5 1.4-3.1 1.6-4.8.1 0 .2-.1.2-.2 0-.5.2-.9.2-1.4v-.2c.1-.5.1-1 .1-1.5-.1.1-.1-.1-.1-.3v.6c0 .5 0 1-.1 1.5v.2c0 .5-.1.9-.2 1.4 0 .1-.1.2-.1.2-.2 1.7-.9 3.3-1.6 4.8l-.2.2.1.1-.1.1c-.4.7-.8 1.3-1.3 1.9l-.1.3h-.1c-.5.7-1.2 1.3-1.8 2-.1.1-.3.2-.4.3-.5.4-1.1.9-1.6 1.3l-.3.3v-.1c-3.5 2.5-7.8 3.5-12 3.9h-4.1c-.3-.1-.6-.1-.9-.1-2.9-.3-5.6-1.1-8.2-2.4l-.2-.1c-.8-.3-1.5-.8-2.3-1.3-.1-.1-.2-.1-.3-.2-.6-.4-1.2-.8-1.7-1.3l-.3-.3c-.5-.5-1.1-1-1.6-1.5-.1 0-.1-.1-.1-.2-2.8-2.9-4.6-6.9-4.6-11 0-.4 0-.8.1-1.2.3-.3.3-.8.6-1 .2-.1.5-.2.7-.2.6 0 1.2.4 1.6.9.1 1.7 0 3.5.6 5.1.6 2 1.8 3.9 3.3 5.5l.3.3c.4.5.9.9 1.4 1.3.2.1.3.2.5.4.4.4.9.7 1.4 1 .1.1.2.1.3.2.5.4 1 .6 1.6.9l.2.1c3 1.4 6.2 2.2 9.5 2.2h.7c4.1 0 8.4-1 11.8-3.3l.2-.1c.6-.3 1.1-.8 1.5-1.2.1-.1.2-.1.2-.2.4-.4.8-.7 1.1-1.2l.2-.2c.5-.7 1-1.3 1.4-2 0-.2.1-.4.3-.5.6-1.2 1.1-2.4 1.3-3.7 0-.2 0-.4.1-.5.1-.5.2-1.1.2-1.6v-1.4c0-.5.1-.9.3-1.3.2-.4.6-.4 1.1-.4h.3c.6 0 1.2.6 1.3 1.2h.1c-.2-.1-.2.1-.1.3z"/><g id="XMLID_168_"><defs><path id="XMLID_167_" d="M406.2 222.9c-.1-.2-.1-.4-.1-.7h-.1c-.2-.6-.7-1.2-1.3-1.2-.5 0-1.1 0-1.4.4-.5.7-.3 1.7-.3 2.5v.2c0 .6-.1 1.1-.2 1.6-.1.2-.1.3-.1.5-.2 1.3-.7 2.5-1.3 3.7-.1.2-.2.3-.3.5-.4.7-.9 1.4-1.4 2l-.2.2c-.4.4-.7.8-1.1 1.2-.1.1-.2.1-.2.2-.5.4-1 .9-1.5 1.2l-.2.1c-3.5 2.3-7.7 3.3-11.8 3.3-3.5.1-7-.6-10.2-2.1l-.2-.1c-.5-.3-1.1-.5-1.6-.9-.1-.1-.2-.1-.3-.2-.5-.3-1-.6-1.4-1-.1-.1-.3-.2-.5-.4-.5-.4-1-.8-1.4-1.3l-.3-.3c-1.5-1.5-2.6-3.4-3.3-5.5-.6-1.6-.5-3.4-.6-5.1-.5-.7-1.5-1.2-2.3-.7-.3.2-.4.7-.6 1-.4 4.5 1.5 9 4.6 12.2 0 .1.1.2.1.2.5.5 1.1 1 1.6 1.5l.3.3c.5.4 1.1.9 1.7 1.3.1.1.2.1.3.2.7.4 1.5 1 2.3 1.3l.2.1c2.6 1.2 5.4 2.1 8.2 2.4.3 0 .6 0 .9.1 1.4.1 2.7 0 4.1 0 4.2-.4 8.5-1.4 12.1-3.9v.1l.3-.3c.6-.4 1.1-.8 1.6-1.3.1-.1.3-.2.4-.3.6-.7 1.3-1.3 1.8-2h.1l.1-.3c.5-.6.9-1.3 1.3-1.9l.1-.1-.1-.1.2-.2c.7-1.5 1.4-3.1 1.6-4.8.1 0 .1-.1.1-.2 0-.5.2-1.1.1-1.6.2-.4.3-1.1.2-1.8z"/></defs><clipPath id="XMLID_7_"><use xlink:href="#XMLID_167_" overflow="visible"/></clipPath><path id="XMLID_169_" class="st12" d="M360.7 222.6c.2.1.5.1.8.1.4 0 .8 0 1.2-.1.4 0 .8-.1 1.2-.1.3 0 .5 0 .7.1.2 0 .3.1.4.2l.2-.2c-.1-.2-.3-.3-.6-.3-.2-.1-.5-.1-.8-.1-.4 0-.8 0-1.2.1-.4 0-.8.1-1.2.1-.3 0-.5 0-.7-.1v.3z"/><path id="XMLID_170_" class="st12" d="M361.4 225.9c.4-.1 1-.4 1.6-.5.6-.2 1.3-.3 1.8-.3.3 0 .5 0 .7.1l.1-.2c-.2-.1-.5-.2-.8-.2-.6 0-1.2.2-1.9.3-.6.2-1.2.4-1.6.6l.1.2z"/><path id="XMLID_171_" class="st12" d="M362.4 229.3h.2c.2 0 .3-.1.5-.1.3-.1.5-.3.8-.5.3-.2.5-.3.6-.4.7-.4 1.5-.7 2.3-.8v-.3c-.8.1-1.6.4-2.4.8-.1.1-.3.2-.4.3-.2.2-.5.3-.7.5-.1.1-.2.1-.4.2-.1 0-.2.1-.3.1h-.1l-.1.2z"/><path id="XMLID_172_" class="st12" d="M364.2 232.8c.5-.7 1.1-1.3 1.9-1.9.3-.2.9-.6 1.5-.9.3-.2.6-.3.9-.4.3-.1.6-.2.8-.2.2 0 .3 0 .4.1l.1-.2c-.2-.1-.3-.1-.5-.1-.3 0-.6.1-.9.2-.9.3-2 1-2.5 1.4-.8.5-1.4 1.2-2 1.9l.3.1z"/><path id="XMLID_173_" class="st12" d="M365.7 235.3c.3-.3.5-.6.8-.9.2-.3.4-.7.7-.9.4-.3.8-.5 1.3-.6.5-.1 1-.3 1.4-.5l-.1-.2c-.4.2-.9.3-1.3.4-.5.2-1 .3-1.4.7-.3.3-.6.6-.8.9-.2.3-.4.6-.7.9l.1.2z"/><path id="XMLID_174_" class="st12" d="M368.3 237.1c.1-.6.4-1.3.9-1.8.2-.3.5-.5.8-.6.3-.2.6-.2.8-.2h.1v-.3h-.1c-.3 0-.7.1-1 .3-.5.3-.9.7-1.2 1.1-.3.5-.5 1-.6 1.5h.3z"/><path id="XMLID_175_" class="st12" d="M370.2 239.1c.1 0 .2-.1.3-.1.2-.1.3-.3.4-.4l.6-.9c.2-.3.3-.6.5-.7.3-.4.7-.6 1-.8.4-.2.8-.3 1.2-.4l-.1-.3c-.5.1-.9.3-1.3.5s-.8.5-1.1.9c-.1.1-.2.3-.4.6s-.4.7-.6 1c-.1.1-.2.3-.3.4-.1.1-.2.1-.3.1l.1.1z"/><path id="XMLID_176_" class="st12" d="M374.2 240.6c0-.3.1-.6.2-1 .2-.5.4-1.2.7-1.6.2-.2.3-.4.5-.6.2-.1.3-.2.5-.2h.1v-.3h-.1c-.2 0-.3 0-.5.1-.3.1-.5.4-.7.7-.3.4-.5 1-.7 1.5-.2.5-.3 1-.3 1.4v.1l.3-.1z"/><path id="XMLID_177_" class="st12" d="M377.1 241.5v-.1c0-.6.1-1.7.5-2.6.2-.5.3-.9.6-1.2.1-.2.2-.3.4-.4.1-.1.3-.1.4-.2v-.3c-.2 0-.4.1-.5.2-.3.2-.5.5-.7.9-.3.5-.5 1.2-.6 1.9-.1.6-.2 1.3-.2 1.7v.1h.1z"/><path id="XMLID_178_" class="st12" d="M380.1 243.3c-.1-.5-.1-1-.1-1.6 0-.6.1-1.3.2-1.8.2-.6.4-1.1.8-1.5l-.2-.2c-.5.4-.7 1-.9 1.6-.2.6-.2 1.3-.2 1.9 0 .6.1 1.1.1 1.6h.3z"/><path id="XMLID_179_" class="st12" d="M383.8 243.7c0-.4-.2-1-.4-1.6-.2-.6-.3-1.2-.3-1.8 0-.3 0-.6.1-.8.1-.2.2-.4.5-.6l-.2-.2c-.3.2-.5.4-.6.7-.1.3-.2.6-.2.9 0 .6.1 1.3.3 1.9.2.6.3 1.2.4 1.6l.4-.1z"/><path id="XMLID_180_" class="st12" d="M387.8 242.7c-.1-.1-.2-.3-.3-.6-.3-.8-.5-2-.5-2.9 0-.3 0-.6.1-.7l-.3-.1c-.1.2-.1.5-.1.8 0 .6.1 1.4.2 2 .1.3.2.7.3.9.1.3.2.5.4.7l.2-.1z"/><path id="XMLID_181_" class="st12" d="M391.6 242.1c-.5-.9-1.1-1.7-1.2-2.7v-1.9l-.3.1v1.9c.2 1.1.8 1.9 1.3 2.7l.2-.1z"/><path id="XMLID_182_" class="st12" d="M394.7 240.7c-.2-.1-.3-.3-.5-.5-.4-.7-.6-1.7-.6-2.6 0-.4 0-.8.1-1l-.3-.1c-.1.3-.1.7-.1 1.1 0 .6.1 1.3.3 1.9.1.3.2.6.4.8.1.2.3.4.5.6l.2-.2z"/><path id="XMLID_183_" class="st12" d="M397.8 239.3c-.4-.8-.8-1.5-1-2.2-.3-.7-.5-1.5-.5-2.3h-.3c0 .9.2 1.7.5 2.4s.7 1.4 1 2.2l.3-.1z"/><path id="XMLID_184_" class="st12" d="M400.8 236.4c-.5-.4-1.1-.9-1.6-1.4-.5-.6-.8-1.2-.8-1.9v-.2h-.3v.3c0 .8.4 1.5.9 2.1.5.6 1.1 1.1 1.7 1.5l.1-.4z"/><path id="XMLID_185_" class="st12" d="M403.9 233.9c-.8-.2-1.8-.7-2.7-1.3-.9-.6-1.6-1.3-2.2-2l-.2.2c.5.7 1.3 1.5 2.2 2.1.9.6 1.9 1.1 2.8 1.3l.1-.3z"/><path id="XMLID_186_" class="st12" d="M405.4 230.9c-.3-.1-.8-.2-1.3-.4-.8-.3-1.8-.7-2.5-1.3-.4-.3-.7-.5-.9-.8-.2-.3-.3-.5-.3-.8v-.1h-.3v.2c0 .2.1.4.2.7.2.4.6.7 1 1 .6.5 1.5.9 2.2 1.2.8.3 1.5.5 1.9.6v-.3z"/><path id="XMLID_187_" class="st12" d="M406.7 227.8c-.9-.3-2-.6-3-1s-2-.8-2.7-1.4l-.2.2c.7.6 1.7 1.1 2.8 1.5 1 .4 2.1.7 3 1l.1-.3z"/><path id="XMLID_188_" class="st12" d="M407.6 224.9h-.3c-.5 0-1.1-.1-1.8-.3-.6-.1-1.2-.3-1.8-.4-1.2-.2-2.4-.6-3.6-.9l-.1.3c1.2.3 2.4.7 3.6.9.5.1 1.1.2 1.7.4.6.1 1.3.3 1.8.3h.3l.2-.3z"/><path id="XMLID_189_" class="st12" d="M406.5 222h-.5c-1.9 0-3.7-.7-5.5-1.3l-.1.3c1.8.6 3.6 1.3 5.6 1.3h.5v-.3z"/></g><path id="XMLID_166_" class="st10" d="M133.5 228.7c2-.3 4.2-.5 5.9.7 1 .8 1.4 2.2 1.3 3.5.1 2.1-.9 4.3-2.8 5.4-1.6.9-3.6 1-5.4.8-1.2-.1-2.5-.8-3.1-1.9-1.3-3.3.4-7.9 4.1-8.5z"/><path id="XMLID_190_" class="st10" d="M133.5 228.7c.8-.1 1.6-.2 2.5-.2 1.2 0 2.5.2 3.5 1 1 .7 1.3 2 1.3 3.1v.5c0 2-1 4.1-2.8 5.2-1.2.6-2.5.9-3.9.9-.5 0-1 0-1.5-.1-1.2-.1-2.5-.8-3.1-1.9-.3-.8-.5-1.6-.5-2.4 0-2.8 1.7-5.6 4.5-6.1-2.8.5-4.5 3.3-4.5 6 0 .8.2 1.7.5 2.4.6 1.1 1.9 1.8 3.1 1.9.5.1 1 .1 1.5.1 1.4 0 2.7-.2 3.9-.9 1.8-1 2.8-3.2 2.8-5.2v-.5c0-1.2-.4-2.4-1.4-3.2-1-.7-2.2-1-3.5-1-.8.2-1.6.3-2.4.4z"/><path id="XMLID_191_" class="st10" d="M74.5 231.1c.1-1.1 1.1-2.1 2.3-2.1h25.7c.9-.1 1.9.3 2.4 1.2.6 1.1.1 2.3 0 3.5-.3 1.6-.2 3.6-2 4.2-6.2.2-12.5 0-18.7.1-.6 3.9-1.2 7.8-1.7 11.8v.6h13.7c1.3-.1 2.6 1 2.5 2.3-.1 1.4-.4 2.7-.6 4.1-.1.9-.9 1.8-1.9 2-5.1.1-10.3-.1-15.4.1-.8 5.6-1.8 11.2-2.6 16.8-.1 1.1-1 2.1-2.1 2.1h-6.4c-1.4 0-2.5-1.5-2.1-2.8 2.2-14.7 4.6-29.3 6.9-43.9z"/><path id="XMLID_192_" class="st10" d="M74.5 231.1c.1-1.1 1.1-2.1 2.2-2.1h26c.9 0 1.7.4 2.2 1.2.2.4.3.8.3 1.2 0 .8-.3 1.5-.3 2.3-.3 1.6-.2 3.6-2 4.2-2.3.1-4.5.1-6.8.1H84.2c-.6 3.9-1.2 7.8-1.7 11.8v.6h13.9c.6 0 1.2.2 1.6.6.4.4.7.9.7 1.5v.2c-.1 1.4-.4 2.7-.6 4.1-.1.9-.9 1.8-1.9 2h-9.7c-1.9 0-3.8 0-5.7.1-.8 5.6-1.8 11.2-2.6 16.8-.1 1.1-1 2.1-2.1 2.1h-6.4c-.6 0-1.1-.3-1.5-.7-.4-.4-.6-1-.6-1.6 0-.2 0-.4.1-.5 2.2-14.7 4.5-29.3 6.8-43.9-2.3 14.7-4.7 29.3-7 43.9 0 .2-.1.3-.1.5 0 1.1 1 2.3 2.1 2.3h6.4c1.1 0 2-1 2.1-2.1.9-5.6 1.8-11.2 2.6-16.8 1.9-.1 3.8-.1 5.7-.1H96c1-.2 1.7-1 1.9-2 .2-1.4.5-2.7.6-4.1v-.2c0-1.2-1.2-2.2-2.4-2.2H82.2v-.6c.6-3.9 1.2-7.8 1.7-11.8h11.9c2.3 0 4.5 0 6.8-.1 1.8-.6 1.8-2.7 2-4.2 0-.7.3-1.5.3-2.3 0-.4-.1-.8-.3-1.2-.4-.8-1.3-1.2-2.2-1.2h-26c-.8.1-1.8 1.1-1.9 2.2z"/><path id="XMLID_193_" class="st10" d="M112.3 229.1c1.9-.1 3.9 0 5.8-.1 1.2-.1 2.4.9 2.5 2.1 0 1-.3 1.9-.4 2.9-1.6 10-3.2 19.9-4.7 29.9-.2 1.6-.6 3.3-.1 4.9.6 1.6 3 .9 3.6 2.6.4 1.4 0 2.8-.1 4.2-.1 1.9-2.2 2.3-3.7 2.7-3.2.6-7 .1-9.3-2.5-1.6-1.9-1.7-4.6-1.4-7 2-12.6 3.9-25.3 6-38 .1-.7.9-1.6 1.8-1.7z"/><path id="XMLID_194_" class="st10" d="M112.3 229.1c.8-.1 1.7-.1 2.5-.1h3.4c1.1 0 2.2.9 2.4 2.1 0 1-.3 1.9-.4 2.9-1.6 10-3.2 19.9-4.7 29.9-.1 1.1-.4 2.2-.4 3.3 0 .6.1 1.1.2 1.7.3.8 1 1.1 1.8 1.3.8.2 1.5.5 1.8 1.3.1.4.2.8.2 1.3 0 1-.2 2-.3 3-.1 1.9-2.2 2.3-3.7 2.7-.8.1-1.6.2-2.5.2-2.5 0-5.1-.7-6.8-2.7-1.2-1.4-1.6-3.1-1.6-4.9 0-.7.1-1.4.2-2 2-12.6 3.9-25.3 6-38 .2-1 1-1.9 1.9-2-1 .1-1.7 1-1.8 1.9-2 12.7-4 25.3-6 38-.1.7-.2 1.4-.2 2 0 1.8.4 3.5 1.6 4.9 1.7 2 4.3 2.7 6.8 2.7.8 0 1.7-.1 2.5-.2 1.4-.4 3.6-.8 3.7-2.7.1-1 .3-2 .3-3 0-.4 0-.8-.2-1.3-.3-.9-1.1-1.1-1.8-1.4-.8-.2-1.5-.5-1.8-1.3-.2-.6-.2-1.1-.2-1.7 0-1.1.2-2.2.4-3.3 1.6-10 3.2-19.9 4.7-29.9.1-1 .4-1.9.4-2.9-.1-1.2-1.2-2.1-2.4-2.1h-3.4c-.9.2-1.7.2-2.6.3z"/><path id="XMLID_195_" class="st10" d="M186.1 231.1c.1-1.1 1.1-2.1 2.2-2.1h5.7c1.4 0 2.6 1.5 2.2 2.8-1.3 8.3-2.6 16.5-3.9 24.8 2-.3 4.2-.7 5.6-2.3 2.3-2.6 4.2-5.6 5.6-8.8.5-1.2.7-3 2.3-3.2 2.1-.1 4.3 0 6.4 0 1.5 0 2.5 1.6 2 2.9-.6 2-1.5 3.8-2.5 5.5-2.2 3.5-4.5 7-7.7 9.7 1.4 4.1 3.1 8.1 4.6 12.2.4 1.3 1.5 2.9.5 4.2-1.2 1.6-3.3.8-4.9 1-1.7-.2-4.1.7-5-1.2-1.7-4.1-3.2-8.2-5-12.3-1 0-2.1.1-3.2 0-.1.1-.2.4-.3.6-.6 3.7-1.2 7.4-1.7 11.2-.2.9-.9 1.7-1.9 1.7-2 .1-4 0-6 0-.9 0-1.6-.6-2-1.3-.4-.7-.1-1.6 0-2.4 2.5-14.3 4.8-28.7 7-43z"/><path id="XMLID_196_" class="st10" d="M186.1 231.1c.1-1.1 1.1-2.1 2.2-2.1h5.8c.6 0 1.2.3 1.6.7.4.4.7 1 .7 1.6 0 .2 0 .3-.1.5-1.3 8.3-2.6 16.5-3.9 24.8 2-.3 4.2-.7 5.6-2.3 2.3-2.6 4.2-5.6 5.6-8.8.5-1.2.7-3 2.3-3.2h6.4c.6 0 1.1.3 1.5.7.4.4.6 1 .6 1.6 0 .2 0 .5-.1.7-.6 2-1.5 3.8-2.5 5.5-2.2 3.5-4.5 7-7.7 9.7 1.4 4.1 3.1 8.1 4.6 12.2.3.9.9 2 .9 3 0 .4-.1.8-.4 1.2-.6.8-1.5 1-2.5 1-.6 0-1.2-.1-1.8-.1h-1.2c-.6 0-1.2.1-1.8.1-1.1 0-2.1-.2-2.6-1.3-1.7-4.1-3.2-8.2-5-12.3h-1.6c-.5 0-1.1 0-1.6-.1-.1.1-.2.4-.3.6-.6 3.7-1.2 7.4-1.7 11.2-.2.9-.9 1.7-1.9 1.7h-6c-.9 0-1.6-.6-2-1.3-.2-.3-.2-.6-.2-1 0-.5.1-1 .2-1.4 2.4-14.2 4.7-28.6 6.9-42.9-2.3 14.4-4.5 28.7-6.8 43.1-.1.5-.2 1-.2 1.4 0 .3.1.7.2 1 .4.7 1.2 1.3 2 1.3h6c1-.1 1.7-.9 1.9-1.8.6-3.7 1.2-7.4 1.7-11.2.1-.1.2-.4.3-.6.5.1 1 .1 1.6.1h1.6c1.8 4.1 3.2 8.2 5 12.3.5 1.1 1.5 1.3 2.6 1.3.6 0 1.3-.1 1.8-.1h1.2c.6 0 1.2.1 1.8.1 1 0 1.9-.2 2.5-1 .3-.4.4-.8.4-1.2 0-1-.6-2-.9-3-1.5-4.1-3.3-8.1-4.6-12.2 3.1-2.8 5.5-6.2 7.7-9.7 1-1.7 1.9-3.6 2.5-5.5.1-.2.1-.5.1-.7 0-1.1-.9-2.3-2.1-2.3H206c-1.6.2-1.9 2-2.3 3.2-1.4 3.2-3.3 6.2-5.6 8.8-1.4 1.6-3.6 2-5.6 2.3 1.3-8.3 2.6-16.5 3.9-24.8 0-.2.1-.3.1-.5 0-1.2-1-2.4-2.2-2.4h-5.8c-1.2 0-2.2.9-2.4 2.1z"/><path id="XMLID_197_" class="st10" d="M289.5 235.1c.3-1 1.3-1.7 2.3-1.7h4.5c1.2 0 2.2 1.3 2 2.5-.2 2.1-.7 4.2-.9 6.4h4.4c1.3 0 2.4 1.3 2.2 2.6-.2 1.2-.4 2.3-.6 3.4-.2 1-1 1.7-1.9 1.9-1.8.1-3.5-.1-5.3.1-.7 5-1.6 10-2.3 15-.1 1.2-.2 2.5.5 3.5 1 1.2 2.8.8 4.2.9 1.1.3 1.8 1.6 1.6 2.7-.2 1.3-.2 2.5-.5 3.8-.4 1.4-2 1.6-3.3 2-3.4.9-7.3.9-10.3-1.1-2.8-1.9-3.2-5.6-2.9-8.7.8-6 2-12 2.7-18.1-1 0-2.3.2-3.1-.7-.9-.9-.4-2.3-.3-3.5.2-1.2.2-2.8 1.5-3.5 1.1-.4 2.3-.1 3.5-.3.6-2.5 1.3-4.8 2-7.2z"/><path id="XMLID_198_" class="st10" d="M289.5 235.1c.3-1 1.2-1.7 2.2-1.7h4.6c1.1 0 2.1 1.1 2.1 2.2v.2c-.2 2.1-.7 4.2-.9 6.4h4.4c.6 0 1.1.3 1.5.7.4.4.6 1 .6 1.6v.3c-.2 1.2-.4 2.3-.6 3.4-.2 1-1 1.7-1.9 1.9h-3.3c-.7 0-1.3 0-2 .1-.7 5-1.6 10-2.3 15 0 .4-.1.8-.1 1.2 0 .8.1 1.6.6 2.2.7.8 1.7.9 2.8.9h1.4c1 .3 1.7 1.3 1.7 2.3v.4c-.2 1.3-.2 2.5-.5 3.8-.4 1.4-2 1.6-3.3 2-1.4.4-2.8.6-4.2.6-2.1 0-4.3-.5-6.1-1.7-2.3-1.6-3-4.4-3-7.1 0-.5 0-1.1.1-1.6.8-6 2-12 2.7-18.1h-1c-.8 0-1.6-.1-2.1-.8-.4-.4-.5-1-.5-1.5 0-.6.2-1.3.2-1.9.2-1.2.2-2.8 1.5-3.5.5-.2 1-.2 1.6-.2h1.9c.5-2.4 1.2-4.7 1.9-7.1-.8 2.3-1.4 4.7-2.1 7.1h-1.8c-.5 0-1.1 0-1.6.2-1.3.7-1.3 2.3-1.5 3.5-.1.6-.2 1.3-.2 1.9 0 .6.1 1.1.5 1.5.6.7 1.3.8 2.1.8h1c-.7 6.1-1.9 12-2.7 18.1-.1.5-.1 1.1-.1 1.6 0 2.7.7 5.5 3 7.1 1.8 1.2 3.9 1.7 6.1 1.7 1.4 0 2.9-.2 4.2-.6 1.2-.3 2.8-.6 3.3-2 .3-1.2.3-2.5.5-3.8v-.4c0-1-.7-2-1.7-2.3h-1.4c-1 0-2.1-.1-2.7-.9-.4-.7-.6-1.4-.6-2.2 0-.4 0-.8.1-1.2.8-5 1.6-10 2.3-15 .7-.1 1.3-.1 2-.1h3.3c.9-.1 1.8-.9 1.9-1.9.2-1.2.4-2.3.6-3.4v-.3c0-1.2-1-2.3-2.2-2.3h-4.4c.1-2.1.7-4.2.9-6.4v-.2c0-1.1-.9-2.2-2.1-2.2h-4.6c-.9 0-1.9.7-2.1 1.7z"/><path id="XMLID_199_" class="st10" d="M268.5 247.2c2.3-2.3 5.2-4.3 8.4-5.2 1.4-.6 3.2.6 3.2 2.1-.3 2-.7 4.1-1.1 6.1-.1 1-1 1.9-2 2-3.6.6-6.8 2.8-9.3 5.4-.6.8-1.6 1.5-1.7 2.6l-2.4 15.6c-.1 1.1-1.1 2.2-2.2 2.1h-5.7c-1.3.1-2.5-1.2-2.3-2.5 1.6-10.3 3.3-20.6 4.9-30.9.1-1 .8-2 1.9-2.2 1.4-.1 2.8 0 4.2 0 1.1 0 2.2 1 2.2 2.2 0 1.6-.1 3.2-.2 4.9.8-.7 1.3-1.6 2.1-2.2z"/><path id="XMLID_200_" class="st10" d="M268.5 247.2c2.3-2.3 5.2-4.3 8.4-5.2.3-.1.5-.2.8-.2.6 0 1.2.2 1.6.7.4.4.7 1 .7 1.6-.3 2-.7 4.1-1.1 6.1-.1 1-1 1.9-2 2-3.6.6-6.8 2.8-9.3 5.4-.6.8-1.6 1.5-1.7 2.6l-2.4 15.6c-.1 1.1-1 2.1-2.1 2.1h-5.9c-.6 0-1.1-.3-1.5-.7-.4-.4-.7-1-.7-1.6v-.2c1.6-10.3 3.3-20.6 4.9-30.9.1-1 .8-2 1.9-2.2h4.2c.6 0 1.1.3 1.5.6.4.4.7.9.7 1.5 0 1.6-.1 3.2-.2 4.9.9-.6 1.4-1.5 2.2-2.1-.7.7-1.3 1.6-2.2 2.1 0-1.6.2-3.3.2-4.9 0-1.2-1-2.2-2.2-2.2h-4.2c-1.1.1-1.8 1.1-1.9 2.2-1.6 10.3-3.2 20.6-4.9 30.9v.2c0 1.2 1 2.3 2.2 2.3h5.9c1.1 0 2-1 2.1-2.1l2.4-15.6c.1-1.1 1-1.8 1.7-2.6 2.5-2.6 5.7-4.8 9.3-5.4 1-.1 1.9-1 2-2 .3-2 .8-4 1.1-6.1 0-1.3-1.2-2.3-2.4-2.3-.3 0-.6.1-.8.2-3.1 1-6 2.9-8.3 5.3z"/><path id="XMLID_201_" class="st10" d="M129.5 242.4c2-.4 4.1-.1 6.1-.2 1.2-.1 2.4.6 2.6 1.7.1 1-.1 2-.3 3-1.5 9.6-3 19.1-4.5 28.7-.1 1.1-1 2.2-2.2 2.1h-6.1c-1.3-.1-2.2-1.6-1.9-2.8 1.6-9.9 3.1-19.8 4.7-29.8.2-.9.5-2.2 1.6-2.7z"/><path id="XMLID_202_" class="st10" d="M129.5 242.4c.8-.2 1.7-.2 2.5-.2h3.9c1.1 0 2.1.7 2.3 1.8v.6c0 .8-.2 1.6-.3 2.4-1.5 9.6-3 19.1-4.5 28.7-.1 1.1-1 2.1-2.1 2.1h-6.1c-1.1-.1-1.9-1.2-1.9-2.3 0-.2 0-.4.1-.5 1.6-9.9 3.1-19.8 4.7-29.8 0-1 .3-2.3 1.4-2.8-1.1.4-1.4 1.7-1.5 2.8-1.6 9.9-3.1 19.8-4.7 29.8 0 .2-.1.3-.1.5 0 1.1.8 2.2 1.9 2.3h6.1c1.1 0 2-1.1 2.1-2.1 1.5-9.6 3-19.1 4.5-28.7.1-.8.3-1.6.3-2.5v-.6c-.2-1.1-1.2-1.8-2.3-1.8h-3.9l-2.4.3z"/><path id="XMLID_205_" class="st10" d="M249.8 242.9c-5.5-1-11.2-1.8-16.8-1.2-5 .6-10.1 2.9-13.2 7-4.3 5.4-5.7 12.7-4.8 19.5.5 3.2 1.9 6.5 4.6 8.5 2.5 1.9 5.8 2.2 8.7 1.7 4.2-.8 7.7-3.5 10.6-6.5.1 1.3-.1 2.5-.1 3.8.1 1.2 1.1 2.2 2.3 2.2h3.8c1.1 0 2-1 2.1-2.1 1.6-10.1 3.2-20.1 4.8-30.2.3-1.3-.7-2.5-2-2.7zm-10.4 17.5c-1.5 2.8-3.6 5.3-5.9 7.5-1.3 1.1-3 2.3-4.9 1.9-1.8-.4-2.6-2.2-3-3.8-.9-4.2-.1-8.7 2.3-12.3 1-1.7 2.7-2.9 4.6-3.5 2.7-.7 5.6-.3 8.2.4l.1.1c-.3 3.3-1 6.5-1.4 9.7z"/><path id="XMLID_208_" class="st10" d="M249.8 242.9c-4.2-.8-8.5-1.4-12.8-1.4-1.3 0-2.7.1-4 .2-5 .6-10.1 2.9-13.2 7-3.4 4.4-5 9.9-5 15.5 0 1.4.1 2.7.3 4 .5 3.2 1.9 6.5 4.6 8.5 1.8 1.4 4 1.9 6.2 1.9.9 0 1.7-.1 2.5-.2 4.2-.8 7.7-3.5 10.6-6.5v.8c0 .9-.1 1.7-.1 2.6v.4c.1 1.1 1.1 2.2 2.2 2.2h3.9c1.1 0 2.1-1 2.1-2.1 1.6-10.1 3.2-20.1 4.8-30.2v-.4c0-1.1-.9-2.1-2.1-2.3 1.1.1 2.1 1.2 2.1 2.3v.4c-1.6 10-3.2 20.1-4.8 30.2-.1 1.1-1 2.1-2.1 2.1h-3.9c-1.1 0-2.1-1-2.1-2.2v-.4c0-.8.1-1.7.1-2.6v-.8c-2.9 3-6.4 5.7-10.6 6.5-.8.1-1.7.2-2.5.2-2.2 0-4.4-.5-6.2-1.9-2.6-2-4.1-5.3-4.6-8.5-.2-1.3-.3-2.7-.3-4 0-5.5 1.6-11.1 5-15.4 3.1-4.1 8.1-6.4 13.2-7 1.3-.1 2.6-.2 4-.2 4.2-.1 8.5.5 12.7 1.3zm-10.4 17.5c-1.5 2.8-3.6 5.3-5.9 7.5-1.2 1-2.6 2-4.2 2-.2 0-.5 0-.7-.1-1.8-.4-2.6-2.2-3-3.8-.2-1.1-.4-2.2-.4-3.4 0-3.1.9-6.3 2.6-8.9 1-1.7 2.7-2.9 4.6-3.5 1-.3 2.1-.4 3.1-.4 1.7 0 3.5.3 5.1.8l.1.1c-.2 3.3-.9 6.5-1.3 9.7.5-3.2 1.1-6.4 1.5-9.7l-.2-.2c-1.7-.5-3.4-.8-5.1-.8-1 0-2.1.1-3.1.4-1.9.5-3.6 1.8-4.7 3.5-1.7 2.6-2.6 5.8-2.6 8.9 0 1.1.1 2.3.4 3.4.4 1.6 1.3 3.5 3.1 3.8.2 0 .5.1.7.1 1.6 0 3-1 4.2-2 2.2-2 4.3-4.6 5.8-7.4z"/><path id="XMLID_211_" class="st10" d="M176.8 254.9c0-3.7-1-7.6-3.6-10.4-1.8-2-4.5-3-7.1-2.9-4.3-.1-8.4 2-11.5 4.8-.7.6-1.2 1.4-2 1.8 0-1.2.1-2.5.1-3.7 0-1.2-1-2.2-2.2-2.2h-3.8c-1.2 0-2.2 1-2.2 2.2-2.3 14.9-4.7 29.8-7.1 44.6-.3 1.4.9 2.8 2.3 2.8 2.1 0 4.2.1 6.2-.1 1.6-.4 1.6-2.3 1.9-3.7.6-3.3 1-6.5 1.4-9.9 7.3 1.4 15.8.4 21.3-5.1 4.5-5 6.5-11.7 6.3-18.2zm-10.4 3.7c-.2 3.4-1.5 6.9-3.8 9.4-3.1 2.9-7.8 2.5-11.6 1.5-.1-.1-.2-.3-.2-.4.6-3.2.9-6.5 1.6-9.7 2.1-3.4 4.6-6.9 8.2-8.8 1.3-.6 3.2-.5 4.1.7 1.7 2.1 1.8 4.8 1.7 7.3z"/><path id="XMLID_214_" class="st10" d="M176.8 254.9c0-3.7-1-7.6-3.6-10.4-1.8-1.9-4.4-2.9-6.9-2.9h-.5c-4.2 0-8 2.1-11.1 4.8-.7.6-1.2 1.4-2 1.8 0-1.1.1-2.1.1-3.2v-.6c0-1.1-1.1-2.1-2.2-2.1h-3.8c-1.2 0-2.2 1-2.2 2.2-2.3 14.9-4.7 29.8-7.1 44.6 0 .2-.1.3-.1.5 0 1.2 1 2.3 2.3 2.3h3.4c1 0 2 0 2.9-.2 1.6-.4 1.6-2.4 1.9-3.7.6-3.3 1-6.5 1.4-9.9 1.9.4 4 .6 6 .6 5.6 0 11.3-1.6 15.3-5.7 4.2-4.6 6.3-11 6.3-17.2-.1-.3-.1-.6-.1-.9v.9c0 6.2-2.1 12.6-6.3 17.2-4 4.1-9.7 5.7-15.3 5.7-2 0-4-.2-6-.6-.4 3.3-.8 6.6-1.4 9.9-.3 1.4-.2 3.3-1.9 3.7-1 .1-1.9.2-2.9.2h-3.4c-.6 0-1.2-.3-1.6-.7-.4-.4-.7-1-.7-1.6 0-.2 0-.3.1-.5 2.3-14.9 4.7-29.8 7.1-44.6.1-1.1 1-2.2 2.2-2.2h3.8c.5 0 1.1.2 1.5.6.4.4.7.9.7 1.5v.6c0 1.1-.1 2.1-.1 3.2.8-.4 1.3-1.3 2-1.8 3.1-2.7 6.9-4.8 11.1-4.8h.5c2.6 0 5.2 1 6.9 2.9 2.7 2.7 3.7 6.6 3.7 10.4zm-10.4 3.7c-.2 3.4-1.5 6.9-3.8 9.4-1.8 1.7-4.1 2.3-6.4 2.3-1.7 0-3.5-.3-5.1-.7-.1-.1-.2-.3-.2-.4.6-3.2.9-6.5 1.6-9.7 2.1-3.4 4.6-6.9 8.2-8.8.5-.2 1.1-.4 1.6-.4.9 0 1.9.3 2.5 1.1 1.3 1.7 1.7 3.8 1.7 5.9-.1.4-.1.9-.1 1.3 0-.5.1-.9.1-1.4 0-2.1-.3-4.2-1.7-5.9-.6-.8-1.5-1.1-2.5-1.1-.6 0-1.1.1-1.7.4-3.6 1.9-6.1 5.4-8.2 8.8-.7 3.2-1 6.5-1.6 9.7 0 .1.1.3.2.4 1.6.4 3.4.7 5.1.7 2.4 0 4.7-.6 6.4-2.3 2.5-2.4 3.7-5.9 3.9-9.3z"/></g></svg>