<svg xmlns="http://www.w3.org/2000/svg" width="512" height="512" viewBox="0 0 512 512"><g xmlns="http://www.w3.org/2000/svg"><path d="M108.624 151.261a40.014 40.014 0 0 0-68.613 26.776 32 32 0 1 0 45.176 40.843 40.045 40.045 0 0 0 17.867-6.973 32 32 0 1 0 5.57-60.646z" fill="#407093" data-original="#02a437"/><path d="M94.546 224.481a8 8 0 0 1-7.455-5.093l-14.542-37.264a8 8 0 0 1 14.906-5.816L102 213.571a8 8 0 0 1-7.451 10.91z" fill="#c2d0d5" data-original="#027e2a"/><path d="M109.458 218.663a8.42 8.42 0 0 1-.741-.034 8 8 0 0 1-7.234-8.7 62.044 62.044 0 0 1 15.665-35.717 8 8 0 1 1 11.868 10.73 45.954 45.954 0 0 0-11.6 26.45 8 8 0 0 1-7.958 7.271zM79.636 230.3a7.971 7.971 0 0 1-5.363-2.066 45.942 45.942 0 0 0-26.449-11.6 8 8 0 1 1 1.464-15.934A62.063 62.063 0 0 1 85 216.361a8 8 0 0 1-5.364 13.939z" fill="#c2d0d5" data-original="#027e2a"/><path d="M188.339 368.8l-59.621 23.27-57.463-115.188a43.835 43.835 0 0 1 23.289-60.4 43.834 43.834 0 0 1 58.046 28.662z" fill="#c4ced1" data-original="#fd9226"/><path d="M272 24h32v224h-32z" fill="#407093" data-original="#026a23"/><path d="M287.11 185.94a69.015 69.015 0 0 0-3.78-14.07L248 80l-24 8 34.27 89.1a85.942 85.942 0 0 1 5.73 30.87v28.39z" fill="#c2d0d5" data-original="#027226"/><path d="M322.31 325.75a30.42 30.42 0 0 1 0 36.5l-.11.15A34 34 0 0 1 295 376h-14a34 34 0 0 1-27.2-13.6l-.11-.15a30.42 30.42 0 0 1 0-36.5L264 312v-75.64l23.11-50.42.89-1.94 40-104 24 8-34.27 89.1a85.942 85.942 0 0 0-5.73 30.87V312z" fill="#c2d0d5" data-original="#027e2a"/><path d="M322.31 362.25l-.11.15a33.871 33.871 0 0 1-12.88 10.43l-47.83-2.99a33.688 33.688 0 0 1-7.69-7.44l-.11-.15a30.42 30.42 0 0 1 0-36.5l.71-.95 9.6-4.8 48-112.03V312l10.31 13.75a30.42 30.42 0 0 1 0 36.5z" fill="#c2d0d5" data-original="#027e2a"/><path d="M80.55 298.644a8 8 0 0 1-2.91-15.456l14.905-5.816a8 8 0 0 1 5.817 14.906l-14.9 5.817a8 8 0 0 1-2.912.549zm44.716-17.451a8 8 0 0 1-2.911-15.455l14.906-5.816a8 8 0 1 1 5.816 14.906l-14.9 5.817a8 8 0 0 1-2.911.548zm-31.855 46.535a8 8 0 0 1-2.91-15.456l21.13-8a8 8 0 0 1 5.817 14.907l-21.131 8a8 8 0 0 1-2.906.549zm50.941-19.628a8 8 0 0 1-2.91-15.455l7.453-2.909a8 8 0 0 1 5.816 14.907l-7.453 2.908a8 8 0 0 1-2.906.549z" fill="#407093" data-original="#e78244"/><path d="M189 200h18.987a34 34 0 0 1 30.413 18.8L245 232h-18.987a34 34 0 0 1-30.41-18.795z" fill="#407093" data-original="#02a437"/><path d="M227.633 278a8 8 0 0 1-8-8 56.945 56.945 0 0 1 45.654-55.689l.778-.156a8 8 0 0 1 3.136 15.69l-.777.155a40.9 40.9 0 0 0-32.791 40 8 8 0 0 1-8 8z" fill="#c4ced1" data-original="#8f6934"/><path d="M322.31 362.25l-.11.15a33.871 33.871 0 0 1-12.88 10.43l-47.83-2.99a33.688 33.688 0 0 1-7.69-7.44l-.11-.15a30.42 30.42 0 0 1 0-36.5l.71-.95 9.6-4.8 48-112.03V312l10.31 13.75a30.42 30.42 0 0 1 0 36.5z" fill="#cbcbcb" data-original="#cbcbcb"/><path d="M198.988 254a23.627 23.627 0 0 1 19.659 10.521 10.8 10.8 0 0 0 17.972 0A23.626 23.626 0 0 1 256.277 254a23.626 23.626 0 0 1 18.449 8.867l1.879 2.348a52 52 0 0 1 3.491 60.044l-15.61 24.976a16.521 16.521 0 0 1-14.01 7.765 16.521 16.521 0 0 1-11.682-4.839 15.784 15.784 0 0 0-22.322 0A16.524 16.524 0 0 1 204.79 358a16.519 16.519 0 0 1-14.01-7.765l-15.61-24.976a52 52 0 0 1 3.491-60.044l1.878-2.348A23.629 23.629 0 0 1 198.988 254z" fill="#407093" data-original="#e82f3e"/><path d="M204.6 320a7.978 7.978 0 0 1-5.657-2.343A23.667 23.667 0 0 1 194.5 290.3l2.941-5.881a8 8 0 0 1 14.31 7.156l-2.94 5.881a7.686 7.686 0 0 0 1.442 8.884A8 8 0 0 1 204.6 320z" fill="#c2d0d5" data-original="#ff6268"/><path d="M24 392h464v48H24z" fill="#407093" data-original="#ea9d2d"/><path d="M72 424H56a8 8 0 0 1 0-16h16a8 8 0 0 1 0 16zm384 0h-16a8 8 0 0 1 0-16h16a8 8 0 0 1 0 16z" fill="#c4ced1" data-original="#c38325"/><path d="M24 440h464v48H24z" fill="#407093" data-original="#fbb540"/><path d="M72 472H56a8 8 0 0 1 0-16h16a8 8 0 0 1 0 16zm192-48h-16a8 8 0 0 1 0-16h16a8 8 0 0 1 0 16zm0 48h-16a8 8 0 0 1 0-16h16a8 8 0 0 1 0 16zm192 0h-16a8 8 0 0 1 0-16h16a8 8 0 0 1 0 16z" fill="#c4ced1" data-original="#c38325"/><path d="M352 296l7.029 7.029A57.94 57.94 0 0 1 376 344h24v-8a57.94 57.94 0 0 0-16.971-40.971L376 288z" fill="#c2d0d5" data-original="#027e2a"/><path d="M448 296l-7.029 7.029A57.94 57.94 0 0 0 424 344h-24v-8a57.94 57.94 0 0 1 16.971-40.971L424 288z" fill="#c2d0d5" data-original="#027e2a"/><path d="M488 234a29.94 29.94 0 0 0-10.815-23.062A29.987 29.987 0 0 0 450 174.073a59.985 59.985 0 0 0-103.99 0 29.987 29.987 0 0 0-27.19 36.865A29.986 29.986 0 0 0 314.793 253a40 40 0 0 0 59.756 50.567A49.738 49.738 0 0 0 398 294a49.738 49.738 0 0 0 23.451 9.569A40 40 0 0 0 481.207 253 29.862 29.862 0 0 0 488 234z" fill="#407093" data-original="#02a437"/><path d="M420.634 200a8 8 0 0 1-7.543-5.336 16.009 16.009 0 0 0-30.182 0 8 8 0 0 1-15.086-5.332 32.01 32.01 0 0 1 60.354 0A8 8 0 0 1 420.634 200zM358 256a24 24 0 0 1 0-48 8 8 0 0 1 0 16 8 8 0 0 0 0 16 8 8 0 0 1 0 16z" fill="#c2d0d5" data-original="#027e2a"/><path d="M24 344h464v48H24z" fill="#407093" data-original="#fbb540"/><path d="M72 376H56a8 8 0 0 1 0-16h16a8 8 0 0 1 0 16zm384 0h-16a8 8 0 0 1 0-16h16a8 8 0 0 1 0 16zm-192 0h-16a8 8 0 0 1 0-16h16a8 8 0 0 1 0 16z" fill="#c4ced1" data-original="#c38325"/></g></svg>