<svg xmlns="http://www.w3.org/2000/svg" width="64pt" height="64pt" viewBox="0 0 64 64"><path d="M.988 32C.988 14.875 14.875.988 32 .988S63.012 14.875 63.012 32 49.125 63.012 32 63.012.988 49.125.988 32zm0 0" fill="#48c9b0"/><path d="M51.012 25.852L32.25 16.488a.59.59 0 0 0-.5 0l-18.773 9.364a.57.57 0 0 0-.34.535v3.699c0 .203.101.39.277.5a.57.57 0 0 0 .563.039L32 21.375l18.512 9.25c.074.04.164.063.25.063a.531.531 0 0 0 .312-.086.594.594 0 0 0 .278-.5v-3.727a.554.554 0 0 0-.34-.523zm0 0" fill="#fff"/><path d="M47.563 30.727L32 22.977l-15.563 7.75v14.375h8.625V34.074H31v11.028h16.563zm0 0" fill="#fff"/><path d="M32.96 34.074h4v4h-4zm0 0" fill="#48c9b0"/></svg>