<svg width="966" height="278" viewBox="0 0 966 278" fill="none" xmlns="http://www.w3.org/2000/svg"><path d="M225.663 228.547c8.256 0 12.385-11.333 12.385-34.001V77.698c0-3.093-.309-4.886-.928-5.381a4.66 4.66 0 0 0-1.948-1.067c-.99-.247-2.892-.371-5.706-.371h-7.004V63.27h45.598l-.417 7.608h-6.077c-3.742 0-5.86.278-6.355.835a7.035 7.035 0 0 0-1.113 1.855c-.464.99-.696 3-.696 6.03V190.37c0 6.649-.356 11.952-1.067 15.911-.711 3.958-1.964 7.437-3.757 10.437-1.794 2.999-4.747 6.494-8.86 10.483-4.113 4.02-8.056 6.989-11.829 8.906-3.773 1.949-7.715 2.923-11.828 2.923-4.082 0-7.639-.99-10.669-2.969-3.062-1.948-4.593-3.896-4.593-5.845 0-1.917.696-3.819 2.088-5.705 1.36-1.856 2.968-3.387 4.824-4.593 1.855-1.206 3.402-1.809 4.639-1.809 1.206 0 2.273.356 3.2 1.067a11.594 11.594 0 0 1 2.459 2.598c.742 1.02 1.484 2.056 2.226 3.108 1.701 2.443 3.51 3.664 5.428 3.664zm58.493-85.676c-2.938 0-4.406-2.273-4.406-6.819 0-2.938 1.484-6.324 4.453-10.158 5.721-7.422 15.323-11.133 28.806-11.133 7.669 0 12.803 2.783 15.4 8.349.897 1.949 1.345 4.237 1.345 6.866v35.532c0 5.752 1.067 9.834 3.201 12.246 2.01 2.226 5.056 3.896 9.138 5.01 1.144.309 1.717.835 1.717 1.577s-.804 1.608-2.413 2.597c-6.803 4.113-10.375 6.216-10.715 6.309-2.814-1.979-4.87-3.726-6.169-5.242-1.608-1.824-3.789-4.515-6.541-8.071-2.536 3.433-5.875 6.324-10.019 8.674-4.113 2.32-7.716 3.479-10.808 3.479-3.062 0-5.582-.278-7.562-.835a20.493 20.493 0 0 1-5.566-2.504c-3.835-2.474-5.752-6.216-5.752-11.226 0-5.041 1.67-9.788 5.01-14.241 3.34-4.453 7.947-8.009 13.823-10.669 5.907-2.69 12.354-4.035 19.343-4.035v-11.411c0-5.443-1.082-9.077-3.247-10.901-2.041-1.732-4.762-2.598-8.164-2.598-3.37 0-6.045.201-8.025.603-1.979.402-3.479.897-4.499 1.484-2.165 1.237-3.556 2.505-4.175 3.804.186.835.448 1.871.789 3.108.742 2.66 1.113 4.546 1.113 5.659 0 1.113-.758 2.149-2.273 3.108-1.484.959-2.752 1.438-3.804 1.438zm7.376 29.78c0 2.505.912 4.67 2.737 6.495 1.855 1.793 4.298 2.69 7.329 2.69 3.03 0 5.365-.232 7.004-.696 1.67-.464 2.984-1.051 3.943-1.763a9.274 9.274 0 0 0 2.366-2.551c1.02-1.577 1.53-3.386 1.53-5.427v-17.673c-7.669 0-13.807 2.025-18.415 6.076-4.33 3.804-6.494 8.087-6.494 12.849zm58.911-54.087c9.401-1.515 18.323-3.417 26.765-5.705v65.915c0 2.413.557 3.835 1.67 4.268 1.453.588 4.824.881 10.112.881h3.433V190h-41.238v-6.077h1.716c5.783 0 8.968-.263 9.556-.788.959-.897 1.438-2.088 1.438-3.572v-50.747c0-2.412-.201-4.02-.603-4.824-.402-.835-1.314-1.253-2.737-1.253-1.422 0-4.731.511-9.927 1.531l-.185-5.706zm21.848-32.841c-1.33 0-2.938-1.098-4.824-3.294-1.856-2.226-2.783-4.035-2.783-5.427 0-1.392 1.005-3.046 3.015-4.963 2.01-1.918 3.618-2.876 4.824-2.876 1.237 0 2.922 1.005 5.056 3.015 2.165 2.01 3.247 3.695 3.247 5.056 0 1.33-1.098 3.077-3.293 5.242-2.165 2.164-3.912 3.247-5.242 3.247zm63.503 96.855h2.273c3.402 0 5.675-.587 6.819-1.763 1.144-1.175 2.459-3.432 3.943-6.772 1.515-3.371 3.448-7.685 5.798-12.942 2.382-5.288 5.381-11.952 8.999-19.993a6928.524 6928.524 0 0 1 7.84-17.441 1079.84 1079.84 0 0 1 4.175-9.138c1.175-2.567 1.979-4.361 2.412-5.381.433-1.021.912-2.134 1.438-3.34l19.343-47.082h3.989c7.67 20.008 17.364 44.206 29.085 72.595 11.72 28.358 18.199 43.696 19.436 46.015 1.237 2.32 2.505 3.773 3.803 4.361 1.33.587 3.155.881 5.474.881h2.83l-.186 7.422H519.94l.185-7.422h5.706c3.154 0 5.335-.124 6.541-.371 1.206-.278 1.809-.912 1.809-1.902 0-.711-.294-1.778-.882-3.201-.556-1.453-.896-2.35-1.02-2.69l-14.055-34.558h-44.068l-15.029 33.445c-1.268 3.092-1.902 5.241-1.902 6.448 0 1.206.479 1.979 1.438 2.319.99.34 3.108.51 6.355.51h7.793V190H435.98l-.186-7.422zm41.98-51.118h37.249l-18.044-44.995-19.205 44.995zm104.231-8.721c-.185 0-3.602.634-10.251 1.902v-5.891c4.515-.649 11.767-2.072 21.755-4.268l4.824-1.066c-.247 4.298-.371 8.921-.371 13.869.402-.216 1.299-.85 2.691-1.902a101.032 101.032 0 0 1 4.499-3.2c1.639-1.114 3.495-2.227 5.567-3.34 4.7-2.598 8.736-3.897 12.107-3.897 3.401 0 5.984.402 7.746 1.206 1.794.773 3.185 1.655 4.175 2.644 1.021.959 1.917 2.119 2.691 3.479 1.051 1.763 1.762 3.371 2.133 4.825 7.762-5.814 13.514-9.293 17.256-10.437 3.773-1.145 6.834-1.717 9.185-1.717 2.35 0 4.468.294 6.355.882 1.886.587 3.448 1.345 4.685 2.273 1.268.896 2.35 2.056 3.247 3.479.928 1.422 1.623 2.814 2.087 4.174.495 1.361.882 2.954 1.16 4.778.433 2.598.649 5.768.649 9.51v39.15c0 2.257.557 3.618 1.67 4.082.99.433 3.928.649 8.814.649h1.902V190h-36.878v-6.077c5.165 0 8.319-.201 9.463-.603 1.175-.433 1.763-1.747 1.763-3.943v-39.335c0-8.01-2.165-12.633-6.494-13.87-1.33-.402-3.062-.603-5.196-.603a31.2 31.2 0 0 0-6.308.649c-2.072.433-3.835.959-5.288 1.577-2.845 1.237-5.227 2.598-7.144 4.082.526 3.928.789 8.489.789 13.685v35.114c0 1.485.324 2.351.974 2.598.649.247 1.391.417 2.226.51 1.175.093 3.278.139 6.309.139h1.67V190h-36.089l-.186-6.077h2.273c3.928 0 6.494-.17 7.701-.51 1.206-.34 1.809-1.191 1.809-2.551v-40.82c0-4.856-.959-8.474-2.876-10.855-1.887-2.412-5.258-3.618-10.113-3.618-4.824 0-10.375 2.041-16.653 6.123v48.057c0 2.041.294 3.169.882 3.386.618.216 1.361.402 2.226.556 1.021.155 3.34.232 6.958.232h.975V190h-37.063l-.186-6.077h5.334c3.155 0 5.196-.232 6.124-.695.958-.495 1.438-1.655 1.438-3.479V132.48c0-4.143-.155-6.803-.464-7.978-.279-1.175-1.129-1.763-2.552-1.763zm128.816 63.272l.557-25.467V67.446c0-3.803-.881-5.705-2.644-5.705-.99 0-4.608.696-10.855 2.087l-.556-5.891c4.267-.742 13.39-2.505 27.368-5.288v73.523c.216-.155.866-.68 1.948-1.577a201.004 201.004 0 0 1 3.108-2.459c.99-.773 2.335-1.67 4.036-2.69a40.091 40.091 0 0 1 5.102-2.644c4.051-1.732 8.597-2.598 13.638-2.598s9.818.99 14.333 2.969c4.546 1.979 8.195 4.639 10.948 7.978 5.628 6.835 8.442 15.03 8.442 24.585 0 13.452-4.809 24.493-14.426 33.12-6.618 5.907-14.859 8.86-24.724 8.86-5.938 0-10.685-.665-14.241-1.994-6.742-2.474-10.545-3.711-11.411-3.711-.835 0-2.227.726-4.175 2.18-1.948 1.453-3.402 2.18-4.36 2.18-1.392 0-2.088-1.453-2.088-4.36zm35.718-61.555c-9.03 0-16.313 2.334-21.848 7.004v39.939c0 6.309 4.407 10.514 13.22 12.617 2.319.557 4.484.835 6.494.835 2.041 0 3.85-.093 5.428-.278 1.577-.186 3.293-.557 5.148-1.114a27.279 27.279 0 0 0 5.242-2.133c1.639-.866 3.232-2.041 4.778-3.526a22.472 22.472 0 0 0 3.943-5.056c2.412-4.267 3.618-9.045 3.618-14.333 0-5.319-.402-9.649-1.206-12.989-.804-3.37-1.825-6.138-3.062-8.303-1.237-2.165-2.721-4.066-4.453-5.705-1.731-1.639-3.401-2.876-5.009-3.711a25.603 25.603 0 0 0-5.01-2.088c-2.598-.773-5.025-1.159-7.283-1.159zm63.457 22.59l-.185 2.69c0 14.133 5.659 23.41 16.977 27.832 3.402 1.33 6.803 1.995 10.205 1.995s6.386-.309 8.953-.928c2.567-.618 4.716-1.36 6.448-2.226a63.698 63.698 0 0 0 4.731-2.644c3.433-2.103 5.443-3.155 6.03-3.155 1.144 0 1.717.572 1.717 1.717 0 1.144-.526 2.474-1.578 3.989-1.051 1.515-2.628 3.201-4.731 5.056-2.103 1.825-4.5 3.556-7.19 5.195-6.37 3.928-13.39 5.891-21.06 5.891-10.421 0-18.74-3.355-24.956-10.065-6.556-7.144-9.834-16.205-9.834-27.183 0-12.215 3.248-22.142 9.742-29.78 6.37-7.484 14.333-11.226 23.889-11.226 10.7 0 19.482 4.299 26.347 12.896 3.464 4.329 5.196 8.133 5.196 11.411 0 .897-.371 1.592-1.114 2.087-.711.495-1.345.742-1.901.742l-47.686 5.706zm.371-6.633l32.656-4.175a22.634 22.634 0 0 0-3.896-7.7c-1.794-2.351-3.185-3.959-4.175-4.825-2.381-2.041-5.242-3.061-8.581-3.061-3.34 0-6.587 1.778-9.742 5.334-3.154 3.526-5.241 8.334-6.262 14.427zm61.88 82.29l5.52.371c2.01 0 4.608-2.165 7.793-6.494 3.185-4.299 7.561-11.829 13.128-22.591l5.705-11.04-23.75-51.072c-.34-.773-.789-1.747-1.345-2.922-.526-1.175-.866-1.964-1.021-2.366-.154-.433-.464-1.005-.927-1.716-.433-.742-.727-1.191-.882-1.345-.154-.186-.495-.464-1.02-.835-.526-.402-.959-.619-1.299-.65a80.43 80.43 0 0 0-1.716-.278 14.068 14.068 0 0 0-2.227-.185h-2.876l-.371-6.077h36.274l-.371 6.077h-3.247c-2.443 0-4.159.17-5.149.51-.989.309-1.484.85-1.484 1.623s.077 1.469.232 2.088c.185.587.355 1.098.51 1.531.186.432.449 1.066.789 1.901.371.804.618 1.361.742 1.67l16.142 36.275 11.968-26.951c4.175-9.215 6.262-14.457 6.262-15.725 0-1.299-.587-2.103-1.762-2.412-1.175-.34-3.371-.51-6.587-.51h-2.644v-6.077h30.94v6.077h-4.546c-1.732 0-2.876.092-3.433.278-.556.155-.989.263-1.299.325-.278.061-.603.293-.974.695-.371.402-.649.696-.835.882-.154.185-.417.634-.788 1.345-.34.711-.603 1.268-.789 1.67a165.723 165.723 0 0 1-2.134 4.917l-28.899 63.828c-11.596 25.575-20.657 39.753-27.182 42.537-1.763.773-3.788 1.159-6.077 1.159-2.288 0-4.128-.819-5.52-2.458-1.361-1.608-2.041-3.696-2.041-6.262 0-2.567.665-4.515 1.995-5.845 1.33-1.299 3.061-1.948 5.195-1.948z" fill="#000"/><path d="M237.12 72.317l-1.667 1.863.052.046.053.043 1.562-1.952zm-1.948-1.067l.631-2.419-.012-.003-.013-.003-.606 2.425zm-12.71-.371h-2.5v2.5h2.5v-2.5zm0-7.608v-2.5h-2.5v2.5h2.5zm45.598 0l2.496.137.145-2.636h-2.641v2.5zm-.417 7.608v2.5h2.366l.13-2.363-2.496-.137zm-12.432.835l-1.869-1.661-.026.03-.026.03 1.921 1.6zm-1.113 1.855l2.263 1.061.027-.056.024-.058-2.314-.947zm-14.38 153.633l-1.741-1.794-.007.006 1.748 1.788zm-11.829 8.906l-1.132-2.228-.008.003-.007.004 1.147 2.221zm-22.497-.046l1.367-2.093-.013-.008-.012-.008-1.342 2.109zm-2.505-11.55l2.012 1.484.004-.006-2.016-1.478zm15.122-2.737l-2.051 1.429.014.021.015.02 2.022-1.47zm2.226 3.108l2.052-1.429-.005-.006-.004-.007-2.043 1.442zm5.428 6.164c2.7 0 5.105-.95 7.106-2.78 1.946-1.781 3.418-4.307 4.532-7.364 2.216-6.087 3.247-14.941 3.247-26.357h-5c0 11.252-1.034 19.398-2.945 24.645-.951 2.61-2.059 4.334-3.21 5.387-1.095 1.003-2.302 1.469-3.73 1.469v5zm14.885-36.501V77.698h-5v116.848h5zm0-116.848c0-1.605-.079-2.989-.268-4.09a7.961 7.961 0 0 0-.437-1.616c-.195-.48-.536-1.127-1.161-1.627l-3.124 3.904c-.316-.253-.386-.49-.349-.398.025.062.083.24.143.587.12.693.196 1.752.196 3.24h5zm-1.761-7.244a7.164 7.164 0 0 0-2.984-1.623l-1.262 4.838c.299.078.599.23.912.511l3.334-3.726zm-3.009-1.63c-1.331-.332-3.531-.445-6.312-.445v5c2.848 0 4.452.134 5.1.296l1.212-4.85zm-6.312-.445h-7.004v5h7.004v-5zm-4.504 2.5V63.27h-5v7.608h5zm-2.5-5.108h45.598v-5h-45.598v5zm43.102-2.636l-.418 7.607 4.993.274.417-7.608-4.992-.273zm2.079 5.244h-6.077v5h6.077v-5zm-6.077 0c-1.912 0-3.503.07-4.721.23-.605.08-1.195.19-1.719.358-.449.143-1.204.434-1.784 1.086l3.737 3.322c-.332.374-.637.42-.432.355.13-.041.396-.104.849-.164.901-.118 2.24-.187 4.07-.187v-5zm-8.276 1.734a9.554 9.554 0 0 0-1.506 2.51l4.628 1.893c.182-.447.422-.844.719-1.202l-3.841-3.2zm-1.456 2.395c-.406.866-.616 1.939-.742 3.025-.131 1.134-.19 2.498-.19 4.067h5c0-1.462.056-2.619.157-3.494.107-.925.244-1.352.302-1.476l-4.527-2.122zm-.932 7.092v110.77h5V79.6h-5zm0 110.771c0 6.583-.354 11.72-1.028 15.469l4.922.884c.748-4.168 1.106-9.638 1.106-16.353h-5zm-1.028 15.469c-.665 3.705-1.825 6.891-3.442 9.596l4.291 2.566c1.97-3.295 3.316-7.067 4.073-11.278l-4.922-.884zm-3.442 9.596c-1.633 2.731-4.412 6.051-8.455 9.972l3.481 3.589c4.184-4.058 7.311-7.727 9.265-10.995l-4.291-2.566zm-8.462 9.978c-3.992 3.902-7.732 6.696-11.213 8.466l2.265 4.457c4.063-2.065 8.209-5.209 12.443-9.347l-3.495-3.576zm-11.228 8.473c-3.43 1.771-6.981 2.644-10.681 2.644v5c4.525 0 8.86-1.076 12.975-3.201l-2.294-4.443zm-10.681 2.644c-3.661 0-6.729-.881-9.302-2.562l-2.734 4.186c3.487 2.278 7.532 3.376 12.036 3.376v-5zm-9.327-2.578c-2.943-1.873-3.435-3.17-3.435-3.736h-5c0 3.331 2.57 5.93 5.75 7.954l2.685-4.218zm-3.435-3.736c0-1.273.453-2.667 1.6-4.221l-4.024-2.968c-1.637 2.218-2.576 4.628-2.576 7.189h5zm1.604-4.227c1.189-1.621 2.578-2.94 4.17-3.974l-2.725-4.193c-2.118 1.378-3.945 3.121-5.477 5.21l4.032 2.957zm4.17-3.974c1.728-1.124 2.773-1.406 3.277-1.406v-5c-1.971 0-4.019.924-6.002 2.213l2.725 4.193zm3.277-1.406c.674 0 1.203.186 1.679.551l3.042-3.968c-1.378-1.057-2.984-1.583-4.721-1.583v5zm1.679.551a9.107 9.107 0 0 1 1.929 2.043l4.102-2.859a14.1 14.1 0 0 0-2.989-3.152l-3.042 3.968zm1.958 2.084a277.54 277.54 0 0 1 2.206 3.08l4.085-2.884a284.107 284.107 0 0 0-2.247-3.137l-4.044 2.941zm2.197 3.066c1.9 2.73 4.366 4.736 7.479 4.736v-5c-.723 0-1.875-.437-3.376-2.593l-4.103 2.857zm66.019-100.417l1.976 1.53.004-.004-1.98-1.526zm44.206-2.784l2.271-1.045-.005-.012-2.266 1.057zm4.546 54.644l-1.872 1.656.008.01.008.009 1.856-1.675zm9.138 5.01l-.658 2.412.006.001.652-2.413zm-.696 4.174l1.294 2.14.008-.005.009-.005-1.311-2.13zm-10.715 6.309l-1.438 2.045.962.676 1.134-.309-.658-2.412zm-6.169-5.242l1.898-1.627-.011-.013-.012-.013-1.875 1.653zm-6.541-8.071l1.977-1.53-2.023-2.615-1.965 2.66 2.011 1.485zm-10.019 8.674l1.228 2.178.005-.003-1.233-2.175zm-23.936.14l-1.355 2.1.003.003 1.352-2.103zm13.081-36.136l1.031 2.278.005-.003-1.036-2.275zm19.343-4.035v2.5h2.5v-2.5h-2.5zm-3.247-22.312l-1.617 1.906.006.005 1.611-1.911zm-20.688-.511l1.24 2.171.007-.004-1.247-2.167zm-4.175 3.804l-2.257-1.075-.37.777.187.84 2.44-.542zm.789 3.108l-2.411.663.003.009 2.408-.672zm-1.16 8.767l-1.337-2.113-.01.007-.009.006 1.356 2.1zm6.309 37.713l-1.768 1.767.015.015.015.015 1.738-1.797zm14.333 1.994l-.669-2.409-.012.004.681 2.405zm6.309-4.314l-2.099-1.358-.011.017-.01.016 2.12 1.325zm1.53-23.1h2.5v-2.5h-2.5v2.5zm-18.415 6.076l1.65 1.878h.001l-1.651-1.878zm-13.87-19.431c-.707 0-.976-.207-1.205-.562-.35-.541-.701-1.673-.701-3.757h-5c0 2.462.383 4.74 1.502 6.471 1.24 1.919 3.173 2.848 5.404 2.848v-5zm-1.906-4.319c0-2.125 1.097-4.97 3.929-8.628l-3.953-3.061c-3.106 4.011-4.976 7.939-4.976 11.689h5zm3.933-8.632c5.065-6.572 13.761-10.159 26.826-10.159v-5c-13.902 0-24.41 3.834-30.786 12.106l3.96 3.053zm26.826-10.159c3.544 0 6.306.644 8.41 1.785 2.071 1.122 3.64 2.797 4.725 5.122l4.531-2.115c-1.513-3.242-3.81-5.742-6.873-7.403-3.029-1.642-6.669-2.389-10.793-2.389v5zm13.129 6.895c.716 1.555 1.116 3.472 1.116 5.82h5c0-2.91-.496-5.57-1.574-7.911l-4.542 2.091zm1.116 5.82v35.532h5v-35.532h-5zm0 35.532c0 5.93 1.075 10.789 3.829 13.902l3.745-3.313c-1.514-1.711-2.574-5.015-2.574-10.589h-5zm3.845 13.921c2.437 2.699 5.974 4.557 10.336 5.747l1.316-4.824c-3.802-1.037-6.357-2.519-7.94-4.273l-3.712 3.35zm10.342 5.748c.169.046.266.086.309.107.045.022.01.012-.061-.053a1.26 1.26 0 0 1-.379-.89h5a3.744 3.744 0 0 0-1.238-2.792c-.696-.64-1.553-.99-2.326-1.199l-1.305 4.827zm-.131-.836c0-.544.28-.727.065-.495-.185.199-.576.525-1.288.963l2.621 4.259c.896-.552 1.711-1.153 2.331-1.82.588-.634 1.271-1.622 1.271-2.907h-5zm-1.206.458a841.84 841.84 0 0 1-7.756 4.647c-.889.523-1.562.913-2.028 1.175-.236.131-.402.222-.51.278-.218.113-.054.009.214-.064l1.316 4.824c.353-.096.704-.286.772-.322.179-.093.401-.214.655-.356.511-.287 1.22-.698 2.117-1.226a837.834 837.834 0 0 0 7.807-4.677l-2.587-4.279zm-7.984 6.403c-2.747-1.932-4.609-3.54-5.709-4.824l-3.796 3.254c1.497 1.747 3.748 3.634 6.629 5.66l2.876-4.09zm-5.732-4.85c-1.555-1.764-3.697-4.405-6.439-7.948l-3.954 3.06c2.763 3.57 4.981 6.31 6.642 8.194l3.751-3.306zm-10.427-7.903c-2.304 3.12-5.367 5.787-9.242 7.985l2.467 4.349c4.413-2.503 8.03-5.618 10.797-9.363l-4.022-2.971zm-9.236 7.982c-3.92 2.21-7.087 3.156-9.58 3.156v5c3.691 0 7.729-1.372 12.036-3.801l-2.456-4.355zm-9.58 3.156c-2.933 0-5.205-.269-6.885-.741l-1.353 4.813c2.278.641 5.047.928 8.238.928v-5zm-6.885-.741a18.024 18.024 0 0 1-4.891-2.201l-2.704 4.206a23.004 23.004 0 0 0 6.242 2.808l1.353-4.813zm-4.888-2.199c-3.042-1.963-4.607-4.866-4.607-9.125h-5c0 5.76 2.269 10.341 6.897 13.326l2.71-4.201zm-4.607-9.125c0-4.443 1.459-8.673 4.51-12.741l-4-3c-3.629 4.839-5.51 10.103-5.51 15.741h5zm4.51-12.741c3.05-4.066 7.3-7.377 12.854-9.891l-2.062-4.555c-6.197 2.805-11.162 6.607-14.792 11.446l4 3zm12.859-9.894c5.557-2.531 11.648-3.81 18.307-3.81v-5c-7.318 0-14.123 1.41-20.379 4.26l2.072 4.55zm20.807-6.31v-11.411h-5v11.411h5zm0-11.411c0-5.563-1.063-10.223-4.135-12.813l-3.223 3.823c1.257 1.06 2.358 3.666 2.358 8.99h5zm-4.129-12.808c-2.604-2.209-5.952-3.191-9.782-3.191v5c2.974 0 5.069.75 6.547 2.004l3.235-3.813zm-9.782-3.191c-3.443 0-6.307.203-8.522.653l.995 4.9c1.743-.354 4.229-.553 7.527-.553v-5zm-8.522.653c-2.083.423-3.887.984-5.25 1.768l2.495 4.333c.679-.391 1.874-.82 3.75-1.201l-.995-4.9zm-5.242 1.764c-2.32 1.325-4.245 2.911-5.192 4.899l4.514 2.15c.291-.61 1.148-1.559 3.158-2.708l-2.48-4.341zm-5.375 6.516c.197.89.472 1.97.818 3.229l4.821-1.326a63.41 63.41 0 0 1-.758-2.987l-4.881 1.084zm.821 3.238c.745 2.669 1.021 4.255 1.021 4.987h5c0-1.494-.466-3.681-1.205-6.331l-4.816 1.344zm1.021 4.987c0-.052.029-.021-.086.136-.136.186-.433.486-1.024.859l2.674 4.226c1.781-1.127 3.436-2.821 3.436-5.221h-5zm-1.129 1.008c-1.326.856-2.104 1.038-2.448 1.038v5c1.759 0 3.517-.777 5.16-1.838l-2.712-4.2zm2.428 33.318c0 3.19 1.191 5.985 3.469 8.262l3.535-3.535c-1.371-1.372-2.004-2.907-2.004-4.727h-5zm3.499 8.292c2.402 2.322 5.509 3.393 9.067 3.393v-5c-2.504 0-4.283-.723-5.592-1.988l-3.475 3.595zm9.067 3.393c3.111 0 5.716-.233 7.685-.79l-1.362-4.811c-1.309.37-3.374.601-6.323.601v5zm7.673-.787c1.844-.512 3.474-1.207 4.764-2.164l-2.98-4.015c-.627.465-1.626.946-3.122 1.361l1.338 4.818zm4.764-2.164a11.786 11.786 0 0 0 2.996-3.234l-4.24-2.65a6.779 6.779 0 0 1-1.736 1.869l2.98 4.015zm2.975-3.201c1.305-2.016 1.931-4.306 1.931-6.785h-5c0 1.602-.393 2.931-1.129 4.069l4.198 2.716zm1.931-6.785v-17.673h-5v17.673h5zm-2.5-20.173c-8.119 0-14.896 2.153-20.066 6.699l3.302 3.755c4.045-3.557 9.545-5.454 16.764-5.454v-5zm-20.065 6.698c-4.746 4.17-7.344 9.096-7.344 14.727h5c0-3.893 1.731-7.533 5.644-10.971l-3.3-3.756zm54.067-39.36l-.398-2.468-2.172.35.071 2.2 2.499-.082zm26.765-5.705h2.5v-3.268l-3.154.855.654 2.413zm1.67 70.183l.937-2.318-.015-.006-.016-.006-.906 2.33zm13.545.881h2.5v-2.5h-2.5v2.5zm0 6.077v2.5h2.5V190h-2.5zm-41.238 0h-2.5v2.5h2.5V190zm0-6.077v-2.5h-2.5v2.5h2.5zm11.272-.788l1.667 1.863.021-.019.02-.019-1.708-1.825zm.835-59.143l-2.253 1.084.009.017.008.017 2.236-1.118zm-12.664.278l-2.498.081.095 2.939 2.885-.567-.482-2.453zm16.839-41.84l-1.921 1.6.012.014.013.014 1.896-1.629zm.232-10.391l-1.726-1.81 1.726 1.81zm9.88.139l-1.714 1.82.006.006.007.006 1.701-1.832zm-.046 10.298l-1.755-1.78-.007.006-.006.006 1.768 1.768zm-26.692 38.557c9.48-1.528 18.487-3.448 27.021-5.761l-1.308-4.826c-8.351 2.264-17.187 4.148-26.509 5.65l.796 4.937zm23.867-8.174v65.915h5v-65.915h-5zm0 65.915c0 1.359.151 2.667.589 3.787.458 1.17 1.296 2.275 2.675 2.811l1.812-4.66c.266.103.269.28.17.027-.119-.302-.246-.911-.246-1.965h-5zm3.233 6.586c1.097.443 2.623.684 4.338.834 1.786.155 4.03.229 6.711.229v-5c-2.607 0-4.692-.072-6.277-.211-1.656-.144-2.541-.344-2.898-.488l-1.874 4.636zm11.049 1.063h3.433v-5h-3.433v5zm.933-2.5V190h5v-6.077h-5zm2.5 3.577h-41.238v5h41.238v-5zm-38.738 2.5v-6.077h-5V190h5zm-2.5-3.577h1.716v-5h-1.716v5zm1.716 0c2.915 0 5.237-.065 6.932-.205.842-.07 1.591-.162 2.208-.291a6.52 6.52 0 0 0 .945-.264 3.562 3.562 0 0 0 1.138-.665l-3.334-3.726c.147-.131.274-.206.338-.241.068-.037.112-.053.116-.055.002-.001-.063.022-.226.057-.327.068-.845.14-1.596.202-1.491.123-3.653.188-6.521.188v5zm11.264-1.463c1.532-1.433 2.23-3.32 2.23-5.397h-5c0 .892-.261 1.386-.646 1.746l3.416 3.651zm2.23-5.397v-50.747h-5v50.747h5zm0-50.747c0-1.265-.052-2.382-.17-3.325-.112-.898-.306-1.835-.697-2.617l-4.472 2.236c-.005-.011.028.055.074.242.045.18.092.429.134.759.083.665.131 1.558.131 2.705h5zm-.851-5.909c-1.019-2.117-3.178-2.668-4.989-2.668v5c.236 0 .41.018.531.04a.779.779 0 0 1 .18.047c.002.001-.039-.019-.096-.072a.66.66 0 0 1-.131-.178l4.505-2.169zm-4.989-2.668c-1.718 0-5.291.573-10.408 1.578l.963 4.906c5.274-1.036 8.318-1.484 9.445-1.484v-5zm-7.428 3.95l-.185-5.706-4.998.163.186 5.705 4.997-.162zm19.164-40.966c.022 0-.222.002-.794-.388-.559-.382-1.271-1.03-2.134-2.035l-3.792 3.258c1.023 1.192 2.058 2.19 3.107 2.906 1.036.707 2.262 1.259 3.613 1.259v-5zm-2.904-2.394c-1.817-2.181-2.203-3.39-2.203-3.827h-5c0 2.345 1.469 4.755 3.362 7.028l3.841-3.201zm-2.203-3.827c0-.282.294-1.298 2.24-3.154l-3.451-3.618c-2.074 1.978-3.789 4.27-3.789 6.772h5zm2.24-3.154c.928-.886 1.682-1.47 2.269-1.819.612-.365.861-.366.83-.366v-5c-1.237 0-2.395.478-3.391 1.071-1.021.61-2.077 1.464-3.159 2.496l3.451 3.618zm3.099-2.185c-.024 0 .25.006.911.4.631.376 1.438 1 2.431 1.934l3.428-3.639c-1.141-1.075-2.243-1.96-3.298-2.589-1.024-.61-2.212-1.106-3.472-1.106v5zm3.355 2.347c.994.923 1.645 1.686 2.033 2.29.397.62.415.908.415.934h5c0-1.335-.523-2.569-1.208-3.636-.694-1.08-1.667-2.165-2.838-3.252l-3.402 3.664zm2.448 3.224c0-.01.002.061-.06.235a3.932 3.932 0 0 1-.38.743c-.409.65-1.088 1.477-2.108 2.483l3.51 3.56c1.175-1.157 2.143-2.287 2.832-3.383.672-1.07 1.206-2.31 1.206-3.638h-5zm-2.561 3.474c-1.006 1.005-1.831 1.674-2.483 2.078a3.957 3.957 0 0 1-.745.375c-.176.062-.252.062-.246.062v5c1.319 0 2.554-.524 3.624-1.187 1.096-.679 2.226-1.633 3.385-2.793l-3.535-3.535zm60.029 101.87v-2.5h-2.563l.064 2.563 2.499-.063zm13.035-8.535l-2.28-1.025-.004.01 2.284 1.015zm5.798-12.942l-2.279-1.026-.003.006 2.282 1.02zm8.999-19.993l2.28 1.026.002-.003-2.282-1.023zm12.015-26.579l2.268 1.051.005-.01-2.273-1.041zm2.412-5.381l2.301.976-2.301-.976zm1.438-3.34l2.291.999.011-.024.01-.025-2.312-.95zm19.343-47.082v-2.5h-1.676l-.636 1.55 2.312.95zm3.989 0l2.335-.895-.616-1.605h-1.719v2.5zm29.085 72.595l-2.311.954v.001l2.311-.955zm23.239 50.376l-1.03 2.278.01.004.01.004 1.01-2.286zm8.304.881l2.499.063.064-2.563h-2.563v2.5zm-.186 7.422v2.5h2.438l.061-2.438-2.499-.062zm-43.325 0l-2.499-.062-.064 2.562h2.563V190zm.185-7.422v-2.5h-2.438l-.061 2.438 2.499.062zm12.247-.371l.502 2.449.03-.006.03-.007-.562-2.436zm.927-5.103l-2.334.895.011.03.013.03 2.31-.955zm-1.02-2.69l2.349-.854-.016-.044-.017-.044-2.316.942zm-14.055-34.558l2.315-.942-.633-1.558h-1.682v2.5zm-44.068 0v-2.5h-1.617l-.663 1.475 2.28 1.025zm-15.029 33.445l-2.28-1.025-.017.038-.016.038 2.313.949zm-.464 8.767l-.836 2.356.012.004.011.004.813-2.364zm14.148.51h2.5v-2.5h-2.5v2.5zm0 7.422v2.5h2.5V190h-2.5zm-36.831 0l-2.499.062.061 2.438h2.438V190zm41.794-58.54l-2.299-.981-1.486 3.481h3.785v-2.5zm37.249 0v2.5h3.696l-1.376-3.431-2.32.931zm-18.044-44.995l2.32-.93-2.249-5.607-2.371 5.556 2.3.98zm-61.185 98.613h2.273v-5h-2.273v5zm2.273 0c1.827 0 3.472-.156 4.882-.52 1.399-.362 2.728-.971 3.728-1.999l-3.582-3.488c-.144.148-.523.42-1.397.646-.864.223-2.055.361-3.631.361v5zm8.61-2.519c1.481-1.52 2.943-4.141 4.437-7.501l-4.569-2.03c-1.476 3.319-2.642 5.213-3.45 6.043l3.582 3.488zm4.432-7.491c1.517-3.373 3.45-7.689 5.801-12.947l-4.565-2.04c-2.35 5.256-4.282 9.568-5.796 12.937l4.56 2.05zm5.798-12.94c2.381-5.289 5.381-11.953 8.999-19.994l-4.559-2.052c-3.618 8.041-6.618 14.705-8.999 19.993l4.559 2.053zm9.001-19.997c3.618-8.071 6.23-13.882 7.836-17.434l-4.556-2.06c-1.61 3.56-4.225 9.377-7.843 17.449l4.563 2.045zm7.836-17.434a1099.31 1099.31 0 0 1 4.165-9.117l-4.537-2.102a1114.075 1114.075 0 0 0-4.184 9.159l4.556 2.06zm4.17-9.127c1.174-2.566 1.992-4.389 2.44-5.446l-4.603-1.952c-.417.984-1.208 2.748-2.383 5.316l4.546 2.082zm2.44-5.446c.429-1.011.905-2.117 1.428-3.317l-4.583-1.998a384.363 384.363 0 0 0-1.448 3.363l4.603 1.952zm1.449-3.366l19.343-47.082-4.624-1.9-19.344 47.082 4.625 1.9zm17.031-45.532h3.989v-5h-3.989v5zm1.655-1.606c7.679 20.035 17.383 44.254 29.108 72.655l4.622-1.908c-11.716-28.377-21.402-52.554-29.061-72.536l-4.669 1.79zm29.108 72.656c5.861 14.18 10.414 25.112 13.657 32.79 3.21 7.601 5.197 12.159 5.884 13.447l4.412-2.353c-.551-1.032-2.422-5.302-5.69-13.04-3.236-7.66-7.782-18.577-13.642-32.754l-4.621 1.91zm19.541 46.237c1.305 2.448 2.903 4.522 4.979 5.462l2.061-4.556c-.522-.236-1.46-1.068-2.628-3.259l-4.412 2.353zm4.999 5.47c1.782.788 4 1.095 6.484 1.095v-5c-2.155 0-3.585-.28-4.463-.668l-2.021 4.573zm6.484 1.095h2.83v-5h-2.83v5zm.33-2.562l-.185 7.422 4.998.124.186-7.421-4.999-.125zm2.314 4.984H519.94v5h43.325v-5zm-40.826 2.562l.186-7.421-4.999-.125-.185 7.422 4.998.124zm-2.314-4.984h5.706v-5h-5.706v5zm5.706 0c3.141 0 5.558-.117 7.043-.422l-1.005-4.898c-.927.19-2.871.32-6.038.32v5zm7.103-.435c.89-.206 1.854-.607 2.606-1.397.802-.844 1.141-1.896 1.141-2.941h-5a.6.6 0 0 1 .043-.195.935.935 0 0 1 .193-.31c.149-.157.208-.102-.108-.029l1.125 4.872zm3.747-4.338c0-1.24-.47-2.7-1.071-4.155l-4.621 1.909c.574 1.39.692 2.064.692 2.246h5zm-1.047-4.095c-.56-1.461-.891-2.335-1.006-2.65l-4.699 1.708c.133.365.482 1.286 1.036 2.731l4.669-1.789zm-1.039-2.738l-14.056-34.558-4.631 1.884 14.055 34.558 4.632-1.884zm-16.371-36.116h-44.068v5h44.068v-5zm-46.348 1.475l-15.029 33.445 4.56 2.05 15.03-33.445-4.561-2.05zm-15.062 33.521c-.652 1.591-1.162 2.987-1.511 4.173-.338 1.143-.578 2.257-.578 3.224h5c0-.24.077-.804.373-1.81.285-.963.726-2.188 1.342-3.69l-4.626-1.897zm-2.089 7.397c0 .92.182 1.91.735 2.801.574.926 1.42 1.538 2.367 1.874l1.672-4.712c-.019-.007.012.001.065.043.057.043.108.1.145.161.074.118.016.118.016-.167h-5zm3.125 4.683c.806.277 1.844.422 2.944.511 1.151.092 2.565.135 4.224.135v-5c-1.588 0-2.856-.042-3.824-.119-1.018-.082-1.535-.192-1.718-.255l-1.626 4.728zm7.168.646h7.793v-5h-7.793v5zm5.293-2.5V190h5v-7.422h-5zm2.5 4.922H435.98v5h36.831v-5zm-34.332 2.438l-.185-7.422-4.999.125.186 7.421 4.998-.124zm39.295-55.978h37.249v-5h-37.249v5zm39.569-3.431l-18.044-44.995-4.641 1.861 18.045 44.995 4.64-1.861zm-22.664-45.045l-19.204 44.995 4.599 1.962 19.204-44.995-4.599-1.962zm77.075 39.157h-2.5v3.022l2.968-.566-.468-2.456zm0-5.891l-.356-2.475-2.144.309v2.166h2.5zm21.755-4.268l.537 2.442.003-.001-.54-2.441zm4.824-1.066l2.496.143.19-3.298-3.225.714.539 2.441zm-.371 13.869h-2.5v4.186l3.686-1.985-1.186-2.201zm7.19-5.102l1.396 2.074.009-.006-1.405-2.068zm5.567-3.34l1.183 2.202.013-.007.013-.007-1.209-2.188zm19.853-2.691l-1.037 2.275.024.011.024.01.989-2.296zm4.175 2.644l-1.768 1.768.028.028.028.027 1.712-1.823zm2.691 3.479l-2.174 1.235.013.023.013.023 2.148-1.281zm2.133 4.825l-2.422.618.926 3.626 2.995-2.243-1.499-2.001zm17.256-10.437l-.725-2.393-.006.002.731 2.391zm20.225 1.438l-1.5 2 .028.02.028.021 1.444-2.041zm3.247 3.479l-2.115 1.333.01.016.011.016 2.094-1.365zm2.087 4.174l-2.366.807.008.024.009.024 2.349-.855zm1.16 4.778l-2.472.377.003.017.003.017 2.466-.411zm2.319 52.742l1.002-2.29-.02-.009-.02-.009-.962 2.308zm10.716.649h2.5v-2.5h-2.5v2.5zm0 6.077v2.5h2.5V190h-2.5zm-36.878 0h-2.5v2.5h2.5V190zm0-6.077v-2.5h-2.5v2.5h2.5zm9.463-.603l.829 2.359.018-.006.017-.007-.864-2.346zm-4.731-57.148l-.724 2.393.018.005.019.006.687-2.404zm-11.504.046l-.504-2.448-.008.001.512 2.447zm-5.288 1.577l-.979-2.3-.009.004-.009.004.997 2.292zm-7.144 4.082l-1.53-1.976-1.139.881.191 1.427 2.478-.332zm3.989 51.907l-.276 2.485.04.004.04.003.196-2.492zm7.979.139h2.5v-2.5h-2.5v2.5zm0 6.077v2.5h2.5V190h-2.5zm-36.089 0l-2.499.076.074 2.424h2.425V190zm-.186-6.077v-2.5h-2.577l.079 2.577 2.498-.077zm8.907-54.736l-1.97 1.54.011.014.011.014 1.948-1.568zm-26.766 2.505l-1.362-2.096-1.138.739v1.357h2.5zm.882 51.443l-.864 2.346.019.007.019.006.826-2.359zm2.226.556l-.439 2.461.032.006.033.005.374-2.472zm7.933.232h2.5v-2.5h-2.5v2.5zm0 6.077v2.5h2.5V190h-2.5zm-37.063 0l-2.499.076.074 2.424h2.425V190zm-.186-6.077v-2.5h-2.578l.079 2.577 2.499-.077zm11.458-.695l1.118 2.236.014-.008.014-.007-1.146-2.221zm.974-58.726l-2.433.576.007.03.008.03 2.418-.636zm-2.552-4.263c-.209 0-.405.03-.405.03l-.21.031c-.143.023-.333.056-.563.096-.462.081-1.123.202-1.98.361-1.715.318-4.236.794-7.561 1.428l.936 4.912c3.324-.634 5.835-1.108 7.537-1.424.853-.158 1.496-.275 1.935-.353a23.548 23.548 0 0 1 .572-.096c.073-.009-.074.015-.261.015v-5zm-7.751 4.402v-5.891h-5v5.891h5zm-2.144-3.416c4.613-.664 11.942-2.104 21.936-4.301l-1.073-4.883c-9.984 2.194-17.158 3.599-21.575 4.234l.712 4.95zm21.939-4.302l4.824-1.066-1.079-4.882-4.825 1.066 1.08 4.882zm1.789-3.651c-.251 4.353-.376 9.024-.376 14.013h5c0-4.907.123-9.482.367-13.726l-4.991-.287zm3.31 16.214c.607-.327 1.673-1.096 3.012-2.108l-3.014-3.989a70.27 70.27 0 0 1-1.653 1.217 16.983 16.983 0 0 1-.659.444l-.057.034 2.371 4.402zm3.012-2.108a98.276 98.276 0 0 1 4.388-3.121l-2.792-4.148a103.548 103.548 0 0 0-4.61 3.28l3.014 3.989zm4.397-3.127c1.556-1.057 3.336-2.126 5.345-3.206l-2.367-4.404c-2.134 1.146-4.065 2.304-5.787 3.474l2.809 4.136zm5.371-3.22c4.528-2.502 8.129-3.585 10.898-3.585v-5c-3.974 0-8.444 1.516-13.316 4.209l2.418 4.376zm10.898-3.585c3.274 0 5.431.398 6.709.981l2.075-4.549c-2.248-1.025-5.255-1.432-8.784-1.432v5zm6.757 1.002c1.609.694 2.7 1.42 3.396 2.116l3.536-3.535c-1.283-1.283-2.976-2.32-4.953-3.172l-1.979 4.591zm3.452 2.171c.818.768 1.565 1.723 2.229 2.891l4.347-2.47c-.882-1.553-1.929-2.917-3.152-4.066l-3.424 3.645zm2.255 2.937c.971 1.627 1.565 3.009 1.859 4.162l4.845-1.237c-.448-1.754-1.277-3.587-2.409-5.486l-4.295 2.561zm5.78 5.545c7.774-5.823 13.212-9.046 16.488-10.048l-1.462-4.781c-4.207 1.286-10.273 5.022-18.023 10.827l2.997 4.002zm16.483-10.046c3.673-1.114 6.465-1.609 8.459-1.609v-5c-2.707 0-6.039.65-9.91 1.824l1.451 4.785zm8.459-1.609c2.144 0 4.006.269 5.611.769l1.487-4.774c-2.167-.675-4.542-.995-7.098-.995v5zm5.611.769c1.686.525 2.973 1.169 3.929 1.886l3-4c-1.519-1.139-3.355-2.01-5.442-2.66l-1.487 4.774zm3.985 1.927c.978.692 1.84 1.603 2.576 2.771l4.23-2.667c-1.058-1.677-2.361-3.085-3.919-4.186l-2.887 4.082zm2.597 2.803c.834 1.279 1.429 2.484 1.815 3.616l4.733-1.613c-.542-1.59-1.339-3.168-2.36-4.734l-4.188 2.731zm1.832 3.664c.425 1.17.778 2.596 1.037 4.3l4.943-.754c-.296-1.945-.717-3.704-1.281-5.255l-4.699 1.709zm1.043 4.334c.403 2.419.615 5.442.615 9.099h5c0-3.828-.22-7.144-.683-9.921l-4.932.822zm.615 9.099v39.15h5v-39.15h-5zm0 39.15c0 2.353.54 5.278 3.209 6.39l1.923-4.616c.187.078.185.201.1-.007-.108-.263-.232-.807-.232-1.767h-5zm3.168 6.372c.943.413 2.341.585 3.764.69 1.557.115 3.582.169 6.052.169v-5c-2.416 0-4.303-.053-5.684-.155a18.885 18.885 0 0 1-1.614-.176c-.428-.071-.553-.126-.514-.108l-2.004 4.58zm9.816.859h1.902v-5h-1.902v5zm-.598-2.5V190h5v-6.077h-5zm2.5 3.577h-36.878v5h36.878v-5zm-34.378 2.5v-6.077h-5V190h5zm-2.5-3.577c2.607 0 4.746-.05 6.398-.155 1.554-.099 2.954-.259 3.894-.589l-1.658-4.717c-.204.072-.953.214-2.554.316-1.502.095-3.522.145-6.08.145v5zm10.327-.757c2.776-1.022 3.399-3.91 3.399-6.289h-5c0 .913-.128 1.4-.223 1.613-.041.091-.06.096-.029.065a.398.398 0 0 1 .125-.081l1.728 4.692zm3.399-6.289v-39.335h-5v39.335h5zm0-39.335c0-4.185-.559-7.756-1.86-10.535-1.343-2.869-3.49-4.894-6.448-5.739l-1.373 4.808c1.372.392 2.472 1.297 3.293 3.051.864 1.845 1.388 4.589 1.388 8.415h5zm-8.271-16.263c-1.654-.5-3.656-.71-5.919-.71v5c2.005 0 3.467.192 4.472.496l1.447-4.786zm-5.919-.71c-2.275 0-4.547.234-6.812.701l1.008 4.897c1.94-.4 3.874-.598 5.804-.598v-5zm-6.82.702c-2.182.456-4.11 1.024-5.755 1.724l1.957 4.601c1.262-.537 2.859-1.021 4.821-1.431l-1.023-4.894zm-5.773 1.732c-2.985 1.298-5.558 2.757-7.677 4.398l3.06 3.953c1.715-1.328 3.906-2.59 6.61-3.766l-1.993-4.585zm-8.625 6.706c.507 3.79.767 8.236.767 13.353h5c0-5.275-.267-9.951-.811-14.016l-4.956.663zm.767 13.353v35.114h5v-35.114h-5zm0 35.114c0 .883.09 1.809.402 2.641.327.87.984 1.837 2.182 2.293l1.78-4.672c.244.093.435.24.565.388a1.038 1.038 0 0 1 .155.235.484.484 0 0 1-.016-.056 2.248 2.248 0 0 1-.031-.174 4.819 4.819 0 0 1-.037-.655h-5zm2.584 4.934c.883.337 1.837.547 2.84.659l.552-4.97c-.667-.074-1.196-.203-1.612-.361l-1.78 4.672zm2.92.666c1.285.102 3.479.147 6.505.147v-5c-3.036 0-5.047-.047-6.112-.131l-.393 4.984zm6.505.147h1.67v-5h-1.67v5zm-.83-2.5V190h5v-6.077h-5zm2.5 3.577h-36.089v5h36.089v-5zm-33.59 2.424l-.186-6.077-4.997.153.185 6.076 4.998-.152zm-2.685-3.501h2.273v-5h-2.273v5zm2.273 0c3.856 0 6.781-.153 8.379-.604l-1.357-4.812c-.814.23-3.022.416-7.022.416v5zm8.379-.604c1.038-.292 2.022-.872 2.718-1.853.681-.96.913-2.063.913-3.104h-5c0 .158-.018.24-.025.267-.006.022-.002-.006.033-.055a.414.414 0 0 1 .1-.1c.018-.012-.003.007-.096.033l1.357 4.812zm3.631-4.957v-40.82h-5v40.82h5zm0-40.82c0-5.112-.997-9.403-3.429-12.423l-3.895 3.136c1.403 1.742 2.324 4.687 2.324 9.287h5zm-3.407-12.395c-2.583-3.302-6.91-4.578-12.082-4.578v5c4.539 0 6.953 1.136 8.143 2.658l3.939-3.08zm-12.082-4.578c-5.506 0-11.539 2.316-18.015 6.527l2.725 4.192c6.079-3.953 11.148-5.719 15.29-5.719v-5zm-19.153 8.623v48.057h5v-48.057h-5zm0 48.057c0 1.099.076 2.139.301 3.007.184.705.688 2.161 2.217 2.725l1.728-4.692c.483.178.742.49.841.642.09.137.086.192.053.065-.068-.261-.14-.806-.14-1.747h-5zm2.556 5.745c.779.273 1.657.488 2.613.658l.879-4.922c-.776-.138-1.382-.294-1.84-.455l-1.652 4.719zm2.678.669c1.244.189 3.768.26 7.332.26v-5c-3.671 0-5.786-.083-6.583-.203l-.749 4.943zm7.332.26h.975v-5h-.975v5zm-1.525-2.5V190h5v-6.077h-5zm2.5 3.577h-37.063v5h37.063v-5zm-34.565 2.424l-.185-6.077-4.998.153.186 6.076 4.997-.152zm-2.684-3.501h5.334v-5h-5.334v5zm5.334 0c1.628 0 3.03-.059 4.179-.19 1.084-.123 2.19-.333 3.063-.769l-2.237-4.473c.003-.001-.095.046-.356.107-.25.059-.59.117-1.034.167-.892.102-2.088.158-3.615.158v5zm7.27-.974c2.258-1.165 2.792-3.621 2.792-5.7h-5c0 .72-.099 1.11-.17 1.283-.053.127-.045.041.085-.026l2.293 4.443zm2.792-5.7V132.48h-5v47.269h5zm0-47.269c0-2.097-.039-3.85-.121-5.247-.078-1.348-.203-2.521-.426-3.367l-4.835 1.272c.086.329.193 1.073.27 2.385.073 1.263.112 2.911.112 4.957h5zm-.532-8.554c-.256-1.082-.84-2.099-1.858-2.803-.973-.672-2.092-.884-3.126-.884v5c.188 0 .292.02.334.031.038.01.01.008-.05-.033a.535.535 0 0 1-.087-.075.541.541 0 0 1-.067-.083c-.032-.05-.026-.062-.011-.001l4.865-1.152zm123.832 62.085l-2.499-.055-.001.027v.028h2.5zm.557-25.467l2.499.055.001-.027v-.028h-2.5zm-13.499-96.716l-2.489.235.267 2.822 2.766-.617-.544-2.44zm-.556-5.891l-.429-2.463-2.278.396.218 2.302 2.489-.235zm27.368-5.288h2.5v-3.047l-2.988.595.488 2.452zm0 73.523h-2.5v4.858l3.953-2.824-1.453-2.034zm1.948-1.577l-1.568-1.947-.014.011-.013.011 1.595 1.925zm3.108-2.459l1.531 1.977.008-.007-1.539-1.97zm4.036-2.69l1.286 2.144.011-.007-1.297-2.137zm5.102-2.644l.98 2.3.003-.001-.983-2.299zm27.971.371l-1.003 2.29.005.002.998-2.292zm10.948 7.978l1.93-1.589-.001-.001-1.929 1.59zm-5.984 57.705l1.665 1.866.004-.005-1.669-1.861zm-38.965 6.866l.876-2.342-.008-.003-.007-.002-.861 2.347zm-8.164-58.262l-1.612-1.911-.888.749v1.162h2.5zm13.22 52.556l.584-2.431-.004-.001-.58 2.432zm17.07-.557l-.707-2.397-.011.003.718 2.394zm5.242-2.133l-1.168-2.211-.008.005-.009.005 1.185 2.201zm8.721-8.582l2.168 1.244.004-.007.004-.007-2.176-1.23zm2.412-27.322l-2.432.58.001.005 2.431-.585zm-12.524-17.719l-1.204 2.191.026.014.026.013 1.152-2.218zm-5.01-2.088l.714-2.395-.001-.001-.713 2.396zm-40.501 60.45l.556-25.466-4.998-.109-.557 25.466 4.999.109zm.557-25.521V67.446h-5v93.098h5zm0-93.098c0-2.016-.221-3.881-.893-5.33-.35-.756-.869-1.497-1.635-2.048a4.425 4.425 0 0 0-2.616-.827v5a.594.594 0 0 1-.303-.114c-.105-.076-.073-.103.018.091.209.453.429 1.44.429 3.228h5zm-5.144-8.205c-.784 0-2.196.233-3.928.567-1.844.354-4.338.882-7.47 1.58l1.087 4.88c3.114-.693 5.553-1.21 7.327-1.55a55.748 55.748 0 0 1 2.122-.375c.265-.04.473-.067.63-.084.168-.017.235-.018.232-.018v-5zm-8.366 4.352l-.556-5.891-4.978.47.556 5.891 4.978-.47zm-2.617-3.193c4.303-.748 13.457-2.517 27.428-5.3l-.976-4.903c-13.985 2.785-23.077 4.541-27.309 5.277l.857 4.926zm24.44-7.751v73.523h5V52.649h-5zm3.953 75.557c.309-.22 1.046-.821 2.09-1.686l-3.19-3.85c-.538.445-.963.794-1.277 1.049a42.02 42.02 0 0 1-.377.302l-.113.087-.039.03 2.906 4.068zm2.063-1.664a201.74 201.74 0 0 1 3.071-2.429l-3.061-3.954a211.27 211.27 0 0 0-3.146 2.489l3.136 3.894zm3.079-2.436c.877-.685 2.126-1.522 3.783-2.516l-2.573-4.288c-1.744 1.047-3.186 2.003-4.288 2.864l3.078 3.94zm3.794-2.523a37.65 37.65 0 0 1 4.785-2.481l-1.959-4.6a42.75 42.75 0 0 0-5.421 2.807l2.595 4.274zm4.788-2.482c3.699-1.582 7.904-2.397 12.655-2.397v-5c-5.33 0-10.217.917-14.62 2.799l1.965 4.598zm12.655-2.397c4.703 0 9.138.921 13.33 2.759l2.007-4.58c-4.839-2.121-9.959-3.179-15.337-3.179v5zm13.335 2.761c4.238 1.845 7.549 4.282 10.016 7.276l3.859-3.18c-3.037-3.685-7.024-6.567-11.879-8.68l-1.996 4.584zm10.016 7.276c5.229 6.35 7.872 13.97 7.872 22.995h5c0-10.086-2.985-18.855-9.012-26.174l-3.86 3.179zm7.872 22.995c0 12.776-4.531 23.128-13.596 31.26l3.339 3.721c10.171-9.123 15.257-20.852 15.257-34.981h-5zm-13.591 31.255c-6.107 5.451-13.734 8.225-23.059 8.225v5c10.405 0 19.26-3.132 26.389-9.494l-3.33-3.731zm-23.059 8.225c-5.788 0-10.201-.653-13.365-1.836l-1.752 4.683c3.949 1.477 9.03 2.153 15.117 2.153v-5zm-13.38-1.841c-3.381-1.241-6.051-2.181-7.997-2.814a47.623 47.623 0 0 0-2.435-.735c-.546-.145-1.25-.315-1.84-.315v5c-.157 0-.061-.016.56.148.52.138 1.238.354 2.169.657 1.858.604 4.46 1.519 7.821 2.753l1.722-4.694zm-12.272-3.864c-1.038 0-2.037.416-2.827.829-.86.449-1.813 1.079-2.843 1.847l2.99 4.008c.918-.686 1.635-1.145 2.167-1.423.601-.314.716-.261.513-.261v-5zm-5.67 2.676c-.908.677-1.627 1.13-2.174 1.403-.59.295-.781.281-.691.281v5c1.048 0 2.063-.377 2.927-.809.906-.453 1.887-1.091 2.928-1.867l-2.99-4.008zm-2.865 1.684c.112 0 .317.038.515.176.177.123.21.23.174.155-.04-.083-.115-.289-.177-.678-.061-.381-.1-.88-.1-1.513h-5c0 1.573.176 3.114.767 4.349.312.652.78 1.304 1.479 1.79.72.501 1.533.721 2.342.721v-5zm33.63-65.915c-9.47 0-17.371 2.456-23.46 7.593l3.224 3.822c4.982-4.203 11.646-6.415 20.236-6.415v-5zm-24.348 9.504v39.939h5V131.46h-5zm0 39.939c0 3.81 1.362 7.101 4.079 9.694 2.643 2.522 6.419 4.247 11.061 5.355l1.16-4.864c-4.171-.995-7.005-2.424-8.769-4.108-1.69-1.612-2.531-3.579-2.531-6.077h-5zm15.137 15.048c2.476.594 4.838.904 7.077.904v-5c-1.781 0-3.748-.247-5.91-.766l-1.167 4.862zm7.077.904c2.113 0 4.023-.096 5.72-.295l-.585-4.966c-1.457.171-3.165.261-5.135.261v5zm5.72-.295c1.748-.206 3.609-.612 5.575-1.202l-1.437-4.789c-1.745.524-3.317.86-4.723 1.025l.585 4.966zm5.564-1.199a29.838 29.838 0 0 0 5.719-2.33l-2.37-4.402a24.893 24.893 0 0 1-4.764 1.937l1.415 4.795zm5.702-2.321c1.874-.99 3.653-2.311 5.341-3.932l-3.462-3.607c-1.404 1.348-2.811 2.377-4.215 3.118l2.336 4.421zm5.341-3.932a24.956 24.956 0 0 0 4.38-5.616l-4.337-2.488a19.948 19.948 0 0 1-3.505 4.497l3.462 3.607zm4.388-5.63c2.641-4.672 3.942-9.879 3.942-15.563h-5c0 4.892-1.111 9.24-3.295 13.103l4.353 2.46zm3.942-15.563c0-5.422-.407-9.968-1.275-13.574l-4.862 1.17c.74 3.074 1.137 7.187 1.137 12.404h5zm-1.274-13.569c-.84-3.519-1.932-6.529-3.323-8.963l-4.341 2.48c1.083 1.896 2.032 4.421 2.8 7.643l4.864-1.16zm-3.323-8.963c-1.353-2.368-2.987-4.466-4.905-6.281l-3.437 3.631c1.546 1.463 2.88 3.169 4.001 5.13l4.341-2.48zm-4.905-6.281c-1.851-1.752-3.708-3.144-5.576-4.114l-2.304 4.437c1.348.7 2.83 1.782 4.443 3.308l3.437-3.631zm-5.525-4.087a28.034 28.034 0 0 0-5.499-2.291l-1.429 4.791a23.003 23.003 0 0 1 4.521 1.883l2.407-4.383zm-5.5-2.292c-2.784-.829-5.454-1.263-7.996-1.263v5c1.973 0 4.159.338 6.57 1.055l1.426-4.792zm55.461 23.827l-.297-2.482-2.055.245-.142 2.065 2.494.172zm-.185 2.69l-2.495-.172-.005.086v.086h2.5zm16.977 27.832l.91-2.328-.91 2.328zm19.158 1.067l-.586-2.43.586 2.43zm6.448-2.226l1.118 2.236.007-.004.008-.004-1.133-2.228zm4.731-2.644l-1.306-2.132-.007.004-.008.005 1.321 2.123zm1.438 7.607l1.638 1.888.008-.006.008-.007-1.654-1.875zm-7.19 5.195l-1.301-2.135-.011.007 1.312 2.128zm-46.016-4.174l-1.841 1.69.007.008 1.834-1.698zm-.092-56.963l-1.904-1.621-.001.001 1.905 1.62zm50.236 1.67l-1.953 1.56.001.001 1.952-1.561zm4.082 13.498l-1.386-2.08-.021.014-.02.014 1.427 2.052zm-1.901.742v-2.5h-.149l-.148.018.297 2.482zm-47.315-.927l-2.465-.413-.557 3.319 3.339-.427-.317-2.479zm32.656-4.175l.317 2.48 2.887-.369-.8-2.798-2.404.687zm-3.896-7.7l-1.987 1.516.004.007.005.006 1.978-1.529zm-4.175-4.825l1.646-1.881-.009-.008-.01-.009-1.627 1.898zm-18.323 2.273l1.864 1.667.007-.008-1.871-1.659zm-9.127 20.888l-.186 2.69 4.989.344.185-2.69-4.988-.344zm-.191 2.862c0 7.391 1.479 13.727 4.61 18.86 3.148 5.16 7.852 8.916 13.957 11.301l1.82-4.657c-5.213-2.037-8.998-5.131-11.509-9.248-2.528-4.145-3.878-9.514-3.878-16.256h-5zm18.567 30.161c3.67 1.435 7.38 2.166 11.115 2.166v-5c-3.068 0-6.162-.598-9.295-1.823l-1.82 4.657zm11.115 2.166c3.546 0 6.734-.322 9.538-.997l-1.171-4.861c-2.329.561-5.109.858-8.367.858v5zm9.538-.997c2.69-.648 5.031-1.446 6.981-2.421l-2.236-4.472c-1.514.756-3.472 1.443-5.916 2.032l1.171 4.861zm6.996-2.429a65.95 65.95 0 0 0 4.919-2.75l-2.642-4.245a60.918 60.918 0 0 1-4.544 2.538l2.267 4.457zm4.904-2.741c1.699-1.04 3.004-1.795 3.935-2.282.468-.245.802-.401 1.02-.489.328-.133.158-.015-.231-.015v-5c-.683 0-1.323.25-1.645.38a17.29 17.29 0 0 0-1.462.694c-1.079.564-2.495 1.387-4.229 2.449l2.612 4.263zm4.724-2.786c.187 0-.132.045-.48-.303s-.303-.667-.303-.48h5c0-.958-.241-2.135-1.162-3.055-.92-.921-2.097-1.162-3.055-1.162v5zm-.783-.783c0 .409-.208 1.233-1.132 2.564l4.108 2.85c1.18-1.699 2.024-3.535 2.024-5.414h-5zm-1.132 2.564c-.893 1.288-2.31 2.823-4.331 4.606l3.308 3.75c2.184-1.928 3.922-3.763 5.131-5.506l-4.108-2.85zm-4.315 4.593c-1.985 1.722-4.266 3.373-6.853 4.948l2.602 4.27c2.794-1.702 5.306-3.515 7.527-5.442l-3.276-3.776zm-6.864 4.955c-5.966 3.678-12.529 5.519-19.748 5.519v5c8.121 0 15.597-2.086 22.372-6.263l-2.624-4.256zm-19.748 5.519c-9.832 0-17.447-3.138-23.121-9.264l-3.669 3.397c6.757 7.295 15.779 10.867 26.79 10.867v-5zm-23.114-9.256c-6.076-6.621-9.176-15.051-9.176-25.492h-5c0 11.515 3.457 21.207 10.493 28.873l3.683-3.381zm-9.176-25.492c0-11.757 3.116-21.068 9.146-28.161l-3.809-3.239c-6.958 8.184-10.337 18.726-10.337 31.4h5zm9.145-28.16c5.911-6.944 13.187-10.346 21.986-10.346v-5c-10.312 0-18.963 4.082-25.793 12.105l3.807 3.241zm21.986-10.346c9.915 0 17.988 3.933 24.394 11.956l3.907-3.12c-7.324-9.172-16.817-13.836-28.301-13.836v5zm24.395 11.957c3.333 4.166 4.648 7.416 4.648 9.85h5c0-4.122-2.149-8.48-5.743-12.973l-3.905 3.123zm4.648 9.85a.231.231 0 0 1-.005.067l.006-.017a.15.15 0 0 1 .015-.032.182.182 0 0 1 .019-.031l.012-.016c.005-.005-.007.009-.047.036l2.773 4.16c1.442-.961 2.227-2.44 2.227-4.167h-5zm-.041.035a2.515 2.515 0 0 1-.49.28c-.09.035-.078.014.016.014v5c1.279 0 2.415-.554 3.329-1.19l-2.855-4.104zm-.771.312l-47.686 5.706.594 4.964 47.686-5.705-.594-4.965zm-46.701 4.034l32.656-4.174-.634-4.96-32.656 4.175.634 4.959zm34.743-7.341a25.147 25.147 0 0 0-4.322-8.543l-3.956 3.059a20.147 20.147 0 0 1 3.471 6.858l4.807-1.374zm-4.313-8.53c-1.801-2.361-3.322-4.145-4.516-5.189l-3.292 3.763c.785.687 2.048 2.119 3.834 4.459l3.974-3.033zm-4.535-5.206c-2.865-2.456-6.314-3.663-10.208-3.663v5c2.785 0 5.057.833 6.954 2.46l3.254-3.797zm-10.208-3.663c-4.317 0-8.19 2.317-11.612 6.175l3.741 3.318c2.886-3.254 5.507-4.493 7.871-4.493v-5zm-11.605 6.167c-3.552 3.971-5.789 9.262-6.864 15.681l4.931.826c.966-5.766 2.904-10.093 5.659-13.173l-3.726-3.334zm57.481 98.384l.168-2.495-.084-.005h-.084v2.5zm5.52.371l-.168 2.494.084.006h.084v-2.5zm7.793-6.494l-2.009-1.489-.005.007 2.014 1.482zm13.128-22.591l2.22 1.149v-.001l-2.22-1.148zm5.705-11.04l2.221 1.148.563-1.09-.517-1.112-2.267 1.054zm-23.75-51.072l-2.288 1.007.01.024.011.024 2.267-1.055zm-1.345-2.922l-2.282 1.021.011.025.012.024 2.259-1.07zm-1.021-2.366l-2.354.841.01.029.011.028 2.333-.898zm-.927-1.716l-2.16 1.26.032.054.034.052 2.094-1.366zm-.882-1.345l-1.92 1.6.072.087.08.081 1.768-1.768zm-1.02-.835l-1.519 1.986.038.029.039.027 1.442-2.042zm-1.299-.65l-.447 2.46.109.02.112.01.226-2.49zm-1.716-.278l-.395 2.469.007.001.007.001.381-2.471zm-5.103-.185l-2.495.152.143 2.348h2.352v-2.5zm-.371-6.077v-2.5h-2.657l.162 2.652 2.495-.152zm36.274 0l2.496.152.162-2.652h-2.658v2.5zm-.371 6.077v2.5h2.352l.144-2.348-2.496-.152zm-8.396.51l.746 2.386.034-.01.033-.012-.813-2.364zm-1.252 3.711l-2.425.606.018.074.023.073 2.384-.753zm.51 1.531l-2.354.84.026.073.03.071 2.298-.984zm.789 1.901l-2.316.944.022.052.024.052 2.27-1.048zm.742 1.67l-2.321.929.017.044.02.044 2.284-1.017zm16.142 36.275l-2.284 1.016 2.287 5.138 2.282-5.14-2.285-1.014zm11.968-26.951l-2.277-1.032-.004.009-.004.008 2.285 1.015zm4.5-18.137l-.695 2.401.029.009.03.008.636-2.418zm-9.231-.51h-2.5v2.5h2.5v-2.5zm0-6.077v-2.5h-2.5v2.5h2.5zm30.94 0h2.5v-2.5h-2.5v2.5zm0 6.077v2.5h2.5v-2.5h-2.5zm-7.979.278l.669 2.409.062-.017.06-.02-.791-2.372zm-1.299.325l-.49-2.452-.026.005-.026.006.542 2.441zm-1.809 1.577l-1.767-1.768-.081.08-.072.087 1.92 1.601zm-.788 1.345l-2.217-1.156-.02.038-.019.039 2.256 1.079zm-.789 1.67l-2.27-1.048-.02.044-.019.045 2.309.959zm-2.134 4.917l-2.277-1.031 2.277 1.031zm-28.899 63.828l2.277 1.032.001-.001-2.278-1.031zm-27.182 42.537l-.981-2.3-.012.005-.011.005 1.004 2.29zm-11.597-1.299l-1.908 1.615.002.003 1.906-1.618zm-.046-12.107l-1.747-1.789-.011.011-.01.01 1.768 1.768zm5.027.546l5.52.371.336-4.989-5.52-.371-.336 4.989zm5.688.377c1.874 0 3.59-.981 5.056-2.203 1.517-1.264 3.1-3.066 4.751-5.31l-4.028-2.963c-1.534 2.086-2.843 3.531-3.924 4.432-1.131.942-1.719 1.044-1.855 1.044v5zm9.802-7.506c3.314-4.473 7.768-12.16 13.339-22.93l-4.441-2.297c-5.562 10.753-9.86 18.127-12.916 22.25l4.018 2.977zm13.339-22.931l5.706-11.04-4.442-2.296-5.705 11.04 4.441 2.296zm5.752-13.242l-23.75-51.072-4.534 2.109 23.75 51.071 4.534-2.108zm-23.729-51.024c-.353-.803-.812-1.8-1.374-2.986l-4.518 2.14c.551 1.164.989 2.116 1.316 2.859l4.576-2.013zm-1.351-2.937c-.53-1.185-.843-1.913-.969-2.242l-4.667 1.795c.183.475.551 1.324 1.072 2.489l4.564-2.042zm-.948-2.185c-.255-.712-.691-1.48-1.188-2.242l-4.188 2.732c.43.66.612 1.037.667 1.191l4.709-1.681zm-1.123-2.136a23.668 23.668 0 0 0-.613-1.003c-.145-.221-.38-.57-.66-.85l-3.536 3.536c-.087-.087-.123-.142-.096-.105.017.023.053.073.109.159.114.173.271.43.477.783l4.319-2.52zm-1.12-1.686c-.394-.472-.996-.921-1.5-1.277l-2.883 4.085c.234.166.399.291.508.38.054.044.083.07.094.08.014.014-.013-.01-.06-.067l3.841-3.201zm-1.423-1.22c-.607-.464-1.514-1.055-2.591-1.153l-.452 4.979a1.232 1.232 0 0 1-.263-.05c-.047-.015-.064-.025-.049-.018.014.007.048.026.105.062.055.036.126.085.213.152l3.037-3.972zm-2.37-1.123a73.832 73.832 0 0 0-1.783-.29l-.761 4.942c.804.124 1.346.212 1.65.267l.894-4.919zm-1.768-.287a16.548 16.548 0 0 0-2.622-.217v5c.567 0 1.176.049 1.832.154l.79-4.937zm-2.622-.217h-2.876v5h2.876v-5zm-.381 2.347l-.371-6.076-4.99.304.371 6.077 4.99-.305zm-2.866-3.424h36.274v-5h-36.274v5zm33.779-2.652l-.371 6.076 4.991.305.371-6.077-4.991-.304zm2.124 3.729h-3.247v5h3.247v-5zm-3.247 0c-2.449 0-4.54.157-5.961.646l1.625 4.728c.557-.192 1.899-.374 4.336-.374v-5zm-5.894.624c-.752.234-1.569.632-2.213 1.337a3.907 3.907 0 0 0-1.026 2.672h5a1.127 1.127 0 0 1-.284.702c-.149.163-.224.136.014.061l-1.491-4.772zm-3.239 4.009c0 .936.093 1.841.307 2.694l4.85-1.213c-.096-.383-.157-.87-.157-1.481h-5zm.348 2.841c.192.607.372 1.148.54 1.618l4.708-1.681a42.713 42.713 0 0 1-.48-1.443l-4.768 1.506zm.596 1.762c.177.412.433 1.029.771 1.861l4.631-1.887a122.96 122.96 0 0 0-.806-1.943l-4.596 1.969zm.817 1.965c.373.809.594 1.31.691 1.551l4.642-1.857c-.151-.378-.424-.99-.793-1.789l-4.54 2.095zm.728 1.639l16.142 36.274 4.569-2.033-16.143-36.274-4.568 2.033zm20.711 36.272l11.968-26.95-4.57-2.03-11.967 26.951 4.569 2.029zm11.96-26.933c2.093-4.62 3.678-8.276 4.742-10.95.532-1.334.947-2.456 1.233-3.348.249-.777.51-1.697.51-2.459h-5c0-.128.001.083-.272.933-.235.735-.603 1.738-1.116 3.024-1.022 2.568-2.569 6.141-4.651 10.736l4.554 2.064zm6.485-16.757c0-1.019-.232-2.108-.922-3.052-.702-.961-1.687-1.51-2.704-1.778l-1.272 4.836c.086.022.1.038.072.02a.44.44 0 0 1-.061-.047.63.63 0 0 1-.119-.159l-.012-.029c.002.007.018.07.018.209h5zm-3.567-4.814c-1.561-.451-4.093-.608-7.282-.608v5c3.243 0 5.102.183 5.892.411l1.39-4.803zm-7.282-.608h-2.644v5h2.644v-5zm-.144 2.5v-6.077h-5v6.077h5zm-2.5-3.577h30.94v-5h-30.94v5zm28.44-2.5v6.077h5v-6.077h-5zm2.5 3.577h-4.546v5h4.546v-5zm-4.546 0c-.903 0-1.695.024-2.359.077-.62.051-1.291.138-1.864.329l1.581 4.744c-.017.005.163-.047.687-.089a25.13 25.13 0 0 1 1.955-.061v-5zm-4.102.369a17.53 17.53 0 0 1-1.12.282l.981 4.903c.399-.08.901-.207 1.477-.367l-1.338-4.818zm-1.172.293c-1.058.235-1.821.956-2.269 1.441l3.674 3.391c.109-.118.156-.149.138-.137a.855.855 0 0 1-.123.071 1.52 1.52 0 0 1-.335.115l-1.085-4.881zm-2.269 1.441c-.367.398-.617.661-.765.809l3.535 3.536c.223-.223.529-.548.904-.954l-3.674-3.391zm-.918.976c-.359.431-.744 1.137-1.085 1.79l4.433 2.312c.176-.336.313-.586.416-.761.051-.088.087-.144.108-.177.026-.04.014-.017-.031.037l-3.841-3.201zm-1.124 1.867c-.342.715-.61 1.284-.803 1.701l4.54 2.096c.179-.387.436-.932.774-1.639l-4.511-2.158zm-.842 1.79a167.342 167.342 0 0 1-2.102 4.845l4.555 2.062a169.488 169.488 0 0 0 2.165-4.99l-4.618-1.917zm-2.102 4.845L903.6 194.489l4.555 2.062 28.899-63.828-4.555-2.062zm-28.898 63.827c-5.777 12.74-10.885 22.556-15.323 29.501-2.219 3.472-4.239 6.176-6.055 8.152-1.84 2.003-3.346 3.12-4.509 3.616l1.962 4.599c2.099-.895 4.173-2.594 6.229-4.832 2.08-2.264 4.275-5.226 6.586-8.843 4.623-7.234 9.844-17.294 15.663-30.129l-4.553-2.064zm-25.91 41.279c-1.392.611-3.066.949-5.073.949v5c2.57 0 4.948-.434 7.081-1.37l-2.008-4.579zm-5.073.949c-1.608 0-2.731-.536-3.614-1.576l-3.812 3.236c1.901 2.238 4.458 3.34 7.426 3.34v-5zm-3.611-1.573c-.901-1.064-1.45-2.538-1.45-4.647h-5c0 3.023.811 5.724 2.633 7.877l3.817-3.23zm-1.45-4.647c0-2.152.552-3.367 1.263-4.077l-3.536-3.536c-1.949 1.949-2.727 4.631-2.727 7.613h5zm1.242-4.057c.793-.774 1.863-1.236 3.448-1.236v-5c-2.682 0-5.076.836-6.942 2.659l3.494 3.577z" fill="#000"/><path d="M11.687 150c0-46.023 37.754-83.344 84.313-83.344 46.559 0 84.313 37.321 84.313 83.344 0 46.023-37.754 83.344-84.313 83.344-46.559 0-84.313-37.321-84.313-83.344z" fill="#48C9B0"/><path d="M147.688 133.476L96.68 108.312a1.622 1.622 0 0 0-1.36 0l-51.04 25.164a1.531 1.531 0 0 0-.924 1.438v9.942c0 .546.276 1.05.754 1.344a1.565 1.565 0 0 0 1.53.105L96 121.445l50.329 24.86c.202.105.446.168.679.168.308 0 .616-.063.85-.231.478-.305.754-.809.754-1.344v-10.015c0-.609-.34-1.176-.924-1.407z" fill="#fff"/><path d="M138.311 146.578L96 125.75l-42.31 20.828v38.632h23.449v-29.636H93.28v29.636h45.03v-38.632z" fill="#fff"/><path d="M98.612 155.574h10.876v10.75H98.612v-10.75z" fill="#48C9B0"/></svg>