<svg id="layer" xmlns="http://www.w3.org/2000/svg" viewBox="0 0 652 652"><style>.st0{fill:#f37320}.st0,.st1,.st2,.st3,.st4,.st5{fill-rule:evenodd;clip-rule:evenodd}.st1{fill:#f15e22}.st2{fill:#ec008b}.st3{fill:#f13ab1}.st4{fill:#fd913c}.st5{fill:#f05524}</style><path class="st0" d="M321.2 571.4h-.7.7zm11.6-1.5c-.3.1-.6.1-1 .3.4-.1.7-.1 1-.3m-19.9.6c-.1 0-.3 0-.4-.1.1.1.3.1.4.1m16.7.2c-.7.1-1.6.3-2.2.4.6-.1 1.4-.3 2.2-.4m-4 .5c-.6.1-1.3.1-1.8.1.5.1 1.2.1 1.8-.1"/><path class="st1" d="M327.2 571c-.6 0-1.2.1-1.6.1.4.1 1-.1 1.6-.1m-14.6-.5c-.9-.1-1.9-.4-2.8-.6.9.1 1.8.4 2.8.6m19.3-.4c-.7.3-1.6.4-2.4.6.8-.1 1.7-.4 2.4-.6m-11.5 1.3c-2.5-.1-4.9-.3-7.4-.9 2.4.6 4.9.9 7.4.9m3.3-.1c-.7 0-1.6.1-2.5.1.9.1 1.8-.1 2.5-.1m159.5-415.5h-.1c-1.5-.6-2.8-.7-4.4-.7 1.8.1 3.8.6 5.8 1.3-.5-.1-.8-.4-1.3-.6"/><path class="st2" d="M473.2 155.8h-.1c-.4.3-.9.4-1.5.6 2.7-.9 4.9-1.2 7.2-1.2-2.1-.3-4 0-5.6.6"/><path class="st1" d="M530.3 171.9c-1.6-.6-2.9-.7-4.5-.7 1.9.1 3.7.4 5.8 1.3-.6-.3-.9-.5-1.3-.6"/><path class="st2" d="M520.2 171.8c-.5.3-1 .6-1.6.7 2.5-1 5-1.3 7.1-1.3-1.9-.2-3.8 0-5.5.6"/><path class="st1" d="M532.3 172.9c-1.6-.6-2.9-.6-4.5-.6 1.8 0 3.7.4 5.8 1.2-.5-.2-.8-.4-1.3-.6"/><path class="st2" d="M522.3 172.8c-.5.3-1 .4-1.6.7 2.5-1 4.9-1.3 7.1-1.3-2-.1-3.9.1-5.5.6"/><path class="st3" d="M155.6 72.3h.1c.4-.1 1-.3 1.5-.4-39.7 6-127.7 147.6-175 277.5-50.3 138.3-38.2 205 1.3 219.5h.1c39.5 14.3 91.6-29 142-167.4 13.6-37.3 25.2-77.7 34.4-116.9-24.5-105.4-29.9-202.7-4.4-212.3"/><path class="st4" d="M306.7 568.9h-.1.1c-39.7-14.6-51.6-81.4-1.3-219.5 5-13.7 10.3-27.6 16.2-41.3C269.9 184.6 190.2 64.9 157.2 71.8c2.7-.3 5-.1 7.1.6h.1v.1C190 82 184.5 179.2 160 284.7c9 39.1 20.6 79.3 34.4 116.8 39.7 109 80.5 158.9 115.3 168.2-.9-.2-1.9-.4-3-.8"/><path class="st5" d="M164.3 72.5h-.1c-2.1-.7-4.4-.9-6.8-.6-.7.1-1 .3-1.6.4h-.1c-25.5 9.6-20.1 106.9 4.3 212.3 24.3-105.4 29.8-202.5 4.3-212.1"/><path class="st4" d="M475.9 73c-37 13.4-107 122.8-154.2 235 5.8 13.7 11.2 27.6 16.2 41.3 50.3 138.2 38.3 205-1.3 219.4v.1c-1.2.3-2.5.7-3.5 1 34.9-9 76.1-58.8 115.7-168.4 13.4-36.4 24.8-75.5 33.6-113.7-24.5-104.5-30.7-202-6.5-214.7"/><path class="st5" d="M336.4 568.8h.1c39.5-14.4 51.5-81.4 1.3-219.5-5.2-13.7-10.5-27.6-16.4-41.3-5.8 13.7-11.2 27.6-16.2 41.3-50.3 138.2-38.2 205.1 1.3 219.5 1 .4 2.1.6 3.1.9.9.3 1.9.6 2.8.7h.4c2.7.6 5 .9 7.5 1h3.2c.6-.1 1.3-.1 1.8-.3.7 0 1.2-.1 1.9-.1.6-.1 1.3-.3 2.1-.4.9-.1 1.6-.1 2.4-.4.4 0 .7-.1 1-.1 1.3-.5 2.5-.8 3.7-1.3"/><path class="st3" d="M488.5 72.9c24.5 12.2 18.4 109.8-6.2 215 8.8 38.2 20.3 77.3 33.5 113.5C566.2 539.7 618.3 583.1 658 568.8h.1c39.4-14.6 51.5-81.2 1.2-219.5C613.6 223.8 530 87.5 488.5 72.9"/><path class="st5" d="M488.5 72.9c-1.9-.6-3.8-1.2-5.8-1.3-2.2 0-4.4.6-7.1 1.5-24 12.7-18 110 6.6 214.8 24.8-105.1 30.8-202.7 6.3-215"/></svg>