<svg xmlns="http://www.w3.org/2000/svg" height="800" width="1200" viewBox="-20.9607 -6.946525 181.6594 41.67915"><g fill="#E40046"><path d="M41.09 7.379c-3.009 0-4.82 1.47-4.82 3.89 0 1.875 1.023 3.172 4.324 4.324l1.08.375c2.045.721 2.659 1.326 2.659 2.335 0 1.268-1.11 2.047-2.98 2.047-1.519 0-2.717-.462-3.856-1.528-.467-.461-1.08-.461-1.548 0l-.03.029c-.379.374-.379 1.124 0 1.499 1.55 1.47 3.243 2.075 5.434 2.075 3.301 0 5.317-1.528 5.317-4.15 0-2.047-1.023-3.2-4.207-4.324l-1.051-.375c-2.162-.778-2.805-1.384-2.805-2.392 0-1.038.964-1.73 2.483-1.73 1.256 0 2.25.433 3.301 1.355.468.432 1.11.403 1.577-.058l.03-.028c.38-.375.38-1.125-.03-1.47-1.43-1.298-2.891-1.874-4.878-1.874m31.461 8.82v.346c0 2.19-1.577 3.804-4.119 3.804-1.986 0-3.184-.893-3.184-2.536 0-1.585 1.286-2.507 3.506-2.507h3.797zm-3.417-8.82c-1.812 0-3.506.49-5.142 2.133-.38.403-.38 1.182 0 1.556l.058.058c.439.432 1.081.432 1.52-.029 1.197-1.268 2.366-1.643 3.563-1.643 2.133 0 3.418 1.182 3.418 3.142v.72h-3.797c-3.68 0-5.842 1.643-5.842 4.497 0 2.68 2.073 4.612 4.995 4.612 2.074 0 3.68-.807 4.674-2.104v.634c0 .576.496 1.066 1.11 1.066h.058c.584 0 1.08-.49 1.08-1.095v-8.33c0-3.257-2.132-5.217-5.695-5.217zm62.22 8.82v.346c0 2.19-1.577 3.804-4.119 3.804-1.986 0-3.184-.893-3.184-2.536 0-1.585 1.286-2.507 3.506-2.507h3.797zm-3.418-8.82c-3.067 0-5.462 1.787-5.462 2.969 0 .288.087.576.292.778l.058.058a.975.975 0 0 0 .73.288c.497 0 .848-.375 1.315-.836.584-.576 1.52-1.182 3.067-1.182 2.133 0 3.418 1.182 3.418 3.142v.72h-3.797c-3.68 0-5.842 1.643-5.842 4.497 0 2.68 2.073 4.612 4.995 4.612 2.074 0 3.68-.807 4.674-2.104v.634c0 .576.496 1.066 1.11 1.066h.058c.584 0 1.08-.49 1.08-1.095v-8.33c0-3.257-2.132-5.217-5.696-5.217zm-25.385 8.762c-.292 2.652-1.635 4.209-4.089 4.209-2.775 0-4.148-2.018-4.148-5.448 0-3.43 1.373-5.448 4.148-5.448 2.483 0 3.827 1.614 4.09 4.324zm2.28 2.104V1.153c0-.605-.498-1.095-1.111-1.095h-.059c-.613 0-1.11.49-1.11 1.095v8.272C101.53 8.1 100.01 7.38 97.994 7.38c-3.885 0-6.017 2.767-6.017 7.523s2.132 7.523 6.018 7.523c2.161 0 3.768-.836 4.761-2.364.409 1.21 1.373 2.162 2.308 2.162.613 0 1.139-.432 1.139-1.066 0-1.153-1.373-.98-1.373-2.911zM83.65 20.35c-2.774 0-4.147-2.017-4.147-5.332v-.23c0-3.315 1.373-5.333 4.148-5.333 2.716 0 4.147 2.018 4.147 5.448 0 3.43-1.43 5.447-4.147 5.447m.467-12.97c-2.016 0-3.564.75-4.586 2.104V8.85c0-.577-.497-1.067-1.081-1.067h-.059c-.613 0-1.11.49-1.11 1.067v17.813c0 .605.497 1.095 1.11 1.095h.059c.613 0 1.11-.49 1.11-1.095V20.35c1.022 1.355 2.541 2.076 4.557 2.076 3.885 0 6.018-2.767 6.018-7.523S88.003 7.38 84.118 7.38m29.591 2.075c2.6 0 3.915 1.528 4.06 4.208h-8.062c.292-2.652 1.607-4.208 4.002-4.208zm5.726 9.742c-.467-.432-1.11-.49-1.636-.086-1.14.865-2.162 1.24-3.622 1.24-2.805 0-4.324-1.759-4.499-4.699h8.968c.847 0 1.46-.605 1.46-1.441 0-4.266-2.073-6.831-6.397-6.831-4.206 0-6.397 2.796-6.397 7.523s2.366 7.523 6.865 7.523c2.132 0 3.622-.519 5.2-1.787.438-.346.467-1.038.087-1.413l-.029-.029zm-68.385 1.73v-7.12c0-2.709 1.373-4.352 3.944-4.352 2.483 0 3.564 1.384 3.564 4.15v7.322c0 .605.496 1.095 1.11 1.095h.058c.614 0 1.11-.49 1.11-1.095v-7.379c0-4.18-1.636-6.168-5.316-6.168-2.016 0-3.535.75-4.499 2.104V8.85c0-.577-.496-1.067-1.08-1.067h-.059c-.613 0-1.11.49-1.11 1.067v12.077c0 .605.497 1.095 1.11 1.095h.058c.614 0 1.11-.49 1.11-1.095m87.548 1.297c.613 0 1.139-.432 1.139-1.067 0-1.152-1.373-.98-1.373-2.91V1.152c0-.605-.497-1.095-1.11-1.095h-.059c-.613 0-1.11.49-1.11 1.095V18.85c0 1.7 1.256 3.372 2.513 3.372"/><path mask="url(#mask-2)" d="M6.3 25.641c.321.548.672.75 1.315.75H19.59c.643 0 .993-.173 1.402-.692l9.056-11.53c.204-.259-.03-.691-.35-.691H15.18c-.642 0-.993-.202-1.314-.75L6.563.278c-.175-.289-.643-.23-.76.057L.166 13.794c-.263.606-.205 1.01.117 1.557z" transform="translate(0 1.395)"/><path d="M21.373 12.164c.321.547.672.75 1.315.75h7.01c.35 0 .614-.433.439-.75L23.447.75C23.126.202 22.775 0 22.133 0H8.753c-.35 0-.613.432-.437.75l3.476 5.937c.321.548.671.75 1.314.75h5.521z"/></g></svg>