<svg id="layer" xmlns="http://www.w3.org/2000/svg" viewBox="0 0 652 652"><style>.st0{fill:#ed1c24}.st0,.st1{fill-rule:evenodd;clip-rule:evenodd}</style><path class="st0" d="M113.1 314.3c1.4 2.4 2.9 3.3 5.7 3.3h30.3c1.5 0 2.6-1.9 1.9-3.3l-28.9-50c-1.4-2.4-2.9-3.3-5.6-3.3H58.6c-1.5 0-2.6 1.9-1.9 3.3l15 26c1.4 2.4 2.9 3.3 5.7 3.3h23.8l11.9 20.7zM48 379.5c1.4 2.4 2.9 3.3 5.7 3.3h51.8c2.8 0 4.3-.8 6.1-3l39.1-50.5c.9-1.1-.1-3-1.5-3H86.4c-2.8 0-4.3-.9-5.7-3.3l-31.6-54.5c-.8-1.3-2.8-1-3.3.2l-24.4 59c-1.1 2.7-.9 4.4.5 6.8l26.1 45z"/><path class="st1" d="M532.7 351.4c1.9-1.4 2.1-4.4.4-6.2l-.1-.1c-2-1.9-4.8-2.2-7.1-.4-4.9 3.8-9.4 5.4-15.7 5.4-12.1 0-18.7-7.7-19.4-20.6h38.8c3.6 0 6.3-2.7 6.3-6.3 0-18.7-9-29.9-27.6-29.9-18.2 0-27.7 12.3-27.7 33s10.2 33 29.7 33c9.1-.1 15.5-2.4 22.4-7.9m51.9 1.7c0 2.5 2.1 4.7 4.8 4.7h.2c2.6 0 4.7-2.1 4.7-4.8v-36.9c0-14.3-9.2-22.9-24.6-22.9-13.6 0-23.6 8.6-23.6 13 0 1.3.4 2.5 1.2 3.4l.3.2c.9.9 1.9 1.3 3.2 1.3 2.1 0 3.6-1.7 5.7-3.7 2.5-2.5 6.6-5.2 13.2-5.2 9.2 0 14.8 5.2 14.8 13.8v3.1H568c-15.9 0-25.3 7.2-25.3 19.7 0 11.7 9 20.2 21.6 20.2 9 0 15.9-3.5 20.2-9.2v3.3zm-18-3c-8.6 0-13.8-3.9-13.8-11.1 0-7 5.6-11 15.1-11h16.4v5.4c.2 9.6-6.7 16.7-17.7 16.7m-372.9-56.8c-13 0-20.8 6.4-20.8 17 0 8.2 4.4 13.9 18.7 19l4.7 1.6c8.8 3.2 11.5 5.8 11.5 10.2 0 5.6-4.8 9-12.9 9-6.6 0-11.8-2-16.7-6.7-2-2-4.7-2-6.7 0l-.1.1c-1.6 1.7-1.6 4.9 0 6.6 6.7 6.4 14 9.1 23.5 9.1 14.3 0 23-6.7 23-18.2 0-9-4.4-14-18.2-18.9l-4.6-1.7c-9.3-3.4-12.1-6.1-12.1-10.5 0-4.5 4.2-7.6 10.7-7.6 5.4 0 9.7 1.9 14.3 6 2 1.9 4.8 1.8 6.8-.2l.1-.1c.7-.7 1.3-2 1.3-3.2 0-1.2-.4-2.4-1.4-3.3-6.2-5.7-12.5-8.2-21.1-8.2m166.5 84.5v-27.6c4.4 5.9 11 9.1 19.7 9.1 16.8 0 26-12.1 26-33 0-20.8-9.2-33-26-33-8.7 0-15.4 3.3-19.8 9.2v-3.2c0-2.5-2.2-4.6-4.7-4.6h-.3c-2.6 0-4.8 2.1-4.8 4.6v78.5c0 2.6 2.1 4.8 4.8 4.8h.3c2.7 0 4.8-2.2 4.8-4.8m-30.3-24.7c0 2.5 2.1 4.7 4.8 4.7h.2c2.6 0 4.7-2.1 4.7-4.8v-36.9c0-14.3-9.2-22.9-24.6-22.9-13.6 0-23.6 8.6-23.6 13 0 1.3.4 2.5 1.3 3.4l.2.2c.9.9 1.9 1.3 3.1 1.3 2.2 0 3.7-1.7 5.7-3.7 2.5-2.5 6.6-5.2 13.2-5.2 9.2 0 14.8 5.2 14.8 13.8v3.1h-16.4c-15.9 0-25.3 7.2-25.3 19.7 0 11.7 9 20.2 21.6 20.2 9 0 15.9-3.5 20.2-9.2v3.3zm140.7 5.2c2.6 0 4.9-1.9 4.9-4.7 0-5.1-6-4.3-6-12.8V266c0-2.6-2.1-4.8-4.8-4.8h-.2c-2.6 0-4.8 2.2-4.8 4.8v36.3c-4.4-5.8-11-9-19.7-9-16.8 0-26 12.1-26 33 0 20.8 9.2 33 26 33 9.4 0 16.3-3.6 20.6-10.4 1.8 5.3 6 9.4 10 9.4M312 350.1c-8.6 0-13.8-3.9-13.8-11.1 0-7 5.6-11 15.2-11h16.4v5.4c0 9.6-6.9 16.7-17.8 16.7m-75.2 2.9v-31.6c0-11.9 5.9-19.1 17.1-19.1 10.7 0 15.4 6.1 15.4 18.2V353c0 2.6 2.2 4.8 4.8 4.8h.2c2.6 0 4.8-2.1 4.8-4.8v-32.7c0-18.3-7.1-27-23-27-8.7 0-15.3 3.3-19.4 9.2v-3.2c0-2.5-2.2-4.6-4.7-4.6h-.2c-2.7 0-4.8 2.1-4.8 4.6V353c0 2.6 2.2 4.8 4.8 4.8h.2c2.6 0 4.8-2.1 4.8-4.8m271.4-50.7c11.2 0 16.9 6.7 17.6 18.5h-34.9c1.2-11.6 6.9-18.5 17.3-18.5m-66.1 47.8c-12 0-17.9-8.9-17.9-23.9s5.9-23.9 17.9-23.9c12 0 17.9 8.9 17.9 23.4v1c0 14.6-5.9 23.4-17.9 23.4m-64.2-47.8c11.7 0 17.9 8.9 17.9 23.9s-6.2 23.9-17.9 23.9c-12 0-17.9-8.9-17.9-23.4v-1c0-14.5 5.9-23.4 17.9-23.4m237.9 56c2.7 0 4.9-1.9 4.9-4.7 0-5.1-5.9-4.3-5.9-12.8V266c0-2.6-2.2-4.8-4.8-4.8h-.2c-2.6 0-4.8 2.2-4.8 4.8v77.7c-.1 7.2 5.4 14.6 10.8 14.6"/></svg>