<svg xmlns="http://www.w3.org/2000/svg" width="512" height="512" viewBox="0 0 512.00066 512"><path xmlns="http://www.w3.org/2000/svg" d="M245.465 22.906s-36.016-27.222-47.442-9.078c-11.425 18.145-10.171 30.211 5.649 46.031" fill="#407093" data-original="#fee372"/><path xmlns="http://www.w3.org/2000/svg" d="M494.86 184.742c0 30.914-42.34 53.09-93.419 53.09H128.578c-24.55 0-45.074-2.754-61.836-6.652-40.617-9.438-59.133-25.602-59.133-25.602l18.145-43.691 44.64 2.175zm0 0" fill="#c2d0d5" data-original="#cce6f6"/><path xmlns="http://www.w3.org/2000/svg" d="M494.86 184.742s-49.727 18.145-116.938 18.145c-48.879 0-212.953-21.692-298.793-33.524-32.192-4.425-53.375-7.476-53.375-7.476-12.887-17.836 12.57-79.102 26.848-110.098C60.14 35.441 75.5 23.805 93.382 21.723a42.32 42.32 0 0 1 4.954-.301c9.016 0 14.812 15.039 23.484 29.582 8.13 13.656 18.785 26.871 37 26.871 37.637 0 86.64-54.969 86.64-54.969 96.259 65.942 170.77 95.297 170.77 95.297s62.168.34 77.29 15.465c15.12 15.121 13.41 43.012 1.34 51.074zm0 0" fill="#c2d0d5" data-original="#fb6572"/><path xmlns="http://www.w3.org/2000/svg" d="M79.129 169.363L66.742 231.18C26.125 221.742 7.61 205.578 7.61 205.578l18.145-43.691 44.64 2.175zm0 0" fill="#407093" data-original="#9dcae0"/><path xmlns="http://www.w3.org/2000/svg" d="M121.82 51.004c-20.68-26.012-60.113 63.526-42.69 118.363-32.192-4.426-53.375-7.48-53.375-7.48-12.887-17.832 12.57-79.102 26.848-110.098C60.14 35.441 75.5 23.81 93.382 21.723a42.436 42.436 0 0 1 4.954-.297c9.016-.004 14.812 15.035 23.484 29.578zm0 0" fill="#407093" data-original="#ea394e"/><path xmlns="http://www.w3.org/2000/svg" d="M278.45 44.672l-91.305 101.59c-30.903-18.352-75.41-33.422-108.16-43.024-24.622-7.222-42.598-11.367-43.145-11.492 3.125-8.375 6.465-16.566 9.683-24.031l40.27 13.148 11.375 3.715a47.133 47.133 0 0 0 39.207-4.59l8.395-5.125c4.125 1.899 8.77 3.012 14.05 3.012 37.637 0 86.64-54.969 86.64-54.969a1152.059 1152.059 0 0 0 32.99 21.766zm216.421 140.07s-49.734 18.14-116.945 18.14c-14.367 0-38.692-1.874-68.067-4.816v-.007c0-15.579 39.836-52.309 70.079-54.989 5.382 26.207 36.296 18.813 59.824 10.746 23.515-8.066 53.761-20.152 53.761-20.152 15.118 15.121 13.407 43.012 1.348 51.078zm0 0" fill="#407093" data-original="#4695bc"/><path xmlns="http://www.w3.org/2000/svg" d="M85.793 80.867c-2.66 6.89-4.992 14.461-6.809 22.371-24.62-7.218-42.597-11.367-43.144-11.492 3.125-8.375 6.465-16.562 9.683-24.031zm0 0" fill="#0e708e" data-original="#0e708e"/><path xmlns="http://www.w3.org/2000/svg" d="M379.938 143.07c-30.243 2.68-70.079 39.41-70.079 54.989v.007c-26.023-2.62-56.007-6.074-86.53-9.808 0-15.09-14.84-29.324-36.184-41.992v-.008l91.308-101.59c79.77 50.676 137.781 73.531 137.781 73.531 14.11 14.114-6.043 22.176-36.296 24.871zm0 0" fill="#407093" data-original="#fee372"/><path xmlns="http://www.w3.org/2000/svg" d="M240.629 60.676c5.902 3.976 13.625-2.024 11.434-8.707-2.145-6.54-11.61-6.88-14.231-.52-1.363 3.301-.203 7.25 2.797 9.227zm0 0" data-original="#000000"/><path xmlns="http://www.w3.org/2000/svg" d="M498.902 128.285c-7.629-7.625-23.601-12.722-48.843-15.582-14.746-1.672-27.996-2.02-32.329-2.09-7.074-2.84-17.058-7.238-29.304-13.133 2.191-2.976 1.949-7.18-.742-9.875a7.606 7.606 0 0 0-10.754 0l-2.817 2.817a949.229 949.229 0 0 1-11.543-5.93l.13-.129a7.606 7.606 0 0 0 0-10.754 7.606 7.606 0 0 0-10.755 0l-3.414 3.414c-3.672-1.992-7.43-4.058-11.273-6.199l.457-.457a7.606 7.606 0 0 0 0-10.754 7.606 7.606 0 0 0-10.754 0l-3.426 3.426c-3.62-2.086-7.3-4.23-11.031-6.441l.226-.227a7.606 7.606 0 0 0 0-10.754 7.606 7.606 0 0 0-10.753 0l-2.907 2.91a1121.543 1121.543 0 0 1-49.11-31.757c-3.034-2.286-26.773-19.598-44.437-16.372-5.937 1.086-10.753 4.329-13.933 9.38-11.656 18.507-11.676 33.085.5 48.527-11.414 7.007-23.113 11.972-33.266 11.972-17.887 0-27.293-17.117-35.59-32.215-6.851-12.464-13.32-24.238-24.898-24.238-1.902 0-3.863.117-5.824.348-20.168 2.344-38.106 15.535-46.817 34.43-7.265 15.777-17.324 39.156-23.972 60.949-7.7 25.222-9.141 42.222-4.403 52.816L.582 202.657a7.601 7.601 0 0 0 2.023 8.648c1.594 1.394 40.098 34.132 125.973 34.132h272.867c55.516 0 97.868-24.25 100.848-56.996 5.168-5.023 8.559-12.78 9.46-21.949 1.423-14.445-3.382-28.73-12.85-38.207zm-23.914 4.465c-10.742 4.14-25.234 9.605-37.703 13.883-8.031 2.754-32.472 11.133-43.617 4.765a11.12 11.12 0 0 1-2.543-1.953c21.242-3.015 33.203-8.87 36.445-17.797.559-1.539.938-3.39.856-5.488 15.86.8 34.074 2.961 46.562 6.59zM282.484 75.863a7.58 7.58 0 0 0 5.38 2.227c1.945 0 3.89-.742 5.374-2.227l8.16-8.156c3.73 2.223 7.399 4.383 11 6.473l-4.93 4.925a7.606 7.606 0 0 0 10.759 10.754l7.863-7.863c3.847 2.156 7.597 4.23 11.246 6.223l-4.883 4.883a7.606 7.606 0 0 0 10.758 10.753l8.133-8.132a975.921 975.921 0 0 0 11.511 5.96l-5.414 5.415a7.606 7.606 0 0 0 5.38 12.98c1.945 0 3.89-.742 5.374-2.226l9.012-9.012c18.156 8.847 30.39 14.031 34.605 15.773.825.961 1.208 1.653 1.352 2.012-1.348 1.84-9.695 6.719-33.898 8.871-29.211 2.598-66.547 32.977-75.176 54.332-22.645-2.336-47.992-5.254-73.914-8.406-2.75-12.524-13.11-24.73-31.313-36.817l80.957-90.09a997.334 997.334 0 0 0 8.18 5.079l-5.512 5.515a7.602 7.602 0 0 0-.004 10.754zM204.457 17.88c.906-1.442 2.043-2.195 3.793-2.516 6.465-1.191 17.21 3.735 25.563 8.84-7.235 7.367-17.653 16.992-29.145 25.54-8.867-10.587-8.602-18.536-.211-31.864zM59.507 54.965c6.505-14.11 19.821-23.953 34.763-25.688a35.54 35.54 0 0 1 4.066-.246c2.582 0 8.43 10.64 11.57 16.356 5.203 9.472 11.489 20.902 20.727 29.133a39.46 39.46 0 0 1-31.106 2.828L55.832 63.086a782.06 782.06 0 0 1 3.676-8.121zm-18.87 45.765c12.832 3.176 42.965 11.028 74.656 22.106a7.603 7.603 0 0 0 9.688-4.672 7.607 7.607 0 0 0-4.669-9.687c-30.874-10.79-60.316-18.582-74.304-22.082a547.436 547.436 0 0 1 3.77-9.286l45.027 14.696a54.701 54.701 0 0 0 17 2.71 54.68 54.68 0 0 0 28.53-8.038l5.13-3.133c4.027 1.363 8.457 2.14 13.36 2.14 33.96 0 74.277-38.648 87.75-52.625a1114.54 1114.54 0 0 0 20.238 13.38l-81.196 90.355c-10.418-5.785-22.644-11.551-36.726-17.32a7.604 7.604 0 0 0-9.918 4.156 7.6 7.6 0 0 0 4.152 9.918c47.355 19.402 64.508 35.293 70.129 45.992-81.422-10.113-163.926-21.774-182.547-24.426-2.395-7.496-.43-24.871 9.93-54.184zm422.984 115.5c-16.285 9.028-38.363 14-62.176 14H128.578c-64.121 0-99.953-19.511-111.656-27.261l13.59-32.719c42.027 5.992 284.96 40.242 347.414 40.242 1.484 0 2.96-.012 4.426-.031a7.61 7.61 0 0 0 7.496-7.711 7.606 7.606 0 0 0-7.602-7.496h-.11c-1.394.02-2.796.027-4.21.027-12.543 0-32.926-1.465-57.73-3.844 3.179-5.152 9.163-12.304 18.226-19.863 12.16-10.144 25.265-17.277 36.262-19.918 2.437 5.645 6.261 9.985 11.441 12.946 5.434 3.105 11.84 4.324 18.664 4.324 12.227 0 25.781-3.914 37.43-7.91 17.672-6.059 39.297-14.453 48.992-18.262 4.832 7.023 6.047 15.758 5.41 22.25-.57 5.777-2.594 10.625-5.348 12.934-5.78 1.976-36.52 11.933-79.347 15.792a7.604 7.604 0 0 0-6.89 8.258c.378 4.184 4.093 7.266 8.257 6.89 31.95-2.878 57.2-8.933 71.43-12.987-4.614 9.867-14.52 16.691-21.102 20.34zm0 0" data-original="#000000"/></svg>