<svg xmlns="http://www.w3.org/2000/svg" width="546.5pt" height="161.5pt" viewBox="0 0 546.5 161.5"><defs><clipPath id="a"><path d="M0 18h546.5v125H0zm0 0"/></clipPath></defs><path d="M.086 161.496h546.5V-.004H.086zm0 0" fill-rule="evenodd" fill="#e63e0d"/><g clip-path="url(#a)"><path d="M.086 142.496h546.5v-123.5H.086zm0 0" fill-rule="evenodd" fill="#000200"/></g><path d="M147.223 46.223l-7.809 14.234c-1.008-1.496-2.246-2.437-3.68-2.883-1.445-.422-4.261-.633-8.433-.633h-24.887c-2.441.04-3.89.137-4.309.29-1.062.363-2.027 1.113-2.859 2.226-.805 1.078-.992 1.79-.582 2.133.395.367 1.621.539 3.629.539h22.98c12.47-.555 14.45 4.726 5.934 15.851l-6.078 8.125c-4.496 6.016-9.961 10.512-16.434 13.508-2.965 1.364-5.644 2.27-8.074 2.73-2.465.481-5.738.712-9.848.712H35.602l8.214-14.567c2.243 1.77 4.09 2.844 5.57 3.25 1.481.403 4.294.594 8.446.594H83.43c2.086 0 3.66-.21 4.738-.652 1.047-.422 2.043-1.27 2.977-2.516.933-1.25 1.23-2.059.906-2.46-.305-.403-1.418-.599-3.32-.599H62.788c-3.2 0-5.453-.285-6.73-.882-1.29-.575-2.024-1.653-2.223-3.227-.461-2.422 1.086-6.031 4.598-10.836l6.75-9.031c3.289-4.399 7.351-7.992 12.195-10.758 3.512-2.02 6.941-3.383 10.246-4.094 3.324-.71 7.898-1.054 13.73-1.054zm-44.274 76.773l46.766-62.558c3.219-4.301 5.332-7.32 6.289-9.008.976-1.711 1.621-3.442 1.91-5.207h27.984l-2.492 5.148c2.883-2.094 5.375-3.476 7.535-4.152 2.145-.672 5.063-.996 8.746-.996h20.84c4.352 0 7.371.46 9.055 1.402 1.688.941 2.461 2.613 2.34 4.992-.04 1.059-.54 2.594-1.508 4.594a31.93 31.93 0 0 1-3.285 5.477l-18.453 24.687c-3.637 4.863-7.906 8.703-12.805 11.488-4.875 2.79-9.793 4.192-14.691 4.192h-24.04c-4.84 0-6.859-1.77-6.05-5.285l-8.203 10.972c-3.246 4.34-5.36 7.356-6.332 9.067-.961 1.691-1.586 3.421-1.895 5.187zm59.473-30.664h6.664c2.57 0 4.7-.52 6.387-1.555 1.672-1.02 3.632-3.02 5.816-5.937l15.797-21.137c1.41-1.883 2.226-3.055 2.476-3.55.239-.481.344-1.06.25-1.692-.101-.598-.425-1-.957-1.211-.55-.21-1.53-.309-2.968-.309h-8.082c-2.145 0-4.114.52-5.88 1.559-1.753 1.016-3.476 2.668-5.155 4.918l-17.063 22.824c-1.668 2.227-2.285 3.785-1.879 4.707.402.922 1.922 1.383 4.594 1.383zm90.605-46.11h54.575c4.109 0 6.945.266 8.488.805 1.547.559 2.668 1.633 3.336 3.285 1.238 3.25.023 7.282-3.664 12.106l-19.735 26.398c-3.23 4.325-5.328 7.32-6.304 9.032-.973 1.71-1.618 3.437-1.907 5.207h-29.101c.281-1.54 1.187-3.535 2.715-6.016-2.18 2.074-4.493 3.574-6.97 4.555-2.472.98-5.241 1.46-8.339 1.46h-21.89c-3.665 0-6.31-.23-7.903-.671-1.598-.465-2.742-1.29-3.43-2.48-.66-1.286-.632-2.923.09-4.919.739-2.02 2.223-4.515 4.477-7.53l7.238-9.684c3.176-4.247 6.883-7.473 11.176-9.723 4.293-2.246 8.91-3.383 13.848-3.383h27.886c2.559-.035 4.301-.172 5.227-.383 1.793-.5 3.418-1.73 4.898-3.707 1.051-1.402 1.32-2.363.82-2.883-.519-.5-2.011-.75-4.503-.75h-28.493c-4.843-.078-9.71.829-14.566 2.692zm23.758 29.165h-14.133c-2.613 0-4.8.52-6.57 1.554-1.77 1.04-3.676 2.942-5.746 5.707l-1.852 2.48c-2.039 2.727-2.96 4.61-2.742 5.65.215 1.034 1.63 1.554 4.242 1.554h7.188c2.652 0 4.863-.52 6.633-1.555 1.765-1.039 3.66-2.922 5.699-5.648zm90.594-29.164l-6.227 9.355c2.41-2.25 4.391-3.922 5.977-5.016 1.59-1.093 3.398-1.996 5.387-2.707 3.296-1.136 6.96-1.671 11.004-1.632h14.78L384.228 65.05c-.446-1.25-1.391-2.094-2.79-2.555-1.363-.48-3.742-.71-7.062-.71h-5.992c-3.16 0-6.172.745-9 2.226-2.824 1.48-5.227 3.554-7.254 6.265l-13.875 18.559c-3.215 4.305-5.328 7.32-6.29 9.012-.972 1.71-1.62 3.437-1.905 5.207h-34.145c2.356-1.77 4.297-3.496 5.879-5.207 1.566-1.692 3.965-4.707 7.18-9.012l21.156-28.3c3.234-4.325 5.348-7.34 6.336-9.071.988-1.727 1.648-3.477 1.937-5.242zm75.75 22.785l2.336 23.285c.34 3.691.68 6.11.984 7.3.336 1.173.953 2.325 1.887 3.462h-42.117c.902-1.614 1.445-2.883 1.683-3.825.215-.94.23-2.152.028-3.613l-1.13-8.105-20.644 10.468c-3.422 1.73-5.98 3.422-7.703 5.075h-21.3c3.652-1.5 6.726-2.825 9.202-3.996 2.477-1.172 6.41-3.133 11.856-5.918l27.586-14.121-1.973-20.387c-.59-5.168-1.328-9.301-2.16-12.41h40.883c-1.219 2.363-1.527 4.859-.953 7.53l.699 6.513 36.445-19.887c6.473-3.531 10.727-5.844 12.516-7.531h20.332a170.884 170.884 0 0 0-7.383 3.535c-3.117 1.574-6.598 3.187-10.262 5.168zm-117.652 44.648l-1.868 3.23c-.261-.226-.53-.366-.8-.421-.27-.055-.844-.078-1.715-.078h-6.758c-.734 0-1.309.12-1.715.363-.414.246-.93.773-1.55 1.586l-5.509 7.219c-.546.715-.835 1.195-.867 1.437.012.34.403.504 1.168.496h1.914c.559 0 1.016-.11 1.36-.32.347-.215.77-.652 1.281-1.324l2.176-2.852h-1.672c-.496 0-.902.028-1.215.074a8.23 8.23 0 0 0-1.191.301l2.293-3.008h11.246c-.883.551-1.75 1.368-2.614 2.454l-3.78 4.953c-.794 1.086-1.173 1.902-1.13 2.453h-5.883c.22-.461.567-1.059 1.04-1.797-.59.715-1.196 1.191-1.805 1.433-.613.247-1.52.364-2.727.364h-5.183c-1.008 0-1.723-.059-2.149-.172-.418-.121-.703-.332-.84-.637-.277-.586.016-1.457.88-2.62l7.394-9.696c.918-1.168 1.96-2.04 3.125-2.625a7.056 7.056 0 0 1 1.824-.645c.594-.11 1.398-.168 2.406-.168zm7.84 0h10.359c.683 0 1.258.117 1.715.364.457.246.718.574.796.988.16.656-.37 1.785-1.59 3.394l-5.394 7.07c-1.238 1.61-2.437 2.743-3.594 3.4a10.22 10.22 0 0 1-2.3.983c-.832.247-1.59.364-2.274.364h-10.36c-.687 0-1.257-.117-1.718-.364-.453-.242-.719-.57-.797-.984-.16-.656.371-1.789 1.594-3.398l5.394-7.07c1.235-1.61 2.434-2.739 3.59-3.395a10.408 10.408 0 0 1 2.305-.988c.832-.247 1.59-.364 2.273-.364zm-1.352 4.672l-5.508 7.219c-.55.719-.844 1.2-.883 1.445.016.34.399.504 1.168.496h2.395c.734 0 1.304-.12 1.71-.363.41-.246.923-.77 1.54-1.578l5.508-7.219c.55-.719.84-1.2.878-1.445-.011-.34-.398-.504-1.164-.496h-2.644c-.602 0-1.11.133-1.512.394-.406.266-.902.778-1.488 1.547zm30.402-1.941l-3.05 4h5.94c.798.008 1.661-.13 2.606-.414l-2.781 3.64a2.707 2.707 0 0 0-.95-.402c-.323-.063-.843-.094-1.546-.094h-5.352l-3.546 4.645c-.793 1.09-1.168 1.906-1.133 2.457h-8.246c.902-.574 1.773-1.395 2.62-2.457l8.891-11.653c.778-1.062 1.153-1.879 1.13-2.453h15.605l-1.844 3.133c-.375-.187-.707-.297-1.008-.328-.297-.031-1.105-.059-2.414-.074zm16.942-2.73h10.359c.684 0 1.258.116 1.715.363.457.246.722.574.797.988.16.656-.368 1.785-1.59 3.394l-5.395 7.07c-1.238 1.61-2.437 2.743-3.593 3.4-.707.413-1.473.741-2.301.983-.832.247-1.59.364-2.274.364h-10.359c-.684 0-1.258-.117-1.715-.364-.457-.242-.723-.57-.8-.984-.16-.656.37-1.789 1.593-3.398l5.395-7.07c1.238-1.61 2.433-2.739 3.59-3.395.71-.414 1.476-.742 2.304-.988.832-.247 1.59-.364 2.274-.364zm-1.352 4.671l-5.508 7.219c-.55.719-.84 1.2-.883 1.445.016.34.403.504 1.168.496h2.395c.734 0 1.305-.12 1.715-.363.406-.246.918-.77 1.535-1.578l5.508-7.219c.55-.719.84-1.2.883-1.445-.016-.34-.399-.504-1.168-.496h-2.645c-.602 0-1.11.133-1.512.394-.406.266-.902.778-1.488 1.547zm20.64 4.84h-2.09l-3.515 4.605c-.781 1.07-1.156 1.887-1.125 2.446h-8.246c.902-.574 1.77-1.39 2.61-2.446l8.902-11.664c.777-1.062 1.152-1.879 1.129-2.453h14.648c1.012 0 1.73.059 2.16.168.43.114.707.328.84.645.281.582-.015 1.457-.875 2.62l-2.73 3.579c-.575.754-1.094 1.297-1.563 1.637-.828.593-1.668.886-2.52.886-.113 0-.265-.007-.452-.023l-1.215 4.797c-.235.863-.352 1.617-.352 2.254h-7.84zm-.003-2.734h3.785c.582 0 1.031-.09 1.34-.27.308-.176.699-.57 1.164-1.176l.625-.824c.629-.82.926-1.32.898-1.504-.023-.183-.398-.273-1.12-.273h-3.606zm21.414 9.785h-8.246c.902-.574 1.77-1.39 2.613-2.45l8.89-11.652c.778-1.062 1.16-1.887 1.137-2.46h8.246c-.882.55-1.753 1.37-2.62 2.46l-8.891 11.653c-.793 1.085-1.172 1.898-1.13 2.449zm5.699 0c.887-.551 1.754-1.364 2.613-2.45l8.688-11.382h-3.145c-.636 0-1.129.035-1.48.093-.356.067-.778.2-1.27.403l2.996-3.227h16.727l-1.93 3.227a1.311 1.311 0 0 0-.66-.403c-.254-.058-.695-.093-1.332-.093h-3.144l-8.688 11.383c-.793 1.085-1.168 1.898-1.125 2.449zm0 0" fill-rule="evenodd" fill="#fff"/></svg>